<?xml version="1.0" encoding="UTF-8"?><svg xmlns="http://www.w3.org/2000/svg" xmlns:xlink="http://www.w3.org/1999/xlink" clip-rule="evenodd" stroke-miterlimit="4.00" viewBox="0 0 414 340"><desc>SVG generated by Keynote</desc><defs></defs><g transform="matrix(1.00, 0.00, -0.00, -1.00, 0.0, 340.0)"><image xlink:href="6BF6173689A406181AC104B1022CACB7.png" width="411.00" height="333.00" transform="matrix(1.00, 0.00, -0.00, -1.00, 1.2, 334.5)" opacity="0.50"></image><path d="M 79.3 333.5 L 334.4 333.5 C 356.0 333.5 366.9 333.5 378.5 329.8 C 391.2 325.2 401.2 315.2 405.8 302.5 C 409.5 290.9 409.5 280.0 409.5 258.1 L 409.5 81.2 C 409.5 59.7 409.5 48.7 405.8 37.1 C 401.2 24.4 391.2 14.4 378.5 9.8 C 366.9 6.1 356.0 6.1 334.1 6.1 L 79.3 6.1 C 57.8 6.1 46.8 6.1 35.2 9.8 C 22.5 14.4 12.5 24.4 7.9 37.1 C 4.2 48.7 4.2 59.7 4.2 81.5 L 4.2 258.4 C 4.2 280.0 4.2 290.9 7.9 302.5 C 12.5 315.2 22.5 325.2 35.2 329.8 C 46.8 333.5 57.8 333.5 79.6 333.5 Z M 79.3 333.5 " fill="#000000"></path></g></svg>