<?xml version="1.0" encoding="UTF-8"?><svg xmlns="http://www.w3.org/2000/svg" xmlns:xlink="http://www.w3.org/1999/xlink" clip-rule="evenodd" stroke-miterlimit="4.00" viewBox="0 0 194 23"><desc>SVG generated by Keynote</desc><defs></defs><g transform="matrix(1.00, 0.00, -0.00, -1.00, 0.0, 23.0)"><text xml:space="preserve" font-family="Avenir-Heavy" font-weight="bold" font-size="16.0" fill="#FEFFFF" transform="matrix(1.00, 0.00, -0.00, -1.00, 0.7, 6.0)">M</text><text xml:space="preserve" font-family="Avenir-Heavy" font-weight="bold" font-size="16.0" fill="#FEFFFF" transform="matrix(1.00, 0.00, -0.00, -1.00, 15.6, 6.0)">i</text><text xml:space="preserve" font-family="Avenir-Heavy" font-weight="bold" font-size="16.0" fill="#FEFFFF" transform="matrix(1.00, 0.00, -0.00, -1.00, 19.7, 6.0)">s</text><text xml:space="preserve" font-family="Avenir-Heavy" font-weight="bold" font-size="16.0" fill="#FEFFFF" transform="matrix(1.00, 0.00, -0.00, -1.00, 26.8, 6.0)">s</text><text xml:space="preserve" font-family="Avenir-Heavy" font-weight="bold" font-size="16.0" fill="#FEFFFF" transform="matrix(1.00, 0.00, -0.00, -1.00, 33.9, 6.0)"> </text><text xml:space="preserve" font-family="Avenir-Heavy" font-weight="bold" font-size="16.0" fill="#FEFFFF" transform="matrix(1.00, 0.00, -0.00, -1.00, 38.7, 6.0)">w</text><text xml:space="preserve" font-family="Avenir-Heavy" font-weight="bold" font-size="16.0" fill="#FEFFFF" transform="matrix(1.00, 0.00, -0.00, -1.00, 51.4, 6.0)">o</text><text xml:space="preserve" font-family="Avenir-Heavy" font-weight="bold" font-size="16.0" fill="#FEFFFF" transform="matrix(1.00, 0.00, -0.00, -1.00, 61.2, 6.0)">r</text><text xml:space="preserve" font-family="Avenir-Heavy" font-weight="bold" font-size="16.0" fill="#FEFFFF" transform="matrix(1.00, 0.00, -0.00, -1.00, 67.4, 6.0)">k</text><text xml:space="preserve" font-family="Avenir-Heavy" font-weight="bold" font-size="14.0" fill="#FEFFFF" transform="matrix(1.00, 0.00, -0.00, -1.00, 76.0, 6.0)"> </text><text xml:space="preserve" font-family="Avenir-Heavy" font-weight="bold" font-size="16.0" fill="#FEFFFF" transform="matrix(1.00, 0.00, -0.00, -1.00, 80.1, 6.0)"> </text><text xml:space="preserve" font-family="Avenir-Heavy" font-weight="bold" font-size="16.0" fill="#FEFFFF" transform="matrix(1.00, 0.00, -0.00, -1.00, 84.9, 6.0)"> </text><text xml:space="preserve" font-family="Avenir-Heavy" font-weight="bold" font-size="16.0" fill="#FEFFFF" transform="matrix(1.00, 0.00, -0.00, -1.00, 89.6, 6.0)"> </text><text xml:space="preserve" font-family="Avenir-Heavy" font-weight="bold" font-size="16.0" fill="#FEFFFF" transform="matrix(1.00, 0.00, -0.00, -1.00, 94.3, 6.0)"> </text><text xml:space="preserve" font-family="Avenir-Heavy" font-weight="bold" font-size="16.0" fill="#FEFFFF" transform="matrix(1.00, 0.00, -0.00, -1.00, 99.1, 6.0)"> </text><text xml:space="preserve" font-family="Avenir-Heavy" font-weight="bold" font-size="16.0" fill="#FEFFFF" transform="matrix(1.00, 0.00, -0.00, -1.00, 103.8, 6.0)"> </text><text xml:space="preserve" font-family="Avenir-Heavy" font-weight="bold" font-size="16.0" fill="#FEFFFF" transform="matrix(1.00, 0.00, -0.00, -1.00, 108.5, 6.0)"> </text><text xml:space="preserve" font-family="Avenir-Heavy" font-weight="bold" font-size="16.0" fill="#FEFFFF" transform="matrix(1.00, 0.00, -0.00, -1.00, 113.3, 6.0)"> </text><text xml:space="preserve" font-family="Avenir-Heavy" font-weight="bold" font-size="16.0" fill="#FEFFFF" transform="matrix(1.00, 0.00, -0.00, -1.00, 118.0, 6.0)"> </text><text xml:space="preserve" font-family="Avenir-Heavy" font-weight="bold" font-size="16.0" fill="#FEFFFF" transform="matrix(1.00, 0.00, -0.00, -1.00, 122.7, 6.0)"> </text><text xml:space="preserve" font-family="Avenir-Heavy" font-weight="bold" font-size="16.0" fill="#FEFFFF" transform="matrix(1.00, 0.00, -0.00, -1.00, 127.5, 6.0)"> </text><text xml:space="preserve" font-family="Avenir-Heavy" font-weight="bold" font-size="16.0" fill="#FEFFFF" transform="matrix(1.00, 0.00, -0.00, -1.00, 132.2, 6.0)"> </text><text xml:space="preserve" font-family="Avenir-Heavy" font-weight="bold" font-size="16.0" fill="#FEFFFF" transform="matrix(1.00, 0.00, -0.00, -1.00, 137.0, 6.0)"> </text><text xml:space="preserve" font-family="Avenir-Heavy" font-weight="bold" font-size="16.0" fill="#FEFFFF" transform="matrix(1.00, 0.00, -0.00, -1.00, 141.7, 6.0)"> </text><text xml:space="preserve" font-family="Avenir-Heavy" font-weight="bold" font-size="16.0" fill="#FEFFFF" transform="matrix(1.00, 0.00, -0.00, -1.00, 146.4, 6.0)"> </text><text xml:space="preserve" font-family="Avenir-Heavy" font-weight="bold" font-size="16.0" fill="#FEFFFF" transform="matrix(1.00, 0.00, -0.00, -1.00, 151.2, 6.0)"> </text><text xml:space="preserve" font-family="Avenir-Heavy" font-weight="bold" font-size="14.0" fill="#FEFFFF" transform="matrix(1.00, 0.00, -0.00, -1.00, 155.9, 6.0)"> </text><text xml:space="preserve" font-family="Avenir-Heavy" font-weight="bold" font-size="14.0" fill="#FEFFFF" transform="matrix(1.00, 0.00, -0.00, -1.00, 160.0, 6.0)"> </text><text xml:space="preserve" font-family="Avenir-Heavy" font-weight="bold" font-size="14.0" fill="#FEFFFF" transform="matrix(1.00, 0.00, -0.00, -1.00, 164.2, 6.0)"> </text><text xml:space="preserve" font-family="Avenir-Heavy" font-weight="bold" font-size="16.0" fill="#FEFFFF" transform="matrix(1.00, 0.00, -0.00, -1.00, 168.3, 6.0)">Y</text><text xml:space="preserve" font-family="Avenir-Heavy" font-weight="bold" font-size="16.0" fill="#FEFFFF" transform="matrix(1.00, 0.00, -0.00, -1.00, 176.9, 6.0)">e</text><text xml:space="preserve" font-family="Avenir-Heavy" font-weight="bold" font-size="16.0" fill="#FEFFFF" transform="matrix(1.00, 0.00, -0.00, -1.00, 186.1, 6.0)">s</text><g><clipPath id="clip-14"><path d="M -0.4 3.8 L 75.8 3.8 L 75.8 6.6 L -0.4 6.6 Z M -0.4 3.8 "></path></clipPath><g clip-path="url(#clip-14)"><path d="M 111.7 254.5 L 187.0 254.5 " fill="none" stroke="#FEFFFF" stroke-width="0.80" stroke-miterlimit="0.00" transform="matrix(1.00, 0.00, 0.00, -1.00, -111.1, 259.7)"></path></g></g><g><clipPath id="clip-15"><path d="M 167.2 3.8 L 193.1 3.8 L 193.1 6.6 L 167.2 6.6 Z M 167.2 3.8 "></path></clipPath><g clip-path="url(#clip-15)"><path d="M 279.3 254.5 L 304.2 254.5 " fill="none" stroke="#FEFFFF" stroke-width="0.80" stroke-miterlimit="0.00" transform="matrix(1.00, 0.00, 0.00, -1.00, -111.1, 259.7)"></path></g></g></g></svg>