<?xml version="1.0" encoding="UTF-8"?><svg xmlns="http://www.w3.org/2000/svg" xmlns:xlink="http://www.w3.org/1999/xlink" clip-rule="evenodd" stroke-miterlimit="4.00" viewBox="0 0 140 76"><desc>SVG generated by Keynote</desc><defs></defs><g transform="matrix(1.00, 0.00, -0.00, -1.00, 0.0, 76.0)"><image xlink:href="B3C7B9DC2FE3B7E5029CE4B350C6B29B.png" width="136.00" height="69.00" transform="matrix(1.00, 0.00, -0.00, -1.00, 1.6, 70.8)" opacity="0.50"></image><path d="M 30.0 67.3 L 109.6 67.3 C 116.2 67.3 119.5 67.3 123.1 66.1 C 126.9 64.7 130.0 61.7 131.4 57.8 C 132.5 54.3 132.5 50.9 132.5 44.2 L 132.5 32.2 C 132.5 25.7 132.5 22.3 131.4 18.8 C 130.0 14.9 126.9 11.8 123.1 10.4 C 119.5 9.3 116.2 9.3 109.5 9.3 L 30.0 9.3 C 23.5 9.3 20.1 9.3 16.6 10.4 C 12.7 11.8 9.6 14.9 8.2 18.8 C 7.1 22.3 7.1 25.7 7.1 32.3 L 7.1 44.3 C 7.1 50.9 7.1 54.3 8.2 57.8 C 9.6 61.7 12.7 64.7 16.6 66.1 C 20.1 67.3 23.5 67.3 30.1 67.3 Z M 30.0 67.3 " fill="#000000"></path><path d="M 22.9 0.0 L 102.5 0.0 C 109.1 0.0 112.4 0.0 116.0 1.1 C 119.8 2.5 122.9 5.6 124.3 9.5 C 125.4 13.0 125.4 16.4 125.4 23.0 L 125.4 35.0 C 125.4 41.6 125.4 44.9 124.3 48.5 C 122.9 52.4 119.8 55.4 116.0 56.8 C 112.4 58.0 109.1 58.0 102.4 58.0 L 22.9 58.0 C 16.4 58.0 13.0 58.0 9.5 56.8 C 5.6 55.4 2.5 52.4 1.1 48.5 C 0.0 44.9 0.0 41.6 0.0 34.9 L 0.0 22.9 C 0.0 16.4 0.0 13.0 1.1 9.5 C 2.5 5.6 5.6 2.5 9.5 1.1 C 13.0 0.0 16.4 0.0 23.0 0.0 Z M 22.9 0.0 " fill="none" stroke="#FEFFFF" stroke-width="5.00" transform="matrix(1.00, 0.00, 0.00, -1.00, 7.1, 67.3)"></path></g></svg>