<?xml version="1.0" encoding="UTF-8"?><svg xmlns="http://www.w3.org/2000/svg" xmlns:xlink="http://www.w3.org/1999/xlink" clip-rule="evenodd" stroke-miterlimit="4.00" viewBox="0 0 1032 769"><desc>SVG generated by Keynote</desc><defs></defs><g transform="matrix(1.00, 0.00, -0.00, -1.00, 0.0, 769.0)"><g><clipPath id="clip-81"><path d="M 1.0 768.0 L 1031.0 768.0 L 1031.0 0.0 L 1.0 0.0 Z M 0.5 768.0 "></path></clipPath><g clip-path="url(#clip-81)"><g><clipPath id="clip-82"><path d="M 0.5 0.0 L 1031.5 0.0 L 1031.5 768.0 L 0.5 768.0 Z M 0.5 0.0 "></path></clipPath><g clip-path="url(#clip-82)"><image xlink:href="../../10A637F6-BCFF-4D4E-896C-0EF6C95330CC/assets/59AC51AAB050735CE71D8EB16CB050A5.jpeg" width="1358.00" height="767.00" transform="matrix(1.00, 0.00, -0.00, -1.00, -177.0, 768.0)"></image></g></g></g></g><g><clipPath id="clip-83"><path d="M 589.0 371.0 L 606.0 371.0 L 606.0 355.0 L 589.0 355.0 Z M 589.0 370.5 "></path></clipPath><g clip-path="url(#clip-83)"><g><clipPath id="clip-84"><path d="M 589.0 355.3 L 606.0 355.3 L 606.0 370.5 L 589.0 370.5 Z M 589.0 355.3 "></path></clipPath><g clip-path="url(#clip-84)"><path d="M 605.8 373.5 C 606.1 372.5 606.0 371.3 605.9 370.2 C 605.2 370.2 604.6 370.2 604.0 370.3 C 601.4 370.7 598.4 370.4 596.0 371.5 C 597.3 370.9 598.1 369.8 599.1 368.9 C 597.1 368.7 594.1 369.9 592.0 371.3 C 591.0 372.5 590.1 373.2 591.0 374.7 C 592.0 374.0 593.3 373.7 594.3 373.0 C 594.2 373.7 593.8 374.4 593.4 374.9 C 595.4 373.8 598.0 373.6 600.1 373.2 C 602.1 372.9 603.9 373.4 605.8 373.5 " fill="#5C2E1C"></path><path d="M 592.0 371.3 C 594.1 369.9 597.1 368.7 599.1 368.9 C 598.1 369.8 597.3 370.9 596.0 371.5 C 598.4 370.4 601.4 370.7 604.0 370.3 C 604.0 370.3 604.1 370.2 604.1 370.2 C 604.2 367.9 603.8 365.3 603.1 362.8 C 603.0 362.6 602.9 362.3 602.8 362.0 C 603.0 362.2 603.1 362.5 603.3 362.8 C 603.8 362.7 604.3 362.7 604.6 363.3 C 604.8 363.8 604.6 364.4 604.1 364.5 C 604.3 365.0 604.5 365.4 604.6 365.8 C 605.5 365.5 605.5 364.2 605.4 363.4 C 605.2 361.8 604.1 361.5 602.7 361.5 C 601.6 358.8 600.2 356.4 598.5 355.5 C 598.0 355.2 597.5 355.0 596.9 355.0 C 596.5 355.0 596.0 355.1 595.6 355.3 C 595.4 355.4 595.2 355.5 595.0 355.7 C 595.7 355.3 596.6 355.6 597.4 355.9 C 598.9 356.6 599.5 357.6 600.3 359.1 C 601.5 361.2 602.2 363.3 602.4 365.7 C 602.5 366.3 602.8 368.2 602.5 368.7 C 602.3 368.9 600.2 369.4 599.8 369.8 C 600.1 369.1 600.7 368.4 600.9 367.7 C 599.1 367.7 596.7 367.9 595.2 368.6 C 593.9 369.1 592.3 369.6 591.1 370.4 C 591.1 370.9 591.1 371.4 591.2 371.9 L 591.2 371.9 C 591.4 371.7 591.7 371.5 592.0 371.3 " fill="#F8A877"></path><path d="M 604.1 364.5 C 603.9 363.9 603.6 363.4 603.3 362.8 C 603.2 362.8 603.1 362.8 603.1 362.8 C 603.8 365.3 604.2 367.9 604.1 370.2 C 604.1 370.2 604.0 370.3 604.0 370.3 C 604.6 370.2 605.2 370.2 605.9 370.2 C 605.7 369.2 605.4 368.2 605.1 367.3 L 605.1 367.2 C 605.0 366.8 604.8 366.3 604.6 365.8 C 604.5 365.4 604.3 365.0 604.1 364.5 " fill="#2E0A00"></path><path d="M 604.1 364.5 C 604.6 364.4 604.8 363.8 604.6 363.3 C 604.3 362.7 603.8 362.7 603.3 362.8 C 603.6 363.4 603.9 363.9 604.1 364.5 " fill="#BB7950"></path><path d="M 603.1 376.9 C 604.7 376.1 605.5 374.9 605.8 373.5 C 603.9 373.4 602.1 372.9 600.1 373.2 C 598.0 373.6 595.4 373.8 593.4 374.9 C 593.8 374.4 594.2 373.7 594.3 373.0 C 593.3 373.7 592.0 374.0 591.0 374.7 C 591.0 374.9 591.1 375.0 591.3 375.2 C 591.8 375.9 592.5 376.5 593.1 377.1 C 593.2 377.1 593.2 377.1 593.2 377.1 C 596.5 378.2 600.2 378.5 603.1 376.9 " fill="#4E220B"></path><path d="M 603.1 362.8 C 603.1 362.8 603.2 362.8 603.3 362.8 C 603.1 362.5 603.0 362.2 602.8 362.0 C 602.9 362.3 603.0 362.6 603.1 362.8 " fill="#4E220B"></path><path d="M 602.5 368.7 C 602.8 368.2 602.5 366.3 602.4 365.7 C 602.2 363.3 601.5 361.2 600.3 359.1 C 599.5 357.6 598.9 356.6 597.4 355.9 C 596.6 355.6 595.7 355.3 595.0 355.7 C 594.5 356.0 594.0 356.5 593.5 357.2 C 592.7 358.5 592.1 360.0 591.7 361.6 C 591.7 361.6 591.7 361.6 591.7 361.7 C 591.0 364.4 591.0 367.5 591.1 370.4 C 592.3 369.6 593.9 369.1 595.2 368.6 C 596.7 367.9 599.1 367.7 600.9 367.7 C 600.7 368.4 600.1 369.1 599.8 369.8 C 600.2 369.4 602.3 368.9 602.5 368.7 " fill="#FFC99F"></path><path d="M 590.8 363.0 C 590.5 363.6 590.3 364.3 590.2 364.9 C 590.0 365.5 589.9 366.1 589.9 366.6 C 589.9 367.0 589.9 367.4 589.9 367.8 C 589.3 370.1 589.2 373.0 589.4 373.7 C 590.2 376.1 591.0 376.5 593.1 377.1 C 592.5 376.5 591.8 375.9 591.3 375.2 C 591.1 375.0 591.0 374.9 591.0 374.7 C 590.1 373.2 591.0 372.5 592.0 371.3 C 591.7 371.5 591.4 371.7 591.2 371.9 L 591.2 371.9 C 591.1 371.4 591.1 370.9 591.1 370.4 C 591.0 367.5 591.0 364.4 591.7 361.6 L 591.7 361.6 C 591.3 362.0 591.1 362.5 590.8 363.0 " fill="#2E0A00"></path><path d="M 591.7 361.7 C 588.7 361.6 588.4 364.8 589.8 366.6 L 589.9 366.6 C 590.0 366.1 590.0 365.5 590.2 364.9 C 589.9 364.7 589.7 364.4 589.7 364.0 C 589.8 363.3 590.3 363.1 590.8 363.0 C 591.1 362.5 591.3 362.0 591.7 361.7 " fill="#F8A877"></path><path d="M 590.2 364.9 C 590.3 364.3 590.5 363.6 590.8 363.0 C 590.3 363.1 589.8 363.4 589.7 364.0 C 589.7 364.4 589.9 364.7 590.2 364.9 " fill="#BB7950"></path><path d="M 591.5 373.3 C 592.5 371.6 594.8 370.0 596.8 370.3 C 596.9 370.3 596.9 370.5 596.8 370.6 C 596.0 371.0 595.0 371.2 594.1 371.6 C 593.1 372.1 592.4 372.7 591.5 373.4 C 591.5 373.4 591.4 373.4 591.5 373.3 " fill="#704737"></path><path d="M 594.9 373.5 C 597.3 370.9 601.3 371.1 604.5 371.6 C 604.6 371.6 604.6 371.8 604.5 371.8 C 601.3 372.3 597.6 371.1 594.9 373.5 C 594.9 373.5 594.9 373.5 594.9 373.5 " fill="#704737"></path><path d="M 599.0 373.1 C 599.7 372.9 600.6 372.8 601.3 373.0 C 601.4 373.0 601.4 373.1 601.3 373.1 C 600.6 373.2 599.8 373.2 599.0 373.1 C 599.0 373.1 599.0 373.1 599.0 373.1 " fill="#704737"></path><path d="M 590.7 374.9 C 589.4 374.2 589.8 371.6 590.4 370.6 C 590.4 370.5 590.5 370.5 590.5 370.6 C 590.4 371.2 590.2 371.8 590.2 372.5 C 590.0 373.4 590.3 374.1 590.7 374.9 C 590.7 374.9 590.7 374.9 590.7 374.9 " fill="#562916"></path><path d="M 604.9 369.9 C 604.6 368.9 604.0 367.5 604.3 366.5 C 604.3 366.4 604.4 366.4 604.5 366.4 C 604.9 367.4 604.8 368.8 605.0 369.9 C 605.0 370.0 604.9 370.0 604.9 369.9 " fill="#562916"></path><path d="M 593.7 376.0 C 596.3 375.2 599.7 374.1 602.3 375.3 C 602.5 375.4 602.4 375.6 602.3 375.6 C 600.8 375.5 599.4 375.2 598.0 375.3 C 596.5 375.4 595.1 375.8 593.7 376.0 C 593.7 376.0 593.7 376.0 593.7 376.0 " fill="#5C2F1D"></path><path d="M 597.0 376.3 C 597.4 376.1 597.8 376.2 598.2 376.2 C 598.7 376.3 599.2 376.4 599.6 376.5 C 599.7 376.6 599.7 376.7 599.6 376.7 C 599.2 376.8 598.8 376.6 598.4 376.6 C 597.9 376.5 597.5 376.5 597.0 376.4 C 597.0 376.4 597.0 376.3 597.0 376.3 " fill="#5C2F1D"></path><path d="M 596.5 365.8 C 596.5 364.7 596.2 363.5 595.2 363.1 C 595.1 363.0 595.1 363.0 595.1 362.9 C 595.1 361.9 596.0 361.1 596.9 361.0 C 596.9 361.0 596.9 361.0 596.9 361.1 C 596.4 361.4 596.0 361.7 595.7 362.1 C 595.2 362.7 595.7 362.9 596.0 363.4 C 596.5 364.0 596.7 364.9 596.6 365.8 C 596.6 365.8 596.5 365.8 596.5 365.8 " fill="#CF8557"></path><path d="M 601.1 366.4 C 600.8 366.7 600.5 367.0 600.1 367.3 C 599.8 367.5 599.5 367.6 599.3 367.8 C 599.1 368.0 599.0 368.2 598.8 368.3 C 598.7 368.4 598.6 368.3 598.6 368.2 C 598.5 367.7 599.0 367.4 599.3 367.1 C 599.9 366.8 600.6 366.7 601.1 366.3 C 601.1 366.3 601.1 366.3 601.1 366.4 " fill="#2E0A00"></path><path d="M 592.5 366.6 C 592.7 366.7 592.9 366.8 593.1 366.9 C 593.4 367.1 593.8 367.1 594.1 367.3 C 594.6 367.6 595.0 368.1 594.9 368.8 C 594.9 368.9 594.9 368.9 594.9 368.8 C 594.5 368.3 594.0 368.0 593.6 367.5 C 593.2 367.2 592.7 367.0 592.5 366.6 C 592.5 366.6 592.5 366.6 592.5 366.6 " fill="#2E0A00"></path><path d="M 598.7 362.3 C 599.2 362.0 599.8 362.2 600.3 362.2 C 601.1 362.3 601.1 363.5 600.3 363.5 C 599.7 363.5 599.0 363.4 598.6 363.0 C 598.4 362.8 598.4 362.4 598.7 362.3 " fill="#FDAA8B"></path><path d="M 594.4 363.1 C 594.4 363.7 593.9 363.9 593.6 364.1 C 592.7 364.7 592.0 363.2 592.8 362.8 C 593.3 362.6 594.4 362.2 594.4 363.1 " fill="#FDAA8B"></path><path d="M 595.5 365.4 C 595.2 365.5 593.7 365.7 593.1 365.2 C 592.7 364.9 594.0 366.1 594.4 366.1 C 594.8 366.1 596.0 365.2 595.5 365.4 " fill="#314751"></path><path d="M 598.4 365.4 C 598.7 365.5 600.2 365.6 600.7 365.1 C 601.1 364.7 599.9 366.0 599.5 366.0 C 599.1 366.0 597.9 365.3 598.4 365.4 " fill="#314751"></path><path d="M 594.9 359.1 C 595.0 359.0 595.2 359.0 595.2 358.9 C 595.5 358.8 595.7 358.8 596.0 358.8 C 596.0 358.8 596.0 358.8 596.0 358.8 C 595.8 358.9 595.6 358.9 595.4 359.0 C 595.3 359.0 595.2 359.1 595.1 359.2 C 595.0 359.2 595.0 359.3 595.0 359.3 C 595.0 359.6 595.0 359.8 595.0 360.0 C 594.9 360.1 594.8 360.2 594.7 360.4 C 594.5 359.7 594.7 359.0 595.1 358.4 L 595.1 358.4 C 595.0 358.6 595.0 358.8 594.9 359.1 " fill="#4D2902"></path><path d="M 597.6 359.9 C 597.7 359.8 597.7 359.6 597.7 359.5 C 597.6 359.4 597.5 359.3 597.4 359.2 C 597.0 359.0 596.7 358.9 596.3 358.8 C 596.3 358.8 596.3 358.8 596.3 358.8 C 596.7 358.9 597.3 358.9 597.7 359.2 C 597.7 359.0 597.7 358.8 597.7 358.7 C 598.0 359.2 598.2 359.9 598.4 360.5 C 598.2 360.2 597.9 360.0 597.6 359.9 " fill="#4D2902"></path><path d="M 596.3 358.8 C 596.3 358.8 596.3 358.8 596.3 358.8 C 596.7 358.9 597.0 359.0 597.4 359.2 C 597.5 359.3 597.6 359.4 597.7 359.5 C 597.7 359.6 597.6 359.8 597.6 359.9 C 596.8 359.4 595.7 359.5 595.0 360.0 C 595.0 359.8 595.0 359.6 595.0 359.3 C 595.0 359.3 595.0 359.2 595.1 359.2 C 595.2 359.1 595.3 359.0 595.4 359.0 C 595.6 358.9 595.8 358.9 596.0 358.8 C 596.0 358.8 596.0 358.8 596.0 358.8 C 595.7 358.8 595.5 358.8 595.2 358.9 C 595.2 359.0 595.0 359.0 594.9 359.1 C 595.0 358.8 595.0 358.6 595.1 358.4 L 595.1 358.4 C 595.4 357.9 595.8 357.5 596.2 357.6 C 596.8 357.6 597.3 358.1 597.7 358.7 C 597.7 358.8 597.7 359.0 597.7 359.2 C 597.3 358.9 596.7 358.9 596.3 358.8 " fill="#FFFFFF"></path></g></g></g></g></g></svg>