<?xml version="1.0" encoding="UTF-8"?><svg xmlns="http://www.w3.org/2000/svg" xmlns:xlink="http://www.w3.org/1999/xlink" clip-rule="evenodd" stroke-miterlimit="4.00" viewBox="0 0 437 250"><desc>SVG generated by Keynote</desc><defs></defs><g transform="matrix(1.00, 0.00, -0.00, -1.00, 0.0, 250.0)"><image xlink:href="6DCBCBC319D464C56284356F231F0375.png" width="434.00" height="244.00" transform="matrix(1.00, 0.00, -0.00, -1.00, 1.4, 244.8)" opacity="0.50"></image><path d="M 79.4 243.8 L 357.3 243.8 C 378.8 243.8 389.7 243.8 401.3 240.1 C 414.0 235.5 424.0 225.5 428.7 212.8 C 432.3 201.2 432.3 190.2 432.3 168.4 L 432.3 81.2 C 432.3 59.7 432.3 48.7 428.7 37.1 C 424.0 24.4 414.0 14.4 401.3 9.8 C 389.7 6.1 378.8 6.1 356.9 6.1 L 79.4 6.1 C 57.9 6.1 47.0 6.1 35.4 9.8 C 22.7 14.4 12.7 24.4 8.0 37.1 C 4.4 48.7 4.4 59.7 4.4 81.5 L 4.4 168.7 C 4.4 190.2 4.4 201.2 8.0 212.8 C 12.7 225.5 22.7 235.5 35.4 240.1 C 47.0 243.8 57.9 243.8 79.8 243.8 Z M 79.4 243.8 " fill="#000000"></path></g></svg>