<?xml version="1.0" encoding="UTF-8"?><svg xmlns="http://www.w3.org/2000/svg" xmlns:xlink="http://www.w3.org/1999/xlink" clip-rule="evenodd" stroke-miterlimit="4.00" viewBox="0 0 67 23"><desc>SVG generated by Keynote</desc><defs></defs><g transform="matrix(1.00, 0.00, -0.00, -1.00, 0.0, 23.0)"><text xml:space="preserve" font-family="Avenir-Book" font-size="16.0" fill="#FEFFFF" transform="matrix(1.00, 0.00, -0.00, -1.00, 1.1, 7.0)">B</text><text xml:space="preserve" font-family="Avenir-Book" font-size="16.0" fill="#FEFFFF" transform="matrix(1.00, 0.00, -0.00, -1.00, 11.2, 7.0)">u</text><text xml:space="preserve" font-family="Avenir-Book" font-size="16.0" fill="#FEFFFF" transform="matrix(1.00, 0.00, -0.00, -1.00, 20.1, 7.0)">l</text><text xml:space="preserve" font-family="Avenir-Book" font-size="16.0" fill="#FEFFFF" transform="matrix(1.00, 0.00, -0.00, -1.00, 23.9, 7.0)">l</text><text xml:space="preserve" font-family="Avenir-Book" font-size="16.0" fill="#FEFFFF" transform="matrix(1.00, 0.00, -0.00, -1.00, 27.8, 7.0)"> </text><text xml:space="preserve" font-family="Avenir-Book" font-size="16.0" fill="#FEFFFF" transform="matrix(1.00, 0.00, -0.00, -1.00, 32.2, 7.0)">R</text><text xml:space="preserve" font-family="Avenir-Book" font-size="16.0" fill="#FEFFFF" transform="matrix(1.00, 0.00, -0.00, -1.00, 41.7, 7.0)">a</text><text xml:space="preserve" font-family="Avenir-Book" font-size="16.0" fill="#FEFFFF" transform="matrix(1.00, 0.00, -0.00, -1.00, 50.0, 7.0)">c</text><text xml:space="preserve" font-family="Avenir-Book" font-size="16.0" fill="#FEFFFF" transform="matrix(1.00, 0.00, -0.00, -1.00, 57.7, 7.0)">e</text><g><clipPath id="clip-98"><path d="M -0.0 4.1 L 66.5 4.1 L 66.5 6.9 L -0.0 6.9 Z M -0.0 4.1 "></path></clipPath><g clip-path="url(#clip-98)"><path d="M 268.1 168.7 L 333.6 168.7 " fill="none" stroke="#FEFFFF" stroke-width="0.80" stroke-miterlimit="0.00" transform="matrix(1.00, 0.00, 0.00, -1.00, -267.1, 174.3)"></path></g></g></g></svg>