<?xml version="1.0" encoding="UTF-8"?><svg xmlns="http://www.w3.org/2000/svg" xmlns:xlink="http://www.w3.org/1999/xlink" clip-rule="evenodd" stroke-miterlimit="4.00" viewBox="0 0 2800 1059"><desc>SVG generated by Keynote</desc><defs></defs><g transform="matrix(1.00, 0.00, -0.00, -1.00, 0.0, 1059.0)"><path d="M 0.0 0.0 L 2800.0 0.0 L 2800.0 1059.0 L 0.0 1059.0 Z M 0.0 0.0 " fill="#000000"></path><g><clipPath id="clip-27"><path d="M 1998.1 1059.0 L 2802.3 1059.0 L 2802.3 0.0 L 1998.1 0.0 Z M 1998.1 1059.0 "></path></clipPath><g clip-path="url(#clip-27)"><image xlink:href="../../9408A9C4-D635-4DCF-AA84-A4CF6D5A0E75/assets/8669AAA156F33E0A19E91B6E3C9197C3.jpeg" width="1152.00" height="768.00" transform="matrix(2.67, 0.00, -0.00, -2.67, 1998.1, 1059.0)"></image></g></g><image xlink:href="FE884253654E438F52C466CD948F34E3.jpeg" width="1366.00" height="723.00" transform="matrix(1.46, 0.00, -0.00, -1.46, -1.0, 1059.0)"></image><text xml:space="preserve" font-family="AvenirNext-DemiBold" font-weight="bold" font-size="47.0" fill="#FEFFFF" transform="matrix(1.00, 0.00, -0.00, -1.00, 2099.0, 804.0)">T</text><text xml:space="preserve" font-family="AvenirNext-DemiBold" font-weight="bold" font-size="47.0" fill="#FEFFFF" transform="matrix(1.00, 0.00, -0.00, -1.00, 2124.8, 804.0)">h</text><text xml:space="preserve" font-family="AvenirNext-DemiBold" font-weight="bold" font-size="47.0" fill="#FEFFFF" transform="matrix(1.00, 0.00, -0.00, -1.00, 2152.3, 804.0)">e</text><text xml:space="preserve" font-family="AvenirNext-DemiBold" font-weight="bold" font-size="47.0" fill="#FEFFFF" transform="matrix(1.00, 0.00, -0.00, -1.00, 2179.3, 804.0)"> </text><text xml:space="preserve" font-family="AvenirNext-DemiBold" font-weight="bold" font-size="47.0" fill="#FEFFFF" transform="matrix(1.00, 0.00, -0.00, -1.00, 2190.5, 804.0)">W</text><text xml:space="preserve" font-family="AvenirNext-DemiBold" font-weight="bold" font-size="47.0" fill="#FEFFFF" transform="matrix(1.00, 0.00, -0.00, -1.00, 2236.0, 804.0)">e</text><text xml:space="preserve" font-family="AvenirNext-DemiBold" font-weight="bold" font-size="47.0" fill="#FEFFFF" transform="matrix(1.00, 0.00, -0.00, -1.00, 2262.9, 804.0)">l</text><text xml:space="preserve" font-family="AvenirNext-DemiBold" font-weight="bold" font-size="47.0" fill="#FEFFFF" transform="matrix(1.00, 0.00, -0.00, -1.00, 2275.5, 804.0)">c</text><text xml:space="preserve" font-family="AvenirNext-DemiBold" font-weight="bold" font-size="47.0" fill="#FEFFFF" transform="matrix(1.00, 0.00, -0.00, -1.00, 2298.5, 804.0)">o</text><text xml:space="preserve" font-family="AvenirNext-DemiBold" font-weight="bold" font-size="47.0" fill="#FEFFFF" transform="matrix(1.00, 0.00, -0.00, -1.00, 2327.1, 804.0)">m</text><text xml:space="preserve" font-family="AvenirNext-DemiBold" font-weight="bold" font-size="47.0" fill="#FEFFFF" transform="matrix(1.00, 0.00, -0.00, -1.00, 2369.0, 804.0)">i</text><text xml:space="preserve" font-family="AvenirNext-DemiBold" font-weight="bold" font-size="47.0" fill="#FEFFFF" transform="matrix(1.00, 0.00, -0.00, -1.00, 2381.6, 804.0)">n</text><text xml:space="preserve" font-family="AvenirNext-DemiBold" font-weight="bold" font-size="47.0" fill="#FEFFFF" transform="matrix(1.00, 0.00, -0.00, -1.00, 2408.9, 804.0)">g</text><image xlink:href="../../B4563787-ED84-46F9-B770-A399F844E641/assets/D058B9E41F29B130F2FF16A8AAFCC1EF.png" width="960.00" height="507.00" transform="matrix(2.08, 0.00, -0.00, -2.09, -335.0, 946.0)"></image><text xml:space="preserve" font-family="AvenirNext-Medium" font-size="31.0" fill="#FEFFFF" transform="matrix(1.00, 0.00, -0.00, -1.00, 2096.0, 709.0)">A</text><text xml:space="preserve" font-family="AvenirNext-Medium" font-size="31.0" fill="#FEFFFF" transform="matrix(1.00, 0.00, -0.00, -1.00, 2118.0, 709.0)">s</text><text xml:space="preserve" font-family="AvenirNext-Medium" font-size="31.0" fill="#FEFFFF" transform="matrix(1.00, 0.00, -0.00, -1.00, 2131.8, 709.0)"> </text><text xml:space="preserve" font-family="AvenirNext-Medium" font-size="31.0" fill="#FEFFFF" transform="matrix(1.00, 0.00, -0.00, -1.00, 2139.6, 709.0)">I</text><text xml:space="preserve" font-family="AvenirNext-Medium" font-size="31.0" fill="#FEFFFF" transform="matrix(1.00, 0.00, -0.00, -1.00, 2148.0, 709.0)"> </text><text xml:space="preserve" font-family="AvenirNext-Medium" font-size="31.0" fill="#FEFFFF" transform="matrix(1.00, 0.00, -0.00, -1.00, 2155.7, 709.0)">e</text><text xml:space="preserve" font-family="AvenirNext-Medium" font-size="31.0" fill="#FEFFFF" transform="matrix(1.00, 0.00, -0.00, -1.00, 2173.5, 709.0)">n</text><text xml:space="preserve" font-family="AvenirNext-Medium" font-size="31.0" fill="#FEFFFF" transform="matrix(1.00, 0.00, -0.00, -1.00, 2191.5, 709.0)">t</text><text xml:space="preserve" font-family="AvenirNext-Medium" font-size="31.0" fill="#FEFFFF" transform="matrix(1.00, 0.00, -0.00, -1.00, 2201.7, 709.0)">e</text><text xml:space="preserve" font-family="AvenirNext-Medium" font-size="31.0" fill="#FEFFFF" transform="matrix(1.00, 0.00, -0.00, -1.00, 2219.5, 709.0)">r</text><text xml:space="preserve" font-family="AvenirNext-Medium" font-size="31.0" fill="#FEFFFF" transform="matrix(1.00, 0.00, -0.00, -1.00, 2230.1, 709.0)">e</text><text xml:space="preserve" font-family="AvenirNext-Medium" font-size="31.0" fill="#FEFFFF" transform="matrix(1.00, 0.00, -0.00, -1.00, 2247.9, 709.0)">d</text><text xml:space="preserve" font-family="AvenirNext-Medium" font-size="31.0" fill="#FEFFFF" transform="matrix(1.00, 0.00, -0.00, -1.00, 2267.6, 709.0)"> </text><text xml:space="preserve" font-family="AvenirNext-Medium" font-size="31.0" fill="#FEFFFF" transform="matrix(1.00, 0.00, -0.00, -1.00, 2275.3, 709.0)">t</text><text xml:space="preserve" font-family="AvenirNext-Medium" font-size="31.0" fill="#FEFFFF" transform="matrix(1.00, 0.00, -0.00, -1.00, 2285.5, 709.0)">h</text><text xml:space="preserve" font-family="AvenirNext-Medium" font-size="31.0" fill="#FEFFFF" transform="matrix(1.00, 0.00, -0.00, -1.00, 2303.6, 709.0)">e</text><text xml:space="preserve" font-family="AvenirNext-Medium" font-size="31.0" fill="#FEFFFF" transform="matrix(1.00, 0.00, -0.00, -1.00, 2321.4, 709.0)"> </text><text xml:space="preserve" font-family="AvenirNext-Medium" font-size="31.0" fill="#FEFFFF" transform="matrix(1.00, 0.00, -0.00, -1.00, 2329.2, 709.0)">g</text><text xml:space="preserve" font-family="AvenirNext-Medium" font-size="31.0" fill="#FEFFFF" transform="matrix(1.00, 0.00, -0.00, -1.00, 2348.7, 709.0)">r</text><text xml:space="preserve" font-family="AvenirNext-Medium" font-size="31.0" fill="#FEFFFF" transform="matrix(1.00, 0.00, -0.00, -1.00, 2359.6, 709.0)">a</text><text xml:space="preserve" font-family="AvenirNext-Medium" font-size="31.0" fill="#FEFFFF" transform="matrix(1.00, 0.00, -0.00, -1.00, 2376.4, 709.0)">n</text><text xml:space="preserve" font-family="AvenirNext-Medium" font-size="31.0" fill="#FEFFFF" transform="matrix(1.00, 0.00, -0.00, -1.00, 2394.4, 709.0)">d</text><text xml:space="preserve" font-family="AvenirNext-Medium" font-size="31.0" fill="#FEFFFF" transform="matrix(1.00, 0.00, -0.00, -1.00, 2414.1, 709.0)"> </text><text xml:space="preserve" font-family="AvenirNext-Medium" font-size="31.0" fill="#FEFFFF" transform="matrix(1.00, 0.00, -0.00, -1.00, 2421.8, 709.0)">h</text><text xml:space="preserve" font-family="AvenirNext-Medium" font-size="31.0" fill="#FEFFFF" transform="matrix(1.00, 0.00, -0.00, -1.00, 2439.9, 709.0)">a</text><text xml:space="preserve" font-family="AvenirNext-Medium" font-size="31.0" fill="#FEFFFF" transform="matrix(1.00, 0.00, -0.00, -1.00, 2456.7, 709.0)">l</text><text xml:space="preserve" font-family="AvenirNext-Medium" font-size="31.0" fill="#FEFFFF" transform="matrix(1.00, 0.00, -0.00, -1.00, 2464.8, 709.0)">l</text><text xml:space="preserve" font-family="AvenirNext-Medium" font-size="31.0" fill="#FEFFFF" transform="matrix(1.00, 0.00, -0.00, -1.00, 2472.9, 709.0)"> </text><text xml:space="preserve" font-family="AvenirNext-Medium" font-size="31.0" fill="#FEFFFF" transform="matrix(1.00, 0.00, -0.00, -1.00, 2480.6, 709.0)">I</text><text xml:space="preserve" font-family="AvenirNext-Medium" font-size="31.0" fill="#FEFFFF" transform="matrix(1.00, 0.00, -0.00, -1.00, 2489.0, 709.0)"> </text><text xml:space="preserve" font-family="AvenirNext-Medium" font-size="31.0" fill="#FEFFFF" transform="matrix(1.00, 0.00, -0.00, -1.00, 2496.8, 709.0)">h</text><text xml:space="preserve" font-family="AvenirNext-Medium" font-size="31.0" fill="#FEFFFF" transform="matrix(1.00, 0.00, -0.00, -1.00, 2514.9, 709.0)">e</text><text xml:space="preserve" font-family="AvenirNext-Medium" font-size="31.0" fill="#FEFFFF" transform="matrix(1.00, 0.00, -0.00, -1.00, 2532.4, 709.0)">a</text><text xml:space="preserve" font-family="AvenirNext-Medium" font-size="31.0" fill="#FEFFFF" transform="matrix(1.00, 0.00, -0.00, -1.00, 2549.3, 709.0)">r</text><text xml:space="preserve" font-family="AvenirNext-Medium" font-size="31.0" fill="#FEFFFF" transform="matrix(1.00, 0.00, -0.00, -1.00, 2559.9, 709.0)">d</text><text xml:space="preserve" font-family="AvenirNext-Medium" font-size="31.0" fill="#FEFFFF" transform="matrix(1.00, 0.00, -0.00, -1.00, 2579.6, 709.0)"> </text><text xml:space="preserve" font-family="AvenirNext-Medium" font-size="31.0" fill="#FEFFFF" transform="matrix(1.00, 0.00, -0.00, -1.00, 2587.3, 709.0)">a</text><text xml:space="preserve" font-family="AvenirNext-Medium" font-size="31.0" fill="#FEFFFF" transform="matrix(1.00, 0.00, -0.00, -1.00, 2604.2, 709.0)"> </text><text xml:space="preserve" font-family="AvenirNext-Medium" font-size="31.0" fill="#FEFFFF" transform="matrix(1.00, 0.00, -0.00, -1.00, 2611.9, 709.0)">s</text><text xml:space="preserve" font-family="AvenirNext-Medium" font-size="31.0" fill="#FEFFFF" transform="matrix(1.00, 0.00, -0.00, -1.00, 2625.7, 709.0)">h</text><text xml:space="preserve" font-family="AvenirNext-Medium" font-size="31.0" fill="#FEFFFF" transform="matrix(1.00, 0.00, -0.00, -1.00, 2643.8, 709.0)">a</text><text xml:space="preserve" font-family="AvenirNext-Medium" font-size="31.0" fill="#FEFFFF" transform="matrix(1.00, 0.00, -0.00, -1.00, 2660.6, 709.0)">r</text><text xml:space="preserve" font-family="AvenirNext-Medium" font-size="31.0" fill="#FEFFFF" transform="matrix(1.00, 0.00, -0.00, -1.00, 2671.8, 709.0)">p</text><text xml:space="preserve" font-family="AvenirNext-Medium" font-size="31.0" fill="#FEFFFF" transform="matrix(1.00, 0.00, -0.00, -1.00, 2691.4, 709.0)"> </text><text xml:space="preserve" font-family="AvenirNext-Medium" font-size="31.0" fill="#FEFFFF" transform="matrix(1.00, 0.00, -0.00, -1.00, 2096.0, 667.0)">‘</text><text xml:space="preserve" font-family="AvenirNext-Medium" font-size="31.0" fill="#FEFFFF" transform="matrix(1.00, 0.00, -0.00, -1.00, 2102.3, 667.0)">c</text><text xml:space="preserve" font-family="AvenirNext-Medium" font-size="31.0" fill="#FEFFFF" transform="matrix(1.00, 0.00, -0.00, -1.00, 2117.6, 667.0)">l</text><text xml:space="preserve" font-family="AvenirNext-Medium" font-size="31.0" fill="#FEFFFF" transform="matrix(1.00, 0.00, -0.00, -1.00, 2125.7, 667.0)">i</text><text xml:space="preserve" font-family="AvenirNext-Medium" font-size="31.0" fill="#FEFFFF" transform="matrix(1.00, 0.00, -0.00, -1.00, 2133.7, 667.0)">c</text><text xml:space="preserve" font-family="AvenirNext-Medium" font-size="31.0" fill="#FEFFFF" transform="matrix(1.00, 0.00, -0.00, -1.00, 2149.0, 667.0)">k</text><text xml:space="preserve" font-family="AvenirNext-Medium" font-size="31.0" fill="#FEFFFF" transform="matrix(1.00, 0.00, -0.00, -1.00, 2165.4, 667.0)">’</text><text xml:space="preserve" font-family="AvenirNext-Medium" font-size="31.0" fill="#FEFFFF" transform="matrix(1.00, 0.00, -0.00, -1.00, 2173.0, 667.0)"> </text><text xml:space="preserve" font-family="AvenirNext-Medium" font-size="31.0" fill="#FEFFFF" transform="matrix(1.00, 0.00, -0.00, -1.00, 2180.8, 667.0)">a</text><text xml:space="preserve" font-family="AvenirNext-Medium" font-size="31.0" fill="#FEFFFF" transform="matrix(1.00, 0.00, -0.00, -1.00, 2197.6, 667.0)">n</text><text xml:space="preserve" font-family="AvenirNext-Medium" font-size="31.0" fill="#FEFFFF" transform="matrix(1.00, 0.00, -0.00, -1.00, 2215.6, 667.0)">d</text><text xml:space="preserve" font-family="AvenirNext-Medium" font-size="31.0" fill="#FEFFFF" transform="matrix(1.00, 0.00, -0.00, -1.00, 2235.3, 667.0)"> </text><text xml:space="preserve" font-family="AvenirNext-Medium" font-size="31.0" fill="#FEFFFF" transform="matrix(1.00, 0.00, -0.00, -1.00, 2243.0, 667.0)">t</text><text xml:space="preserve" font-family="AvenirNext-Medium" font-size="31.0" fill="#FEFFFF" transform="matrix(1.00, 0.00, -0.00, -1.00, 2253.2, 667.0)">h</text><text xml:space="preserve" font-family="AvenirNext-Medium" font-size="31.0" fill="#FEFFFF" transform="matrix(1.00, 0.00, -0.00, -1.00, 2271.3, 667.0)">e</text><text xml:space="preserve" font-family="AvenirNext-Medium" font-size="31.0" fill="#FEFFFF" transform="matrix(1.00, 0.00, -0.00, -1.00, 2289.1, 667.0)"> </text><text xml:space="preserve" font-family="AvenirNext-Medium" font-size="31.0" fill="#FEFFFF" transform="matrix(1.00, 0.00, -0.00, -1.00, 2296.8, 667.0)">l</text><text xml:space="preserve" font-family="AvenirNext-Medium" font-size="31.0" fill="#FEFFFF" transform="matrix(1.00, 0.00, -0.00, -1.00, 2304.9, 667.0)">i</text><text xml:space="preserve" font-family="AvenirNext-Medium" font-size="31.0" fill="#FEFFFF" transform="matrix(1.00, 0.00, -0.00, -1.00, 2312.9, 667.0)">g</text><text xml:space="preserve" font-family="AvenirNext-Medium" font-size="31.0" fill="#FEFFFF" transform="matrix(1.00, 0.00, -0.00, -1.00, 2332.5, 667.0)">h</text><text xml:space="preserve" font-family="AvenirNext-Medium" font-size="31.0" fill="#FEFFFF" transform="matrix(1.00, 0.00, -0.00, -1.00, 2350.6, 667.0)">t</text><text xml:space="preserve" font-family="AvenirNext-Medium" font-size="31.0" fill="#FEFFFF" transform="matrix(1.00, 0.00, -0.00, -1.00, 2360.8, 667.0)">s</text><text xml:space="preserve" font-family="AvenirNext-Medium" font-size="31.0" fill="#FEFFFF" transform="matrix(1.00, 0.00, -0.00, -1.00, 2374.6, 667.0)"> </text><text xml:space="preserve" font-family="AvenirNext-Medium" font-size="31.0" fill="#FEFFFF" transform="matrix(1.00, 0.00, -0.00, -1.00, 2382.3, 667.0)">ﬁ</text><text xml:space="preserve" font-family="AvenirNext-Medium" font-size="31.0" fill="#FEFFFF" transform="matrix(1.00, 0.00, -0.00, -1.00, 2400.1, 667.0)">l</text><text xml:space="preserve" font-family="AvenirNext-Medium" font-size="31.0" fill="#FEFFFF" transform="matrix(1.00, 0.00, -0.00, -1.00, 2408.2, 667.0)">l</text><text xml:space="preserve" font-family="AvenirNext-Medium" font-size="31.0" fill="#FEFFFF" transform="matrix(1.00, 0.00, -0.00, -1.00, 2416.3, 667.0)">e</text><text xml:space="preserve" font-family="AvenirNext-Medium" font-size="31.0" fill="#FEFFFF" transform="matrix(1.00, 0.00, -0.00, -1.00, 2434.0, 667.0)">d</text><text xml:space="preserve" font-family="AvenirNext-Medium" font-size="31.0" fill="#FEFFFF" transform="matrix(1.00, 0.00, -0.00, -1.00, 2453.7, 667.0)"> </text><text xml:space="preserve" font-family="AvenirNext-Medium" font-size="31.0" fill="#FEFFFF" transform="matrix(1.00, 0.00, -0.00, -1.00, 2461.5, 667.0)">t</text><text xml:space="preserve" font-family="AvenirNext-Medium" font-size="31.0" fill="#FEFFFF" transform="matrix(1.00, 0.00, -0.00, -1.00, 2471.7, 667.0)">h</text><text xml:space="preserve" font-family="AvenirNext-Medium" font-size="31.0" fill="#FEFFFF" transform="matrix(1.00, 0.00, -0.00, -1.00, 2489.8, 667.0)">e</text><text xml:space="preserve" font-family="AvenirNext-Medium" font-size="31.0" fill="#FEFFFF" transform="matrix(1.00, 0.00, -0.00, -1.00, 2507.5, 667.0)"> </text><text xml:space="preserve" font-family="AvenirNext-Medium" font-size="31.0" fill="#FEFFFF" transform="matrix(1.00, 0.00, -0.00, -1.00, 2515.3, 667.0)">s</text><text xml:space="preserve" font-family="AvenirNext-Medium" font-size="31.0" fill="#FEFFFF" transform="matrix(1.00, 0.00, -0.00, -1.00, 2529.0, 667.0)">t</text><text xml:space="preserve" font-family="AvenirNext-Medium" font-size="31.0" fill="#FEFFFF" transform="matrix(1.00, 0.00, -0.00, -1.00, 2539.2, 667.0)">a</text><text xml:space="preserve" font-family="AvenirNext-Medium" font-size="31.0" fill="#FEFFFF" transform="matrix(1.00, 0.00, -0.00, -1.00, 2556.0, 667.0)">i</text><text xml:space="preserve" font-family="AvenirNext-Medium" font-size="31.0" fill="#FEFFFF" transform="matrix(1.00, 0.00, -0.00, -1.00, 2564.1, 667.0)">r</text><text xml:space="preserve" font-family="AvenirNext-Medium" font-size="31.0" fill="#FEFFFF" transform="matrix(1.00, 0.00, -0.00, -1.00, 2574.7, 667.0)">c</text><text xml:space="preserve" font-family="AvenirNext-Medium" font-size="31.0" fill="#FEFFFF" transform="matrix(1.00, 0.00, -0.00, -1.00, 2590.0, 667.0)">a</text><text xml:space="preserve" font-family="AvenirNext-Medium" font-size="31.0" fill="#FEFFFF" transform="matrix(1.00, 0.00, -0.00, -1.00, 2606.8, 667.0)">s</text><text xml:space="preserve" font-family="AvenirNext-Medium" font-size="31.0" fill="#FEFFFF" transform="matrix(1.00, 0.00, -0.00, -1.00, 2620.6, 667.0)">e</text><text xml:space="preserve" font-family="AvenirNext-Medium" font-size="31.0" fill="#FEFFFF" transform="matrix(1.00, 0.00, -0.00, -1.00, 2638.4, 667.0)"> </text><text xml:space="preserve" font-family="AvenirNext-Medium" font-size="31.0" fill="#FEFFFF" transform="matrix(1.00, 0.00, -0.00, -1.00, 2096.0, 625.0)">w</text><text xml:space="preserve" font-family="AvenirNext-Medium" font-size="31.0" fill="#FEFFFF" transform="matrix(1.00, 0.00, -0.00, -1.00, 2120.0, 625.0)">i</text><text xml:space="preserve" font-family="AvenirNext-Medium" font-size="31.0" fill="#FEFFFF" transform="matrix(1.00, 0.00, -0.00, -1.00, 2128.0, 625.0)">t</text><text xml:space="preserve" font-family="AvenirNext-Medium" font-size="31.0" fill="#FEFFFF" transform="matrix(1.00, 0.00, -0.00, -1.00, 2138.2, 625.0)">h</text><text xml:space="preserve" font-family="AvenirNext-Medium" font-size="31.0" fill="#FEFFFF" transform="matrix(1.00, 0.00, -0.00, -1.00, 2156.3, 625.0)"> </text><text xml:space="preserve" font-family="AvenirNext-Medium" font-size="31.0" fill="#FEFFFF" transform="matrix(1.00, 0.00, -0.00, -1.00, 2164.0, 625.0)">l</text><text xml:space="preserve" font-family="AvenirNext-Medium" font-size="31.0" fill="#FEFFFF" transform="matrix(1.00, 0.00, -0.00, -1.00, 2172.1, 625.0)">i</text><text xml:space="preserve" font-family="AvenirNext-Medium" font-size="31.0" fill="#FEFFFF" transform="matrix(1.00, 0.00, -0.00, -1.00, 2180.1, 625.0)">g</text><text xml:space="preserve" font-family="AvenirNext-Medium" font-size="31.0" fill="#FEFFFF" transform="matrix(1.00, 0.00, -0.00, -1.00, 2199.7, 625.0)">h</text><text xml:space="preserve" font-family="AvenirNext-Medium" font-size="31.0" fill="#FEFFFF" transform="matrix(1.00, 0.00, -0.00, -1.00, 2217.8, 625.0)">t</text><text xml:space="preserve" font-family="AvenirNext-Medium" font-size="31.0" fill="#FEFFFF" transform="matrix(1.00, 0.00, -0.00, -1.00, 2228.0, 625.0)">.</text><text xml:space="preserve" font-family="AvenirNext-Medium" font-size="31.0" fill="#FEFFFF" transform="matrix(1.00, 0.00, -0.00, -1.00, 2235.2, 625.0)"> </text><text xml:space="preserve" font-family="AvenirNext-Medium" font-size="31.0" fill="#FEFFFF" transform="matrix(1.00, 0.00, -0.00, -1.00, 2242.9, 625.0)"> </text><text xml:space="preserve" font-family="AvenirNext-Medium" font-size="31.0" fill="#FEFFFF" transform="matrix(1.00, 0.00, -0.00, -1.00, 2096.0, 541.0)">“</text><text xml:space="preserve" font-family="AvenirNext-Medium" font-size="31.0" fill="#FEFFFF" transform="matrix(1.00, 0.00, -0.00, -1.00, 2109.8, 541.0)">W</text><text xml:space="preserve" font-family="AvenirNext-Medium" font-size="31.0" fill="#FEFFFF" transform="matrix(1.00, 0.00, -0.00, -1.00, 2140.4, 541.0)">h</text><text xml:space="preserve" font-family="AvenirNext-Medium" font-size="31.0" fill="#FEFFFF" transform="matrix(1.00, 0.00, -0.00, -1.00, 2158.5, 541.0)">o</text><text xml:space="preserve" font-family="AvenirNext-Medium" font-size="31.0" fill="#FEFFFF" transform="matrix(1.00, 0.00, -0.00, -1.00, 2177.4, 541.0)">’</text><text xml:space="preserve" font-family="AvenirNext-Medium" font-size="31.0" fill="#FEFFFF" transform="matrix(1.00, 0.00, -0.00, -1.00, 2183.5, 541.0)">s</text><text xml:space="preserve" font-family="AvenirNext-Medium" font-size="31.0" fill="#FEFFFF" transform="matrix(1.00, 0.00, -0.00, -1.00, 2197.3, 541.0)"> </text><text xml:space="preserve" font-family="AvenirNext-Medium" font-size="31.0" fill="#FEFFFF" transform="matrix(1.00, 0.00, -0.00, -1.00, 2205.1, 541.0)">t</text><text xml:space="preserve" font-family="AvenirNext-Medium" font-size="31.0" fill="#FEFFFF" transform="matrix(1.00, 0.00, -0.00, -1.00, 2215.3, 541.0)">h</text><text xml:space="preserve" font-family="AvenirNext-Medium" font-size="31.0" fill="#FEFFFF" transform="matrix(1.00, 0.00, -0.00, -1.00, 2233.4, 541.0)">e</text><text xml:space="preserve" font-family="AvenirNext-Medium" font-size="31.0" fill="#FEFFFF" transform="matrix(1.00, 0.00, -0.00, -1.00, 2251.1, 541.0)">r</text><text xml:space="preserve" font-family="AvenirNext-Medium" font-size="31.0" fill="#FEFFFF" transform="matrix(1.00, 0.00, -0.00, -1.00, 2261.8, 541.0)">e</text><text xml:space="preserve" font-family="AvenirNext-Medium" font-size="31.0" fill="#FEFFFF" transform="matrix(1.00, 0.00, -0.00, -1.00, 2279.6, 541.0)">?</text><text xml:space="preserve" font-family="AvenirNext-Medium" font-size="31.0" fill="#FEFFFF" transform="matrix(1.00, 0.00, -0.00, -1.00, 2295.1, 541.0)">”</text><text xml:space="preserve" font-family="AvenirNext-Medium" font-size="31.0" fill="#FEFFFF" transform="matrix(1.00, 0.00, -0.00, -1.00, 2308.3, 541.0)"> </text><text xml:space="preserve" font-family="AvenirNext-Medium" font-size="31.0" fill="#FEFFFF" transform="matrix(1.00, 0.00, -0.00, -1.00, 2316.0, 541.0)">I</text><text xml:space="preserve" font-family="AvenirNext-Medium" font-size="31.0" fill="#FEFFFF" transform="matrix(1.00, 0.00, -0.00, -1.00, 2324.4, 541.0)"> </text><text xml:space="preserve" font-family="AvenirNext-Medium" font-size="31.0" fill="#FEFFFF" transform="matrix(1.00, 0.00, -0.00, -1.00, 2332.2, 541.0)">v</text><text xml:space="preserve" font-family="AvenirNext-Medium" font-size="31.0" fill="#FEFFFF" transform="matrix(1.00, 0.00, -0.00, -1.00, 2347.8, 541.0)">e</text><text xml:space="preserve" font-family="AvenirNext-Medium" font-size="31.0" fill="#FEFFFF" transform="matrix(1.00, 0.00, -0.00, -1.00, 2365.5, 541.0)">n</text><text xml:space="preserve" font-family="AvenirNext-Medium" font-size="31.0" fill="#FEFFFF" transform="matrix(1.00, 0.00, -0.00, -1.00, 2383.6, 541.0)">t</text><text xml:space="preserve" font-family="AvenirNext-Medium" font-size="31.0" fill="#FEFFFF" transform="matrix(1.00, 0.00, -0.00, -1.00, 2393.8, 541.0)">u</text><text xml:space="preserve" font-family="AvenirNext-Medium" font-size="31.0" fill="#FEFFFF" transform="matrix(1.00, 0.00, -0.00, -1.00, 2411.8, 541.0)">r</text><text xml:space="preserve" font-family="AvenirNext-Medium" font-size="31.0" fill="#FEFFFF" transform="matrix(1.00, 0.00, -0.00, -1.00, 2422.5, 541.0)">e</text><text xml:space="preserve" font-family="AvenirNext-Medium" font-size="31.0" fill="#FEFFFF" transform="matrix(1.00, 0.00, -0.00, -1.00, 2440.3, 541.0)">d</text><text xml:space="preserve" font-family="AvenirNext-Medium" font-size="31.0" fill="#FEFFFF" transform="matrix(1.00, 0.00, -0.00, -1.00, 2459.9, 541.0)">,</text><text xml:space="preserve" font-family="AvenirNext-Medium" font-size="31.0" fill="#FEFFFF" transform="matrix(1.00, 0.00, -0.00, -1.00, 2467.1, 541.0)"> </text><text xml:space="preserve" font-family="AvenirNext-Medium" font-size="31.0" fill="#FEFFFF" transform="matrix(1.00, 0.00, -0.00, -1.00, 2474.8, 541.0)">m</text><text xml:space="preserve" font-family="AvenirNext-Medium" font-size="31.0" fill="#FEFFFF" transform="matrix(1.00, 0.00, -0.00, -1.00, 2502.3, 541.0)">y</text><text xml:space="preserve" font-family="AvenirNext-Medium" font-size="31.0" fill="#FEFFFF" transform="matrix(1.00, 0.00, -0.00, -1.00, 2517.9, 541.0)"> </text><text xml:space="preserve" font-family="AvenirNext-Medium" font-size="31.0" fill="#FEFFFF" transform="matrix(1.00, 0.00, -0.00, -1.00, 2525.7, 541.0)">v</text><text xml:space="preserve" font-family="AvenirNext-Medium" font-size="31.0" fill="#FEFFFF" transform="matrix(1.00, 0.00, -0.00, -1.00, 2541.3, 541.0)">o</text><text xml:space="preserve" font-family="AvenirNext-Medium" font-size="31.0" fill="#FEFFFF" transform="matrix(1.00, 0.00, -0.00, -1.00, 2560.2, 541.0)">i</text><text xml:space="preserve" font-family="AvenirNext-Medium" font-size="31.0" fill="#FEFFFF" transform="matrix(1.00, 0.00, -0.00, -1.00, 2568.3, 541.0)">c</text><text xml:space="preserve" font-family="AvenirNext-Medium" font-size="31.0" fill="#FEFFFF" transform="matrix(1.00, 0.00, -0.00, -1.00, 2583.6, 541.0)">e</text><text xml:space="preserve" font-family="AvenirNext-Medium" font-size="31.0" fill="#FEFFFF" transform="matrix(1.00, 0.00, -0.00, -1.00, 2601.3, 541.0)"> </text><text xml:space="preserve" font-family="AvenirNext-Medium" font-size="31.0" fill="#FEFFFF" transform="matrix(1.00, 0.00, -0.00, -1.00, 2096.0, 499.0)">e</text><text xml:space="preserve" font-family="AvenirNext-Medium" font-size="31.0" fill="#FEFFFF" transform="matrix(1.00, 0.00, -0.00, -1.00, 2113.8, 499.0)">c</text><text xml:space="preserve" font-family="AvenirNext-Medium" font-size="31.0" fill="#FEFFFF" transform="matrix(1.00, 0.00, -0.00, -1.00, 2129.1, 499.0)">h</text><text xml:space="preserve" font-family="AvenirNext-Medium" font-size="31.0" fill="#FEFFFF" transform="matrix(1.00, 0.00, -0.00, -1.00, 2147.2, 499.0)">o</text><text xml:space="preserve" font-family="AvenirNext-Medium" font-size="31.0" fill="#FEFFFF" transform="matrix(1.00, 0.00, -0.00, -1.00, 2166.1, 499.0)">i</text><text xml:space="preserve" font-family="AvenirNext-Medium" font-size="31.0" fill="#FEFFFF" transform="matrix(1.00, 0.00, -0.00, -1.00, 2174.1, 499.0)">n</text><text xml:space="preserve" font-family="AvenirNext-Medium" font-size="31.0" fill="#FEFFFF" transform="matrix(1.00, 0.00, -0.00, -1.00, 2192.2, 499.0)">g</text><text xml:space="preserve" font-family="AvenirNext-Medium" font-size="31.0" fill="#FEFFFF" transform="matrix(1.00, 0.00, -0.00, -1.00, 2211.8, 499.0)"> </text><text xml:space="preserve" font-family="AvenirNext-Medium" font-size="31.0" fill="#FEFFFF" transform="matrix(1.00, 0.00, -0.00, -1.00, 2219.5, 499.0)">d</text><text xml:space="preserve" font-family="AvenirNext-Medium" font-size="31.0" fill="#FEFFFF" transform="matrix(1.00, 0.00, -0.00, -1.00, 2239.2, 499.0)">o</text><text xml:space="preserve" font-family="AvenirNext-Medium" font-size="31.0" fill="#FEFFFF" transform="matrix(1.00, 0.00, -0.00, -1.00, 2258.1, 499.0)">w</text><text xml:space="preserve" font-family="AvenirNext-Medium" font-size="31.0" fill="#FEFFFF" transform="matrix(1.00, 0.00, -0.00, -1.00, 2282.1, 499.0)">n</text><text xml:space="preserve" font-family="AvenirNext-Medium" font-size="31.0" fill="#FEFFFF" transform="matrix(1.00, 0.00, -0.00, -1.00, 2300.1, 499.0)"> </text><text xml:space="preserve" font-family="AvenirNext-Medium" font-size="31.0" fill="#FEFFFF" transform="matrix(1.00, 0.00, -0.00, -1.00, 2307.9, 499.0)">t</text><text xml:space="preserve" font-family="AvenirNext-Medium" font-size="31.0" fill="#FEFFFF" transform="matrix(1.00, 0.00, -0.00, -1.00, 2318.1, 499.0)">h</text><text xml:space="preserve" font-family="AvenirNext-Medium" font-size="31.0" fill="#FEFFFF" transform="matrix(1.00, 0.00, -0.00, -1.00, 2336.2, 499.0)">e</text><text xml:space="preserve" font-family="AvenirNext-Medium" font-size="31.0" fill="#FEFFFF" transform="matrix(1.00, 0.00, -0.00, -1.00, 2353.9, 499.0)"> </text><text xml:space="preserve" font-family="AvenirNext-Medium" font-size="31.0" fill="#FEFFFF" transform="matrix(1.00, 0.00, -0.00, -1.00, 2361.7, 499.0)">h</text><text xml:space="preserve" font-family="AvenirNext-Medium" font-size="31.0" fill="#FEFFFF" transform="matrix(1.00, 0.00, -0.00, -1.00, 2379.8, 499.0)">a</text><text xml:space="preserve" font-family="AvenirNext-Medium" font-size="31.0" fill="#FEFFFF" transform="matrix(1.00, 0.00, -0.00, -1.00, 2396.6, 499.0)">l</text><text xml:space="preserve" font-family="AvenirNext-Medium" font-size="31.0" fill="#FEFFFF" transform="matrix(1.00, 0.00, -0.00, -1.00, 2404.6, 499.0)">l</text><text xml:space="preserve" font-family="AvenirNext-Medium" font-size="31.0" fill="#FEFFFF" transform="matrix(1.00, 0.00, -0.00, -1.00, 2412.7, 499.0)">.</text><text xml:space="preserve" font-family="AvenirNext-Medium" font-size="31.0" fill="#FEFFFF" transform="matrix(1.00, 0.00, -0.00, -1.00, 2419.8, 499.0)"> </text><text xml:space="preserve" font-family="AvenirNext-Medium" font-size="31.0" fill="#FEFFFF" transform="matrix(1.00, 0.00, -0.00, -1.00, 2427.6, 499.0)"> </text><text xml:space="preserve" font-family="AvenirNext-Medium" font-size="31.0" fill="#FEFFFF" transform="matrix(1.00, 0.00, -0.00, -1.00, 2096.0, 415.0)">W</text><text xml:space="preserve" font-family="AvenirNext-Medium" font-size="31.0" fill="#FEFFFF" transform="matrix(1.00, 0.00, -0.00, -1.00, 2125.5, 415.0)">a</text><text xml:space="preserve" font-family="AvenirNext-Medium" font-size="31.0" fill="#FEFFFF" transform="matrix(1.00, 0.00, -0.00, -1.00, 2142.3, 415.0)">s</text><text xml:space="preserve" font-family="AvenirNext-Medium" font-size="31.0" fill="#FEFFFF" transform="matrix(1.00, 0.00, -0.00, -1.00, 2156.1, 415.0)"> </text><text xml:space="preserve" font-family="AvenirNext-Medium" font-size="31.0" fill="#FEFFFF" transform="matrix(1.00, 0.00, -0.00, -1.00, 2163.8, 415.0)">s</text><text xml:space="preserve" font-family="AvenirNext-Medium" font-size="31.0" fill="#FEFFFF" transform="matrix(1.00, 0.00, -0.00, -1.00, 2177.6, 415.0)">o</text><text xml:space="preserve" font-family="AvenirNext-Medium" font-size="31.0" fill="#FEFFFF" transform="matrix(1.00, 0.00, -0.00, -1.00, 2196.5, 415.0)">m</text><text xml:space="preserve" font-family="AvenirNext-Medium" font-size="31.0" fill="#FEFFFF" transform="matrix(1.00, 0.00, -0.00, -1.00, 2224.0, 415.0)">e</text><text xml:space="preserve" font-family="AvenirNext-Medium" font-size="31.0" fill="#FEFFFF" transform="matrix(1.00, 0.00, -0.00, -1.00, 2241.8, 415.0)">o</text><text xml:space="preserve" font-family="AvenirNext-Medium" font-size="31.0" fill="#FEFFFF" transform="matrix(1.00, 0.00, -0.00, -1.00, 2260.7, 415.0)">n</text><text xml:space="preserve" font-family="AvenirNext-Medium" font-size="31.0" fill="#FEFFFF" transform="matrix(1.00, 0.00, -0.00, -1.00, 2278.7, 415.0)">e</text><text xml:space="preserve" font-family="AvenirNext-Medium" font-size="31.0" fill="#FEFFFF" transform="matrix(1.00, 0.00, -0.00, -1.00, 2296.5, 415.0)"> </text><text xml:space="preserve" font-family="AvenirNext-Medium" font-size="31.0" fill="#FEFFFF" transform="matrix(1.00, 0.00, -0.00, -1.00, 2304.2, 415.0)">p</text><text xml:space="preserve" font-family="AvenirNext-Medium" font-size="31.0" fill="#FEFFFF" transform="matrix(1.00, 0.00, -0.00, -1.00, 2323.9, 415.0)">l</text><text xml:space="preserve" font-family="AvenirNext-Medium" font-size="31.0" fill="#FEFFFF" transform="matrix(1.00, 0.00, -0.00, -1.00, 2331.9, 415.0)">a</text><text xml:space="preserve" font-family="AvenirNext-Medium" font-size="31.0" fill="#FEFFFF" transform="matrix(1.00, 0.00, -0.00, -1.00, 2348.7, 415.0)">y</text><text xml:space="preserve" font-family="AvenirNext-Medium" font-size="31.0" fill="#FEFFFF" transform="matrix(1.00, 0.00, -0.00, -1.00, 2364.4, 415.0)">i</text><text xml:space="preserve" font-family="AvenirNext-Medium" font-size="31.0" fill="#FEFFFF" transform="matrix(1.00, 0.00, -0.00, -1.00, 2372.4, 415.0)">n</text><text xml:space="preserve" font-family="AvenirNext-Medium" font-size="31.0" fill="#FEFFFF" transform="matrix(1.00, 0.00, -0.00, -1.00, 2390.4, 415.0)">g</text><text xml:space="preserve" font-family="AvenirNext-Medium" font-size="31.0" fill="#FEFFFF" transform="matrix(1.00, 0.00, -0.00, -1.00, 2410.0, 415.0)"> </text><text xml:space="preserve" font-family="AvenirNext-Medium" font-size="31.0" fill="#FEFFFF" transform="matrix(1.00, 0.00, -0.00, -1.00, 2417.8, 415.0)">g</text><text xml:space="preserve" font-family="AvenirNext-Medium" font-size="31.0" fill="#FEFFFF" transform="matrix(1.00, 0.00, -0.00, -1.00, 2437.4, 415.0)">a</text><text xml:space="preserve" font-family="AvenirNext-Medium" font-size="31.0" fill="#FEFFFF" transform="matrix(1.00, 0.00, -0.00, -1.00, 2454.2, 415.0)">m</text><text xml:space="preserve" font-family="AvenirNext-Medium" font-size="31.0" fill="#FEFFFF" transform="matrix(1.00, 0.00, -0.00, -1.00, 2481.7, 415.0)">e</text><text xml:space="preserve" font-family="AvenirNext-Medium" font-size="31.0" fill="#FEFFFF" transform="matrix(1.00, 0.00, -0.00, -1.00, 2499.4, 415.0)">s</text><text xml:space="preserve" font-family="AvenirNext-Medium" font-size="31.0" fill="#FEFFFF" transform="matrix(1.00, 0.00, -0.00, -1.00, 2513.2, 415.0)"> </text><text xml:space="preserve" font-family="AvenirNext-Medium" font-size="31.0" fill="#FEFFFF" transform="matrix(1.00, 0.00, -0.00, -1.00, 2520.9, 415.0)">w</text><text xml:space="preserve" font-family="AvenirNext-Medium" font-size="31.0" fill="#FEFFFF" transform="matrix(1.00, 0.00, -0.00, -1.00, 2544.9, 415.0)">i</text><text xml:space="preserve" font-family="AvenirNext-Medium" font-size="31.0" fill="#FEFFFF" transform="matrix(1.00, 0.00, -0.00, -1.00, 2552.9, 415.0)">t</text><text xml:space="preserve" font-family="AvenirNext-Medium" font-size="31.0" fill="#FEFFFF" transform="matrix(1.00, 0.00, -0.00, -1.00, 2563.1, 415.0)">h</text><text xml:space="preserve" font-family="AvenirNext-Medium" font-size="31.0" fill="#FEFFFF" transform="matrix(1.00, 0.00, -0.00, -1.00, 2581.2, 415.0)"> </text><text xml:space="preserve" font-family="AvenirNext-Medium" font-size="31.0" fill="#FEFFFF" transform="matrix(1.00, 0.00, -0.00, -1.00, 2589.0, 415.0)">m</text><text xml:space="preserve" font-family="AvenirNext-Medium" font-size="31.0" fill="#FEFFFF" transform="matrix(1.00, 0.00, -0.00, -1.00, 2616.5, 415.0)">e</text><text xml:space="preserve" font-family="AvenirNext-Medium" font-size="31.0" fill="#FEFFFF" transform="matrix(1.00, 0.00, -0.00, -1.00, 2634.3, 415.0)">?</text><g><clipPath id="clip-28"><path d="M 2103.0 132.7 L 2363.0 132.7 L 2363.0 238.2 L 2103.0 238.2 Z M 2103.0 132.7 "></path></clipPath><g clip-path="url(#clip-28)"><path d="M 2104.0 237.2 L 2362.0 237.2 L 2362.0 133.7 L 2104.0 133.7 Z M 2104.0 237.2 " fill="#000000"></path></g></g><g><clipPath id="clip-29"><path d="M 2130.8 142.6 L 2336.1 142.6 L 2336.1 224.9 L 2130.8 224.9 Z M 2130.8 142.6 "></path></clipPath><g clip-path="url(#clip-29)"><text xml:space="preserve" font-family="AvenirNext-Bold" font-weight="bold" font-size="40.0" fill="#FEFFFF" transform="matrix(1.00, 0.00, -0.00, -1.00, 2145.0, 171.0)">C</text><text xml:space="preserve" font-family="AvenirNext-Bold" font-weight="bold" font-size="40.0" fill="#FEFFFF" transform="matrix(1.00, 0.00, -0.00, -1.00, 2172.4, 171.0)">o</text><text xml:space="preserve" font-family="AvenirNext-Bold" font-weight="bold" font-size="40.0" fill="#FEFFFF" transform="matrix(1.00, 0.00, -0.00, -1.00, 2197.6, 171.0)">n</text><text xml:space="preserve" font-family="AvenirNext-Bold" font-weight="bold" font-size="40.0" fill="#FEFFFF" transform="matrix(1.00, 0.00, -0.00, -1.00, 2222.3, 171.0)">t</text><text xml:space="preserve" font-family="AvenirNext-Bold" font-weight="bold" font-size="40.0" fill="#FEFFFF" transform="matrix(1.00, 0.00, -0.00, -1.00, 2237.2, 171.0)">i</text><text xml:space="preserve" font-family="AvenirNext-Bold" font-weight="bold" font-size="40.0" fill="#FEFFFF" transform="matrix(1.00, 0.00, -0.00, -1.00, 2249.0, 171.0)">n</text><text xml:space="preserve" font-family="AvenirNext-Bold" font-weight="bold" font-size="40.0" fill="#FEFFFF" transform="matrix(1.00, 0.00, -0.00, -1.00, 2273.6, 171.0)">u</text><text xml:space="preserve" font-family="AvenirNext-Bold" font-weight="bold" font-size="40.0" fill="#FEFFFF" transform="matrix(1.00, 0.00, -0.00, -1.00, 2298.2, 171.0)">e</text></g></g><g><clipPath id="clip-30"><path d="M 2098.8 125.6 L 2368.2 125.6 L 2368.2 241.9 L 2098.8 241.9 Z M 2098.8 125.6 "></path></clipPath><g clip-path="url(#clip-30)"><path d="M 0.0 0.0 L 262.4 0.0 L 262.4 109.3 L 0.0 109.3 Z M 0.0 0.0 " fill="none" stroke="#FEFFFE" stroke-width="5.00" transform="matrix(1.00, 0.00, 0.00, -1.00, 2102.3, 238.4)"></path></g></g></g></svg>