<?xml version="1.0" encoding="UTF-8"?><svg xmlns="http://www.w3.org/2000/svg" xmlns:xlink="http://www.w3.org/1999/xlink" clip-rule="evenodd" stroke-miterlimit="4.00" viewBox="0 0 2800 1059"><desc>SVG generated by Keynote</desc><defs></defs><g transform="matrix(1.00, 0.00, -0.00, -1.00, 0.0, 1059.0)"><path d="M 0.0 0.0 L 2800.0 0.0 L 2800.0 1059.0 L 0.0 1059.0 Z M 0.0 0.0 " fill="#000000"></path><g><clipPath id="clip-39"><path d="M 1998.1 1059.0 L 2802.3 1059.0 L 2802.3 0.0 L 1998.1 0.0 Z M 1998.1 1059.0 "></path></clipPath><g clip-path="url(#clip-39)"><image xlink:href="../../9408A9C4-D635-4DCF-AA84-A4CF6D5A0E75/assets/8669AAA156F33E0A19E91B6E3C9197C3.jpeg" width="1152.00" height="768.00" transform="matrix(2.67, 0.00, -0.00, -2.67, 1998.1, 1059.0)"></image></g></g><image xlink:href="../../B4563787-ED84-46F9-B770-A399F844E641/assets/FE884253654E438F52C466CD948F34E3.jpeg" width="1366.00" height="723.00" transform="matrix(1.46, 0.00, -0.00, -1.46, -1.0, 1059.0)"></image><image xlink:href="../../B4563787-ED84-46F9-B770-A399F844E641/assets/D058B9E41F29B130F2FF16A8AAFCC1EF.png" width="960.00" height="507.00" transform="matrix(2.08, 0.00, -0.00, -2.09, -335.0, 946.0)"></image><text xml:space="preserve" font-family="AvenirNext-Medium" font-size="31.0" fill="#FEFFFF" transform="matrix(1.00, 0.00, -0.00, -1.00, 2096.0, 709.0)">T</text><text xml:space="preserve" font-family="AvenirNext-Medium" font-size="31.0" fill="#FEFFFF" transform="matrix(1.00, 0.00, -0.00, -1.00, 2113.1, 709.0)">h</text><text xml:space="preserve" font-family="AvenirNext-Medium" font-size="31.0" fill="#FEFFFF" transform="matrix(1.00, 0.00, -0.00, -1.00, 2131.2, 709.0)">a</text><text xml:space="preserve" font-family="AvenirNext-Medium" font-size="31.0" fill="#FEFFFF" transform="matrix(1.00, 0.00, -0.00, -1.00, 2147.7, 709.0)">t</text><text xml:space="preserve" font-family="AvenirNext-Medium" font-size="31.0" fill="#FEFFFF" transform="matrix(1.00, 0.00, -0.00, -1.00, 2157.9, 709.0)"> </text><text xml:space="preserve" font-family="AvenirNext-Medium" font-size="31.0" fill="#FEFFFF" transform="matrix(1.00, 0.00, -0.00, -1.00, 2165.6, 709.0)">s</text><text xml:space="preserve" font-family="AvenirNext-Medium" font-size="31.0" fill="#FEFFFF" transform="matrix(1.00, 0.00, -0.00, -1.00, 2179.4, 709.0)">i</text><text xml:space="preserve" font-family="AvenirNext-Medium" font-size="31.0" fill="#FEFFFF" transform="matrix(1.00, 0.00, -0.00, -1.00, 2187.4, 709.0)">l</text><text xml:space="preserve" font-family="AvenirNext-Medium" font-size="31.0" fill="#FEFFFF" transform="matrix(1.00, 0.00, -0.00, -1.00, 2195.5, 709.0)">h</text><text xml:space="preserve" font-family="AvenirNext-Medium" font-size="31.0" fill="#FEFFFF" transform="matrix(1.00, 0.00, -0.00, -1.00, 2213.6, 709.0)">o</text><text xml:space="preserve" font-family="AvenirNext-Medium" font-size="31.0" fill="#FEFFFF" transform="matrix(1.00, 0.00, -0.00, -1.00, 2232.5, 709.0)">u</text><text xml:space="preserve" font-family="AvenirNext-Medium" font-size="31.0" fill="#FEFFFF" transform="matrix(1.00, 0.00, -0.00, -1.00, 2250.5, 709.0)">e</text><text xml:space="preserve" font-family="AvenirNext-Medium" font-size="31.0" fill="#FEFFFF" transform="matrix(1.00, 0.00, -0.00, -1.00, 2268.3, 709.0)">t</text><text xml:space="preserve" font-family="AvenirNext-Medium" font-size="31.0" fill="#FEFFFF" transform="matrix(1.00, 0.00, -0.00, -1.00, 2278.0, 709.0)">t</text><text xml:space="preserve" font-family="AvenirNext-Medium" font-size="31.0" fill="#FEFFFF" transform="matrix(1.00, 0.00, -0.00, -1.00, 2288.2, 709.0)">e</text><text xml:space="preserve" font-family="AvenirNext-Medium" font-size="31.0" fill="#FEFFFF" transform="matrix(1.00, 0.00, -0.00, -1.00, 2306.0, 709.0)"> </text><text xml:space="preserve" font-family="AvenirNext-Medium" font-size="31.0" fill="#FEFFFF" transform="matrix(1.00, 0.00, -0.00, -1.00, 2313.7, 709.0)">l</text><text xml:space="preserve" font-family="AvenirNext-Medium" font-size="31.0" fill="#FEFFFF" transform="matrix(1.00, 0.00, -0.00, -1.00, 2321.8, 709.0)">o</text><text xml:space="preserve" font-family="AvenirNext-Medium" font-size="31.0" fill="#FEFFFF" transform="matrix(1.00, 0.00, -0.00, -1.00, 2340.7, 709.0)">o</text><text xml:space="preserve" font-family="AvenirNext-Medium" font-size="31.0" fill="#FEFFFF" transform="matrix(1.00, 0.00, -0.00, -1.00, 2359.6, 709.0)">k</text><text xml:space="preserve" font-family="AvenirNext-Medium" font-size="31.0" fill="#FEFFFF" transform="matrix(1.00, 0.00, -0.00, -1.00, 2375.4, 709.0)">e</text><text xml:space="preserve" font-family="AvenirNext-Medium" font-size="31.0" fill="#FEFFFF" transform="matrix(1.00, 0.00, -0.00, -1.00, 2393.2, 709.0)">d</text><text xml:space="preserve" font-family="AvenirNext-Medium" font-size="31.0" fill="#FEFFFF" transform="matrix(1.00, 0.00, -0.00, -1.00, 2412.9, 709.0)"> </text><text xml:space="preserve" font-family="AvenirNext-Medium" font-size="31.0" fill="#FEFFFF" transform="matrix(1.00, 0.00, -0.00, -1.00, 2420.6, 709.0)">f</text><text xml:space="preserve" font-family="AvenirNext-Medium" font-size="31.0" fill="#FEFFFF" transform="matrix(1.00, 0.00, -0.00, -1.00, 2430.2, 709.0)">a</text><text xml:space="preserve" font-family="AvenirNext-Medium" font-size="31.0" fill="#FEFFFF" transform="matrix(1.00, 0.00, -0.00, -1.00, 2447.0, 709.0)">m</text><text xml:space="preserve" font-family="AvenirNext-Medium" font-size="31.0" fill="#FEFFFF" transform="matrix(1.00, 0.00, -0.00, -1.00, 2474.5, 709.0)">i</text><text xml:space="preserve" font-family="AvenirNext-Medium" font-size="31.0" fill="#FEFFFF" transform="matrix(1.00, 0.00, -0.00, -1.00, 2482.5, 709.0)">l</text><text xml:space="preserve" font-family="AvenirNext-Medium" font-size="31.0" fill="#FEFFFF" transform="matrix(1.00, 0.00, -0.00, -1.00, 2490.6, 709.0)">i</text><text xml:space="preserve" font-family="AvenirNext-Medium" font-size="31.0" fill="#FEFFFF" transform="matrix(1.00, 0.00, -0.00, -1.00, 2498.6, 709.0)">a</text><text xml:space="preserve" font-family="AvenirNext-Medium" font-size="31.0" fill="#FEFFFF" transform="matrix(1.00, 0.00, -0.00, -1.00, 2515.4, 709.0)">r</text><text xml:space="preserve" font-family="AvenirNext-Medium" font-size="31.0" fill="#FEFFFF" transform="matrix(1.00, 0.00, -0.00, -1.00, 2525.2, 709.0)">,</text><text xml:space="preserve" font-family="AvenirNext-Medium" font-size="31.0" fill="#FEFFFF" transform="matrix(1.00, 0.00, -0.00, -1.00, 2532.3, 709.0)"> </text><text xml:space="preserve" font-family="AvenirNext-Medium" font-size="31.0" fill="#FEFFFF" transform="matrix(1.00, 0.00, -0.00, -1.00, 2540.0, 709.0)">c</text><text xml:space="preserve" font-family="AvenirNext-Medium" font-size="31.0" fill="#FEFFFF" transform="matrix(1.00, 0.00, -0.00, -1.00, 2555.4, 709.0)">o</text><text xml:space="preserve" font-family="AvenirNext-Medium" font-size="31.0" fill="#FEFFFF" transform="matrix(1.00, 0.00, -0.00, -1.00, 2574.3, 709.0)">u</text><text xml:space="preserve" font-family="AvenirNext-Medium" font-size="31.0" fill="#FEFFFF" transform="matrix(1.00, 0.00, -0.00, -1.00, 2592.3, 709.0)">l</text><text xml:space="preserve" font-family="AvenirNext-Medium" font-size="31.0" fill="#FEFFFF" transform="matrix(1.00, 0.00, -0.00, -1.00, 2600.4, 709.0)">d</text><text xml:space="preserve" font-family="AvenirNext-Medium" font-size="31.0" fill="#FEFFFF" transform="matrix(1.00, 0.00, -0.00, -1.00, 2620.1, 709.0)"> </text><text xml:space="preserve" font-family="AvenirNext-Medium" font-size="31.0" fill="#FEFFFF" transform="matrix(1.00, 0.00, -0.00, -1.00, 2627.8, 709.0)">i</text><text xml:space="preserve" font-family="AvenirNext-Medium" font-size="31.0" fill="#FEFFFF" transform="matrix(1.00, 0.00, -0.00, -1.00, 2635.8, 709.0)">t</text><text xml:space="preserve" font-family="AvenirNext-Medium" font-size="31.0" fill="#FEFFFF" transform="matrix(1.00, 0.00, -0.00, -1.00, 2646.0, 709.0)"> </text><text xml:space="preserve" font-family="AvenirNext-Medium" font-size="31.0" fill="#FEFFFF" transform="matrix(1.00, 0.00, -0.00, -1.00, 2096.0, 667.0)">r</text><text xml:space="preserve" font-family="AvenirNext-Medium" font-size="31.0" fill="#FEFFFF" transform="matrix(1.00, 0.00, -0.00, -1.00, 2106.7, 667.0)">e</text><text xml:space="preserve" font-family="AvenirNext-Medium" font-size="31.0" fill="#FEFFFF" transform="matrix(1.00, 0.00, -0.00, -1.00, 2124.2, 667.0)">a</text><text xml:space="preserve" font-family="AvenirNext-Medium" font-size="31.0" fill="#FEFFFF" transform="matrix(1.00, 0.00, -0.00, -1.00, 2141.0, 667.0)">l</text><text xml:space="preserve" font-family="AvenirNext-Medium" font-size="31.0" fill="#FEFFFF" transform="matrix(1.00, 0.00, -0.00, -1.00, 2149.1, 667.0)">l</text><text xml:space="preserve" font-family="AvenirNext-Medium" font-size="31.0" fill="#FEFFFF" transform="matrix(1.00, 0.00, -0.00, -1.00, 2157.2, 667.0)">y</text><text xml:space="preserve" font-family="AvenirNext-Medium" font-size="31.0" fill="#FEFFFF" transform="matrix(1.00, 0.00, -0.00, -1.00, 2172.8, 667.0)"> </text><text xml:space="preserve" font-family="AvenirNext-Medium" font-size="31.0" fill="#FEFFFF" transform="matrix(1.00, 0.00, -0.00, -1.00, 2180.5, 667.0)">b</text><text xml:space="preserve" font-family="AvenirNext-Medium" font-size="31.0" fill="#FEFFFF" transform="matrix(1.00, 0.00, -0.00, -1.00, 2200.3, 667.0)">e</text><text xml:space="preserve" font-family="AvenirNext-Medium" font-size="31.0" fill="#FEFFFF" transform="matrix(1.00, 0.00, -0.00, -1.00, 2218.0, 667.0)"> </text><text xml:space="preserve" font-family="AvenirNext-Medium" font-size="31.0" fill="#FEFFFF" transform="matrix(1.00, 0.00, -0.00, -1.00, 2225.8, 667.0)">h</text><text xml:space="preserve" font-family="AvenirNext-Medium" font-size="31.0" fill="#FEFFFF" transform="matrix(1.00, 0.00, -0.00, -1.00, 2243.9, 667.0)">i</text><text xml:space="preserve" font-family="AvenirNext-Medium" font-size="31.0" fill="#FEFFFF" transform="matrix(1.00, 0.00, -0.00, -1.00, 2251.9, 667.0)">m</text><text xml:space="preserve" font-family="AvenirNext-Medium" font-size="31.0" fill="#FEFFFF" transform="matrix(1.00, 0.00, -0.00, -1.00, 2279.4, 667.0)">,</text><text xml:space="preserve" font-family="AvenirNext-Medium" font-size="31.0" fill="#FEFFFF" transform="matrix(1.00, 0.00, -0.00, -1.00, 2286.5, 667.0)"> </text><text xml:space="preserve" font-family="AvenirNext-Medium" font-size="31.0" fill="#FEFFFF" transform="matrix(1.00, 0.00, -0.00, -1.00, 2294.3, 667.0)">a</text><text xml:space="preserve" font-family="AvenirNext-Medium" font-size="31.0" fill="#FEFFFF" transform="matrix(1.00, 0.00, -0.00, -1.00, 2311.1, 667.0)">f</text><text xml:space="preserve" font-family="AvenirNext-Medium" font-size="31.0" fill="#FEFFFF" transform="matrix(1.00, 0.00, -0.00, -1.00, 2320.2, 667.0)">t</text><text xml:space="preserve" font-family="AvenirNext-Medium" font-size="31.0" fill="#FEFFFF" transform="matrix(1.00, 0.00, -0.00, -1.00, 2330.4, 667.0)">e</text><text xml:space="preserve" font-family="AvenirNext-Medium" font-size="31.0" fill="#FEFFFF" transform="matrix(1.00, 0.00, -0.00, -1.00, 2348.2, 667.0)">r</text><text xml:space="preserve" font-family="AvenirNext-Medium" font-size="31.0" fill="#FEFFFF" transform="matrix(1.00, 0.00, -0.00, -1.00, 2359.4, 667.0)"> </text><text xml:space="preserve" font-family="AvenirNext-Medium" font-size="31.0" fill="#FEFFFF" transform="matrix(1.00, 0.00, -0.00, -1.00, 2367.2, 667.0)">a</text><text xml:space="preserve" font-family="AvenirNext-Medium" font-size="31.0" fill="#FEFFFF" transform="matrix(1.00, 0.00, -0.00, -1.00, 2384.0, 667.0)">l</text><text xml:space="preserve" font-family="AvenirNext-Medium" font-size="31.0" fill="#FEFFFF" transform="matrix(1.00, 0.00, -0.00, -1.00, 2392.0, 667.0)">l</text><text xml:space="preserve" font-family="AvenirNext-Medium" font-size="31.0" fill="#FEFFFF" transform="matrix(1.00, 0.00, -0.00, -1.00, 2400.1, 667.0)"> </text><text xml:space="preserve" font-family="AvenirNext-Medium" font-size="31.0" fill="#FEFFFF" transform="matrix(1.00, 0.00, -0.00, -1.00, 2407.8, 667.0)">t</text><text xml:space="preserve" font-family="AvenirNext-Medium" font-size="31.0" fill="#FEFFFF" transform="matrix(1.00, 0.00, -0.00, -1.00, 2418.0, 667.0)">h</text><text xml:space="preserve" font-family="AvenirNext-Medium" font-size="31.0" fill="#FEFFFF" transform="matrix(1.00, 0.00, -0.00, -1.00, 2436.1, 667.0)">e</text><text xml:space="preserve" font-family="AvenirNext-Medium" font-size="31.0" fill="#FEFFFF" transform="matrix(1.00, 0.00, -0.00, -1.00, 2453.9, 667.0)">s</text><text xml:space="preserve" font-family="AvenirNext-Medium" font-size="31.0" fill="#FEFFFF" transform="matrix(1.00, 0.00, -0.00, -1.00, 2467.7, 667.0)">e</text><text xml:space="preserve" font-family="AvenirNext-Medium" font-size="31.0" fill="#FEFFFF" transform="matrix(1.00, 0.00, -0.00, -1.00, 2485.4, 667.0)"> </text><text xml:space="preserve" font-family="AvenirNext-Medium" font-size="31.0" fill="#FEFFFF" transform="matrix(1.00, 0.00, -0.00, -1.00, 2493.2, 667.0)">y</text><text xml:space="preserve" font-family="AvenirNext-Medium" font-size="31.0" fill="#FEFFFF" transform="matrix(1.00, 0.00, -0.00, -1.00, 2508.8, 667.0)">e</text><text xml:space="preserve" font-family="AvenirNext-Medium" font-size="31.0" fill="#FEFFFF" transform="matrix(1.00, 0.00, -0.00, -1.00, 2526.4, 667.0)">a</text><text xml:space="preserve" font-family="AvenirNext-Medium" font-size="31.0" fill="#FEFFFF" transform="matrix(1.00, 0.00, -0.00, -1.00, 2543.2, 667.0)">r</text><text xml:space="preserve" font-family="AvenirNext-Medium" font-size="31.0" fill="#FEFFFF" transform="matrix(1.00, 0.00, -0.00, -1.00, 2554.4, 667.0)">s</text><text xml:space="preserve" font-family="AvenirNext-Medium" font-size="31.0" fill="#FEFFFF" transform="matrix(1.00, 0.00, -0.00, -1.00, 2568.2, 667.0)">?</text><text xml:space="preserve" font-family="AvenirNext-Medium" font-size="31.0" fill="#FEFFFF" transform="matrix(1.00, 0.00, -0.00, -1.00, 2583.7, 667.0)"> </text><text xml:space="preserve" font-family="AvenirNext-Medium" font-size="31.0" fill="#FEFFFF" transform="matrix(1.00, 0.00, -0.00, -1.00, 2591.4, 667.0)"> </text><text xml:space="preserve" font-family="AvenirNext-Medium" font-size="31.0" fill="#FEFFFF" transform="matrix(1.00, 0.00, -0.00, -1.00, 2096.0, 583.0)">T</text><text xml:space="preserve" font-family="AvenirNext-Medium" font-size="31.0" fill="#FEFFFF" transform="matrix(1.00, 0.00, -0.00, -1.00, 2113.1, 583.0)">h</text><text xml:space="preserve" font-family="AvenirNext-Medium" font-size="31.0" fill="#FEFFFF" transform="matrix(1.00, 0.00, -0.00, -1.00, 2131.2, 583.0)">e</text><text xml:space="preserve" font-family="AvenirNext-Medium" font-size="31.0" fill="#FEFFFF" transform="matrix(1.00, 0.00, -0.00, -1.00, 2148.9, 583.0)"> </text><text xml:space="preserve" font-family="AvenirNext-Medium" font-size="31.0" fill="#FEFFFF" transform="matrix(1.00, 0.00, -0.00, -1.00, 2156.7, 583.0)">ï¬</text><text xml:space="preserve" font-family="AvenirNext-Medium" font-size="31.0" fill="#FEFFFF" transform="matrix(1.00, 0.00, -0.00, -1.00, 2174.5, 583.0)">g</text><text xml:space="preserve" font-family="AvenirNext-Medium" font-size="31.0" fill="#FEFFFF" transform="matrix(1.00, 0.00, -0.00, -1.00, 2194.1, 583.0)">u</text><text xml:space="preserve" font-family="AvenirNext-Medium" font-size="31.0" fill="#FEFFFF" transform="matrix(1.00, 0.00, -0.00, -1.00, 2212.1, 583.0)">r</text><text xml:space="preserve" font-family="AvenirNext-Medium" font-size="31.0" fill="#FEFFFF" transform="matrix(1.00, 0.00, -0.00, -1.00, 2222.8, 583.0)">e</text><text xml:space="preserve" font-family="AvenirNext-Medium" font-size="31.0" fill="#FEFFFF" transform="matrix(1.00, 0.00, -0.00, -1.00, 2240.6, 583.0)"> </text><text xml:space="preserve" font-family="AvenirNext-Medium" font-size="31.0" fill="#FEFFFF" transform="matrix(1.00, 0.00, -0.00, -1.00, 2248.3, 583.0)">a</text><text xml:space="preserve" font-family="AvenirNext-Medium" font-size="31.0" fill="#FEFFFF" transform="matrix(1.00, 0.00, -0.00, -1.00, 2265.1, 583.0)">p</text><text xml:space="preserve" font-family="AvenirNext-Medium" font-size="31.0" fill="#FEFFFF" transform="matrix(1.00, 0.00, -0.00, -1.00, 2284.8, 583.0)">p</text><text xml:space="preserve" font-family="AvenirNext-Medium" font-size="31.0" fill="#FEFFFF" transform="matrix(1.00, 0.00, -0.00, -1.00, 2304.4, 583.0)">r</text><text xml:space="preserve" font-family="AvenirNext-Medium" font-size="31.0" fill="#FEFFFF" transform="matrix(1.00, 0.00, -0.00, -1.00, 2315.1, 583.0)">o</text><text xml:space="preserve" font-family="AvenirNext-Medium" font-size="31.0" fill="#FEFFFF" transform="matrix(1.00, 0.00, -0.00, -1.00, 2334.0, 583.0)">a</text><text xml:space="preserve" font-family="AvenirNext-Medium" font-size="31.0" fill="#FEFFFF" transform="matrix(1.00, 0.00, -0.00, -1.00, 2350.8, 583.0)">c</text><text xml:space="preserve" font-family="AvenirNext-Medium" font-size="31.0" fill="#FEFFFF" transform="matrix(1.00, 0.00, -0.00, -1.00, 2366.1, 583.0)">h</text><text xml:space="preserve" font-family="AvenirNext-Medium" font-size="31.0" fill="#FEFFFF" transform="matrix(1.00, 0.00, -0.00, -1.00, 2384.2, 583.0)">e</text><text xml:space="preserve" font-family="AvenirNext-Medium" font-size="31.0" fill="#FEFFFF" transform="matrix(1.00, 0.00, -0.00, -1.00, 2402.0, 583.0)">d</text><text xml:space="preserve" font-family="AvenirNext-Medium" font-size="31.0" fill="#FEFFFF" transform="matrix(1.00, 0.00, -0.00, -1.00, 2421.7, 583.0)"> </text><text xml:space="preserve" font-family="AvenirNext-Medium" font-size="31.0" fill="#FEFFFF" transform="matrix(1.00, 0.00, -0.00, -1.00, 2429.4, 583.0)">m</text><text xml:space="preserve" font-family="AvenirNext-Medium" font-size="31.0" fill="#FEFFFF" transform="matrix(1.00, 0.00, -0.00, -1.00, 2456.9, 583.0)">e</text><text xml:space="preserve" font-family="AvenirNext-Medium" font-size="31.0" fill="#FEFFFF" transform="matrix(1.00, 0.00, -0.00, -1.00, 2474.7, 583.0)"> </text><text xml:space="preserve" font-family="AvenirNext-Medium" font-size="31.0" fill="#FEFFFF" transform="matrix(1.00, 0.00, -0.00, -1.00, 2482.4, 583.0)">s</text><text xml:space="preserve" font-family="AvenirNext-Medium" font-size="31.0" fill="#FEFFFF" transform="matrix(1.00, 0.00, -0.00, -1.00, 2496.2, 583.0)">i</text><text xml:space="preserve" font-family="AvenirNext-Medium" font-size="31.0" fill="#FEFFFF" transform="matrix(1.00, 0.00, -0.00, -1.00, 2504.2, 583.0)">l</text><text xml:space="preserve" font-family="AvenirNext-Medium" font-size="31.0" fill="#FEFFFF" transform="matrix(1.00, 0.00, -0.00, -1.00, 2512.3, 583.0)">e</text><text xml:space="preserve" font-family="AvenirNext-Medium" font-size="31.0" fill="#FEFFFF" transform="matrix(1.00, 0.00, -0.00, -1.00, 2530.0, 583.0)">n</text><text xml:space="preserve" font-family="AvenirNext-Medium" font-size="31.0" fill="#FEFFFF" transform="matrix(1.00, 0.00, -0.00, -1.00, 2548.1, 583.0)">t</text><text xml:space="preserve" font-family="AvenirNext-Medium" font-size="31.0" fill="#FEFFFF" transform="matrix(1.00, 0.00, -0.00, -1.00, 2558.3, 583.0)">l</text><text xml:space="preserve" font-family="AvenirNext-Medium" font-size="31.0" fill="#FEFFFF" transform="matrix(1.00, 0.00, -0.00, -1.00, 2566.3, 583.0)">y</text><text xml:space="preserve" font-family="AvenirNext-Medium" font-size="31.0" fill="#FEFFFF" transform="matrix(1.00, 0.00, -0.00, -1.00, 2580.8, 583.0)">,</text><text xml:space="preserve" font-family="AvenirNext-Medium" font-size="31.0" fill="#FEFFFF" transform="matrix(1.00, 0.00, -0.00, -1.00, 2588.0, 583.0)"> </text><text xml:space="preserve" font-family="AvenirNext-Medium" font-size="31.0" fill="#FEFFFF" transform="matrix(1.00, 0.00, -0.00, -1.00, 2096.0, 541.0)">m</text><text xml:space="preserve" font-family="AvenirNext-Medium" font-size="31.0" fill="#FEFFFF" transform="matrix(1.00, 0.00, -0.00, -1.00, 2123.5, 541.0)">u</text><text xml:space="preserve" font-family="AvenirNext-Medium" font-size="31.0" fill="#FEFFFF" transform="matrix(1.00, 0.00, -0.00, -1.00, 2141.5, 541.0)">t</text><text xml:space="preserve" font-family="AvenirNext-Medium" font-size="31.0" fill="#FEFFFF" transform="matrix(1.00, 0.00, -0.00, -1.00, 2151.3, 541.0)">t</text><text xml:space="preserve" font-family="AvenirNext-Medium" font-size="31.0" fill="#FEFFFF" transform="matrix(1.00, 0.00, -0.00, -1.00, 2161.5, 541.0)">e</text><text xml:space="preserve" font-family="AvenirNext-Medium" font-size="31.0" fill="#FEFFFF" transform="matrix(1.00, 0.00, -0.00, -1.00, 2179.2, 541.0)">r</text><text xml:space="preserve" font-family="AvenirNext-Medium" font-size="31.0" fill="#FEFFFF" transform="matrix(1.00, 0.00, -0.00, -1.00, 2190.5, 541.0)">i</text><text xml:space="preserve" font-family="AvenirNext-Medium" font-size="31.0" fill="#FEFFFF" transform="matrix(1.00, 0.00, -0.00, -1.00, 2198.5, 541.0)">n</text><text xml:space="preserve" font-family="AvenirNext-Medium" font-size="31.0" fill="#FEFFFF" transform="matrix(1.00, 0.00, -0.00, -1.00, 2216.5, 541.0)">g</text><text xml:space="preserve" font-family="AvenirNext-Medium" font-size="31.0" fill="#FEFFFF" transform="matrix(1.00, 0.00, -0.00, -1.00, 2236.1, 541.0)"> </text><text xml:space="preserve" font-family="AvenirNext-Medium" font-size="31.0" fill="#FEFFFF" transform="matrix(1.00, 0.00, -0.00, -1.00, 2243.9, 541.0)">s</text><text xml:space="preserve" font-family="AvenirNext-Medium" font-size="31.0" fill="#FEFFFF" transform="matrix(1.00, 0.00, -0.00, -1.00, 2257.6, 541.0)">o</text><text xml:space="preserve" font-family="AvenirNext-Medium" font-size="31.0" fill="#FEFFFF" transform="matrix(1.00, 0.00, -0.00, -1.00, 2276.5, 541.0)">m</text><text xml:space="preserve" font-family="AvenirNext-Medium" font-size="31.0" fill="#FEFFFF" transform="matrix(1.00, 0.00, -0.00, -1.00, 2304.0, 541.0)">e</text><text xml:space="preserve" font-family="AvenirNext-Medium" font-size="31.0" fill="#FEFFFF" transform="matrix(1.00, 0.00, -0.00, -1.00, 2321.8, 541.0)">t</text><text xml:space="preserve" font-family="AvenirNext-Medium" font-size="31.0" fill="#FEFFFF" transform="matrix(1.00, 0.00, -0.00, -1.00, 2332.0, 541.0)">h</text><text xml:space="preserve" font-family="AvenirNext-Medium" font-size="31.0" fill="#FEFFFF" transform="matrix(1.00, 0.00, -0.00, -1.00, 2350.1, 541.0)">i</text><text xml:space="preserve" font-family="AvenirNext-Medium" font-size="31.0" fill="#FEFFFF" transform="matrix(1.00, 0.00, -0.00, -1.00, 2358.1, 541.0)">n</text><text xml:space="preserve" font-family="AvenirNext-Medium" font-size="31.0" fill="#FEFFFF" transform="matrix(1.00, 0.00, -0.00, -1.00, 2376.2, 541.0)">g</text><text xml:space="preserve" font-family="AvenirNext-Medium" font-size="31.0" fill="#FEFFFF" transform="matrix(1.00, 0.00, -0.00, -1.00, 2395.8, 541.0)"> </text><text xml:space="preserve" font-family="AvenirNext-Medium" font-size="31.0" fill="#FEFFFF" transform="matrix(1.00, 0.00, -0.00, -1.00, 2403.5, 541.0)">u</text><text xml:space="preserve" font-family="AvenirNext-Medium" font-size="31.0" fill="#FEFFFF" transform="matrix(1.00, 0.00, -0.00, -1.00, 2421.6, 541.0)">n</text><text xml:space="preserve" font-family="AvenirNext-Medium" font-size="31.0" fill="#FEFFFF" transform="matrix(1.00, 0.00, -0.00, -1.00, 2439.6, 541.0)">d</text><text xml:space="preserve" font-family="AvenirNext-Medium" font-size="31.0" fill="#FEFFFF" transform="matrix(1.00, 0.00, -0.00, -1.00, 2459.3, 541.0)">e</text><text xml:space="preserve" font-family="AvenirNext-Medium" font-size="31.0" fill="#FEFFFF" transform="matrix(1.00, 0.00, -0.00, -1.00, 2477.1, 541.0)">r</text><text xml:space="preserve" font-family="AvenirNext-Medium" font-size="31.0" fill="#FEFFFF" transform="matrix(1.00, 0.00, -0.00, -1.00, 2488.3, 541.0)"> </text><text xml:space="preserve" font-family="AvenirNext-Medium" font-size="31.0" fill="#FEFFFF" transform="matrix(1.00, 0.00, -0.00, -1.00, 2496.0, 541.0)">h</text><text xml:space="preserve" font-family="AvenirNext-Medium" font-size="31.0" fill="#FEFFFF" transform="matrix(1.00, 0.00, -0.00, -1.00, 2514.1, 541.0)">i</text><text xml:space="preserve" font-family="AvenirNext-Medium" font-size="31.0" fill="#FEFFFF" transform="matrix(1.00, 0.00, -0.00, -1.00, 2522.2, 541.0)">s</text><text xml:space="preserve" font-family="AvenirNext-Medium" font-size="31.0" fill="#FEFFFF" transform="matrix(1.00, 0.00, -0.00, -1.00, 2535.9, 541.0)"> </text><text xml:space="preserve" font-family="AvenirNext-Medium" font-size="31.0" fill="#FEFFFF" transform="matrix(1.00, 0.00, -0.00, -1.00, 2543.7, 541.0)">b</text><text xml:space="preserve" font-family="AvenirNext-Medium" font-size="31.0" fill="#FEFFFF" transform="matrix(1.00, 0.00, -0.00, -1.00, 2563.4, 541.0)">r</text><text xml:space="preserve" font-family="AvenirNext-Medium" font-size="31.0" fill="#FEFFFF" transform="matrix(1.00, 0.00, -0.00, -1.00, 2574.1, 541.0)">e</text><text xml:space="preserve" font-family="AvenirNext-Medium" font-size="31.0" fill="#FEFFFF" transform="matrix(1.00, 0.00, -0.00, -1.00, 2591.6, 541.0)">a</text><text xml:space="preserve" font-family="AvenirNext-Medium" font-size="31.0" fill="#FEFFFF" transform="matrix(1.00, 0.00, -0.00, -1.00, 2608.1, 541.0)">t</text><text xml:space="preserve" font-family="AvenirNext-Medium" font-size="31.0" fill="#FEFFFF" transform="matrix(1.00, 0.00, -0.00, -1.00, 2618.3, 541.0)">h</text><text xml:space="preserve" font-family="AvenirNext-Medium" font-size="31.0" fill="#FEFFFF" transform="matrix(1.00, 0.00, -0.00, -1.00, 2636.4, 541.0)">.</text><text xml:space="preserve" font-family="AvenirNext-Medium" font-size="31.0" fill="#FEFFFF" transform="matrix(1.00, 0.00, -0.00, -1.00, 2643.6, 541.0)"> </text><text xml:space="preserve" font-family="AvenirNext-DemiBold" font-weight="bold" font-size="47.0" fill="#FEFFFF" transform="matrix(1.00, 0.00, -0.00, -1.00, 2099.0, 804.0)">T</text><text xml:space="preserve" font-family="AvenirNext-DemiBold" font-weight="bold" font-size="47.0" fill="#FEFFFF" transform="matrix(1.00, 0.00, -0.00, -1.00, 2124.8, 804.0)">h</text><text xml:space="preserve" font-family="AvenirNext-DemiBold" font-weight="bold" font-size="47.0" fill="#FEFFFF" transform="matrix(1.00, 0.00, -0.00, -1.00, 2152.3, 804.0)">e</text><text xml:space="preserve" font-family="AvenirNext-DemiBold" font-weight="bold" font-size="47.0" fill="#FEFFFF" transform="matrix(1.00, 0.00, -0.00, -1.00, 2179.3, 804.0)"> </text><text xml:space="preserve" font-family="AvenirNext-DemiBold" font-weight="bold" font-size="47.0" fill="#FEFFFF" transform="matrix(1.00, 0.00, -0.00, -1.00, 2190.5, 804.0)">W</text><text xml:space="preserve" font-family="AvenirNext-DemiBold" font-weight="bold" font-size="47.0" fill="#FEFFFF" transform="matrix(1.00, 0.00, -0.00, -1.00, 2236.0, 804.0)">e</text><text xml:space="preserve" font-family="AvenirNext-DemiBold" font-weight="bold" font-size="47.0" fill="#FEFFFF" transform="matrix(1.00, 0.00, -0.00, -1.00, 2262.9, 804.0)">l</text><text xml:space="preserve" font-family="AvenirNext-DemiBold" font-weight="bold" font-size="47.0" fill="#FEFFFF" transform="matrix(1.00, 0.00, -0.00, -1.00, 2275.5, 804.0)">c</text><text xml:space="preserve" font-family="AvenirNext-DemiBold" font-weight="bold" font-size="47.0" fill="#FEFFFF" transform="matrix(1.00, 0.00, -0.00, -1.00, 2298.5, 804.0)">o</text><text xml:space="preserve" font-family="AvenirNext-DemiBold" font-weight="bold" font-size="47.0" fill="#FEFFFF" transform="matrix(1.00, 0.00, -0.00, -1.00, 2327.1, 804.0)">m</text><text xml:space="preserve" font-family="AvenirNext-DemiBold" font-weight="bold" font-size="47.0" fill="#FEFFFF" transform="matrix(1.00, 0.00, -0.00, -1.00, 2369.0, 804.0)">i</text><text xml:space="preserve" font-family="AvenirNext-DemiBold" font-weight="bold" font-size="47.0" fill="#FEFFFF" transform="matrix(1.00, 0.00, -0.00, -1.00, 2381.6, 804.0)">n</text><text xml:space="preserve" font-family="AvenirNext-DemiBold" font-weight="bold" font-size="47.0" fill="#FEFFFF" transform="matrix(1.00, 0.00, -0.00, -1.00, 2408.9, 804.0)">g</text><g><clipPath id="clip-40"><path d="M 2103.0 132.7 L 2363.0 132.7 L 2363.0 238.2 L 2103.0 238.2 Z M 2103.0 132.7 "></path></clipPath><g clip-path="url(#clip-40)"><path d="M 2104.0 237.2 L 2362.0 237.2 L 2362.0 133.7 L 2104.0 133.7 Z M 2104.0 237.2 " fill="#000000"></path></g></g><g><clipPath id="clip-41"><path d="M 2130.8 142.6 L 2336.1 142.6 L 2336.1 224.9 L 2130.8 224.9 Z M 2130.8 142.6 "></path></clipPath><g clip-path="url(#clip-41)"><text xml:space="preserve" font-family="AvenirNext-Bold" font-weight="bold" font-size="40.0" fill="#FEFFFF" transform="matrix(1.00, 0.00, -0.00, -1.00, 2145.0, 171.0)">C</text><text xml:space="preserve" font-family="AvenirNext-Bold" font-weight="bold" font-size="40.0" fill="#FEFFFF" transform="matrix(1.00, 0.00, -0.00, -1.00, 2172.4, 171.0)">o</text><text xml:space="preserve" font-family="AvenirNext-Bold" font-weight="bold" font-size="40.0" fill="#FEFFFF" transform="matrix(1.00, 0.00, -0.00, -1.00, 2197.6, 171.0)">n</text><text xml:space="preserve" font-family="AvenirNext-Bold" font-weight="bold" font-size="40.0" fill="#FEFFFF" transform="matrix(1.00, 0.00, -0.00, -1.00, 2222.3, 171.0)">t</text><text xml:space="preserve" font-family="AvenirNext-Bold" font-weight="bold" font-size="40.0" fill="#FEFFFF" transform="matrix(1.00, 0.00, -0.00, -1.00, 2237.2, 171.0)">i</text><text xml:space="preserve" font-family="AvenirNext-Bold" font-weight="bold" font-size="40.0" fill="#FEFFFF" transform="matrix(1.00, 0.00, -0.00, -1.00, 2249.0, 171.0)">n</text><text xml:space="preserve" font-family="AvenirNext-Bold" font-weight="bold" font-size="40.0" fill="#FEFFFF" transform="matrix(1.00, 0.00, -0.00, -1.00, 2273.6, 171.0)">u</text><text xml:space="preserve" font-family="AvenirNext-Bold" font-weight="bold" font-size="40.0" fill="#FEFFFF" transform="matrix(1.00, 0.00, -0.00, -1.00, 2298.2, 171.0)">e</text></g></g><g><clipPath id="clip-42"><path d="M 2098.8 125.6 L 2368.2 125.6 L 2368.2 241.9 L 2098.8 241.9 Z M 2098.8 125.6 "></path></clipPath><g clip-path="url(#clip-42)"><path d="M 0.0 0.0 L 262.4 0.0 L 262.4 109.3 L 0.0 109.3 Z M 0.0 0.0 " fill="none" stroke="#FEFFFE" stroke-width="5.00" transform="matrix(1.00, 0.00, 0.00, -1.00, 2102.3, 238.4)"></path></g></g></g></svg>