<?xml version="1.0" encoding="UTF-8"?><svg xmlns="http://www.w3.org/2000/svg" xmlns:xlink="http://www.w3.org/1999/xlink" clip-rule="evenodd" stroke-miterlimit="4.00" viewBox="0 0 600 329"><desc>SVG generated by Keynote</desc><defs></defs><g transform="matrix(1.00, 0.00, -0.00, -1.00, 0.0, 329.0)"><text xml:space="preserve" font-family="AvenirNext-Medium" font-size="31.0" fill="#FEFFFF" transform="matrix(1.00, 0.00, -0.00, -1.00, 3.0, 303.0)">A</text><text xml:space="preserve" font-family="AvenirNext-Medium" font-size="31.0" fill="#FEFFFF" transform="matrix(1.00, 0.00, -0.00, -1.00, 25.0, 303.0)">s</text><text xml:space="preserve" font-family="AvenirNext-Medium" font-size="31.0" fill="#FEFFFF" transform="matrix(1.00, 0.00, -0.00, -1.00, 38.8, 303.0)"> </text><text xml:space="preserve" font-family="AvenirNext-Medium" font-size="31.0" fill="#FEFFFF" transform="matrix(1.00, 0.00, -0.00, -1.00, 46.6, 303.0)">I</text><text xml:space="preserve" font-family="AvenirNext-Medium" font-size="31.0" fill="#FEFFFF" transform="matrix(1.00, 0.00, -0.00, -1.00, 55.0, 303.0)"> </text><text xml:space="preserve" font-family="AvenirNext-Medium" font-size="31.0" fill="#FEFFFF" transform="matrix(1.00, 0.00, -0.00, -1.00, 62.7, 303.0)">e</text><text xml:space="preserve" font-family="AvenirNext-Medium" font-size="31.0" fill="#FEFFFF" transform="matrix(1.00, 0.00, -0.00, -1.00, 80.5, 303.0)">n</text><text xml:space="preserve" font-family="AvenirNext-Medium" font-size="31.0" fill="#FEFFFF" transform="matrix(1.00, 0.00, -0.00, -1.00, 98.5, 303.0)">t</text><text xml:space="preserve" font-family="AvenirNext-Medium" font-size="31.0" fill="#FEFFFF" transform="matrix(1.00, 0.00, -0.00, -1.00, 108.7, 303.0)">e</text><text xml:space="preserve" font-family="AvenirNext-Medium" font-size="31.0" fill="#FEFFFF" transform="matrix(1.00, 0.00, -0.00, -1.00, 126.5, 303.0)">r</text><text xml:space="preserve" font-family="AvenirNext-Medium" font-size="31.0" fill="#FEFFFF" transform="matrix(1.00, 0.00, -0.00, -1.00, 137.1, 303.0)">e</text><text xml:space="preserve" font-family="AvenirNext-Medium" font-size="31.0" fill="#FEFFFF" transform="matrix(1.00, 0.00, -0.00, -1.00, 154.9, 303.0)">d</text><text xml:space="preserve" font-family="AvenirNext-Medium" font-size="31.0" fill="#FEFFFF" transform="matrix(1.00, 0.00, -0.00, -1.00, 174.6, 303.0)"> </text><text xml:space="preserve" font-family="AvenirNext-Medium" font-size="31.0" fill="#FEFFFF" transform="matrix(1.00, 0.00, -0.00, -1.00, 182.3, 303.0)">t</text><text xml:space="preserve" font-family="AvenirNext-Medium" font-size="31.0" fill="#FEFFFF" transform="matrix(1.00, 0.00, -0.00, -1.00, 192.5, 303.0)">h</text><text xml:space="preserve" font-family="AvenirNext-Medium" font-size="31.0" fill="#FEFFFF" transform="matrix(1.00, 0.00, -0.00, -1.00, 210.6, 303.0)">e</text><text xml:space="preserve" font-family="AvenirNext-Medium" font-size="31.0" fill="#FEFFFF" transform="matrix(1.00, 0.00, -0.00, -1.00, 228.4, 303.0)"> </text><text xml:space="preserve" font-family="AvenirNext-Medium" font-size="31.0" fill="#FEFFFF" transform="matrix(1.00, 0.00, -0.00, -1.00, 236.2, 303.0)">g</text><text xml:space="preserve" font-family="AvenirNext-Medium" font-size="31.0" fill="#FEFFFF" transform="matrix(1.00, 0.00, -0.00, -1.00, 255.7, 303.0)">r</text><text xml:space="preserve" font-family="AvenirNext-Medium" font-size="31.0" fill="#FEFFFF" transform="matrix(1.00, 0.00, -0.00, -1.00, 266.6, 303.0)">a</text><text xml:space="preserve" font-family="AvenirNext-Medium" font-size="31.0" fill="#FEFFFF" transform="matrix(1.00, 0.00, -0.00, -1.00, 283.4, 303.0)">n</text><text xml:space="preserve" font-family="AvenirNext-Medium" font-size="31.0" fill="#FEFFFF" transform="matrix(1.00, 0.00, -0.00, -1.00, 301.4, 303.0)">d</text><text xml:space="preserve" font-family="AvenirNext-Medium" font-size="31.0" fill="#FEFFFF" transform="matrix(1.00, 0.00, -0.00, -1.00, 321.1, 303.0)"> </text><text xml:space="preserve" font-family="AvenirNext-Medium" font-size="31.0" fill="#FEFFFF" transform="matrix(1.00, 0.00, -0.00, -1.00, 328.8, 303.0)">h</text><text xml:space="preserve" font-family="AvenirNext-Medium" font-size="31.0" fill="#FEFFFF" transform="matrix(1.00, 0.00, -0.00, -1.00, 346.9, 303.0)">a</text><text xml:space="preserve" font-family="AvenirNext-Medium" font-size="31.0" fill="#FEFFFF" transform="matrix(1.00, 0.00, -0.00, -1.00, 363.7, 303.0)">l</text><text xml:space="preserve" font-family="AvenirNext-Medium" font-size="31.0" fill="#FEFFFF" transform="matrix(1.00, 0.00, -0.00, -1.00, 371.8, 303.0)">l</text><text xml:space="preserve" font-family="AvenirNext-Medium" font-size="31.0" fill="#FEFFFF" transform="matrix(1.00, 0.00, -0.00, -1.00, 379.9, 303.0)"> </text><text xml:space="preserve" font-family="AvenirNext-Medium" font-size="31.0" fill="#FEFFFF" transform="matrix(1.00, 0.00, -0.00, -1.00, 387.6, 303.0)">I</text><text xml:space="preserve" font-family="AvenirNext-Medium" font-size="31.0" fill="#FEFFFF" transform="matrix(1.00, 0.00, -0.00, -1.00, 396.0, 303.0)"> </text><text xml:space="preserve" font-family="AvenirNext-Medium" font-size="31.0" fill="#FEFFFF" transform="matrix(1.00, 0.00, -0.00, -1.00, 403.8, 303.0)">h</text><text xml:space="preserve" font-family="AvenirNext-Medium" font-size="31.0" fill="#FEFFFF" transform="matrix(1.00, 0.00, -0.00, -1.00, 421.9, 303.0)">e</text><text xml:space="preserve" font-family="AvenirNext-Medium" font-size="31.0" fill="#FEFFFF" transform="matrix(1.00, 0.00, -0.00, -1.00, 439.4, 303.0)">a</text><text xml:space="preserve" font-family="AvenirNext-Medium" font-size="31.0" fill="#FEFFFF" transform="matrix(1.00, 0.00, -0.00, -1.00, 456.3, 303.0)">r</text><text xml:space="preserve" font-family="AvenirNext-Medium" font-size="31.0" fill="#FEFFFF" transform="matrix(1.00, 0.00, -0.00, -1.00, 466.9, 303.0)">d</text><text xml:space="preserve" font-family="AvenirNext-Medium" font-size="31.0" fill="#FEFFFF" transform="matrix(1.00, 0.00, -0.00, -1.00, 486.6, 303.0)"> </text><text xml:space="preserve" font-family="AvenirNext-Medium" font-size="31.0" fill="#FEFFFF" transform="matrix(1.00, 0.00, -0.00, -1.00, 494.4, 303.0)">a</text><text xml:space="preserve" font-family="AvenirNext-Medium" font-size="31.0" fill="#FEFFFF" transform="matrix(1.00, 0.00, -0.00, -1.00, 511.2, 303.0)"> </text><text xml:space="preserve" font-family="AvenirNext-Medium" font-size="31.0" fill="#FEFFFF" transform="matrix(1.00, 0.00, -0.00, -1.00, 518.9, 303.0)">s</text><text xml:space="preserve" font-family="AvenirNext-Medium" font-size="31.0" fill="#FEFFFF" transform="matrix(1.00, 0.00, -0.00, -1.00, 532.7, 303.0)">h</text><text xml:space="preserve" font-family="AvenirNext-Medium" font-size="31.0" fill="#FEFFFF" transform="matrix(1.00, 0.00, -0.00, -1.00, 550.8, 303.0)">a</text><text xml:space="preserve" font-family="AvenirNext-Medium" font-size="31.0" fill="#FEFFFF" transform="matrix(1.00, 0.00, -0.00, -1.00, 567.6, 303.0)">r</text><text xml:space="preserve" font-family="AvenirNext-Medium" font-size="31.0" fill="#FEFFFF" transform="matrix(1.00, 0.00, -0.00, -1.00, 578.8, 303.0)">p</text><text xml:space="preserve" font-family="AvenirNext-Medium" font-size="31.0" fill="#FEFFFF" transform="matrix(1.00, 0.00, -0.00, -1.00, 598.4, 303.0)"> </text><text xml:space="preserve" font-family="AvenirNext-Medium" font-size="31.0" fill="#FEFFFF" transform="matrix(1.00, 0.00, -0.00, -1.00, 3.0, 261.0)">‘</text><text xml:space="preserve" font-family="AvenirNext-Medium" font-size="31.0" fill="#FEFFFF" transform="matrix(1.00, 0.00, -0.00, -1.00, 9.3, 261.0)">c</text><text xml:space="preserve" font-family="AvenirNext-Medium" font-size="31.0" fill="#FEFFFF" transform="matrix(1.00, 0.00, -0.00, -1.00, 24.6, 261.0)">l</text><text xml:space="preserve" font-family="AvenirNext-Medium" font-size="31.0" fill="#FEFFFF" transform="matrix(1.00, 0.00, -0.00, -1.00, 32.7, 261.0)">i</text><text xml:space="preserve" font-family="AvenirNext-Medium" font-size="31.0" fill="#FEFFFF" transform="matrix(1.00, 0.00, -0.00, -1.00, 40.7, 261.0)">c</text><text xml:space="preserve" font-family="AvenirNext-Medium" font-size="31.0" fill="#FEFFFF" transform="matrix(1.00, 0.00, -0.00, -1.00, 56.0, 261.0)">k</text><text xml:space="preserve" font-family="AvenirNext-Medium" font-size="31.0" fill="#FEFFFF" transform="matrix(1.00, 0.00, -0.00, -1.00, 72.4, 261.0)">’</text><text xml:space="preserve" font-family="AvenirNext-Medium" font-size="31.0" fill="#FEFFFF" transform="matrix(1.00, 0.00, -0.00, -1.00, 80.0, 261.0)"> </text><text xml:space="preserve" font-family="AvenirNext-Medium" font-size="31.0" fill="#FEFFFF" transform="matrix(1.00, 0.00, -0.00, -1.00, 87.8, 261.0)">a</text><text xml:space="preserve" font-family="AvenirNext-Medium" font-size="31.0" fill="#FEFFFF" transform="matrix(1.00, 0.00, -0.00, -1.00, 104.6, 261.0)">n</text><text xml:space="preserve" font-family="AvenirNext-Medium" font-size="31.0" fill="#FEFFFF" transform="matrix(1.00, 0.00, -0.00, -1.00, 122.6, 261.0)">d</text><text xml:space="preserve" font-family="AvenirNext-Medium" font-size="31.0" fill="#FEFFFF" transform="matrix(1.00, 0.00, -0.00, -1.00, 142.3, 261.0)"> </text><text xml:space="preserve" font-family="AvenirNext-Medium" font-size="31.0" fill="#FEFFFF" transform="matrix(1.00, 0.00, -0.00, -1.00, 150.0, 261.0)">t</text><text xml:space="preserve" font-family="AvenirNext-Medium" font-size="31.0" fill="#FEFFFF" transform="matrix(1.00, 0.00, -0.00, -1.00, 160.2, 261.0)">h</text><text xml:space="preserve" font-family="AvenirNext-Medium" font-size="31.0" fill="#FEFFFF" transform="matrix(1.00, 0.00, -0.00, -1.00, 178.3, 261.0)">e</text><text xml:space="preserve" font-family="AvenirNext-Medium" font-size="31.0" fill="#FEFFFF" transform="matrix(1.00, 0.00, -0.00, -1.00, 196.1, 261.0)"> </text><text xml:space="preserve" font-family="AvenirNext-Medium" font-size="31.0" fill="#FEFFFF" transform="matrix(1.00, 0.00, -0.00, -1.00, 203.8, 261.0)">l</text><text xml:space="preserve" font-family="AvenirNext-Medium" font-size="31.0" fill="#FEFFFF" transform="matrix(1.00, 0.00, -0.00, -1.00, 211.9, 261.0)">i</text><text xml:space="preserve" font-family="AvenirNext-Medium" font-size="31.0" fill="#FEFFFF" transform="matrix(1.00, 0.00, -0.00, -1.00, 219.9, 261.0)">g</text><text xml:space="preserve" font-family="AvenirNext-Medium" font-size="31.0" fill="#FEFFFF" transform="matrix(1.00, 0.00, -0.00, -1.00, 239.5, 261.0)">h</text><text xml:space="preserve" font-family="AvenirNext-Medium" font-size="31.0" fill="#FEFFFF" transform="matrix(1.00, 0.00, -0.00, -1.00, 257.6, 261.0)">t</text><text xml:space="preserve" font-family="AvenirNext-Medium" font-size="31.0" fill="#FEFFFF" transform="matrix(1.00, 0.00, -0.00, -1.00, 267.8, 261.0)">s</text><text xml:space="preserve" font-family="AvenirNext-Medium" font-size="31.0" fill="#FEFFFF" transform="matrix(1.00, 0.00, -0.00, -1.00, 281.6, 261.0)"> </text><text xml:space="preserve" font-family="AvenirNext-Medium" font-size="31.0" fill="#FEFFFF" transform="matrix(1.00, 0.00, -0.00, -1.00, 289.3, 261.0)">ﬁ</text><text xml:space="preserve" font-family="AvenirNext-Medium" font-size="31.0" fill="#FEFFFF" transform="matrix(1.00, 0.00, -0.00, -1.00, 307.1, 261.0)">l</text><text xml:space="preserve" font-family="AvenirNext-Medium" font-size="31.0" fill="#FEFFFF" transform="matrix(1.00, 0.00, -0.00, -1.00, 315.2, 261.0)">l</text><text xml:space="preserve" font-family="AvenirNext-Medium" font-size="31.0" fill="#FEFFFF" transform="matrix(1.00, 0.00, -0.00, -1.00, 323.3, 261.0)">e</text><text xml:space="preserve" font-family="AvenirNext-Medium" font-size="31.0" fill="#FEFFFF" transform="matrix(1.00, 0.00, -0.00, -1.00, 341.0, 261.0)">d</text><text xml:space="preserve" font-family="AvenirNext-Medium" font-size="31.0" fill="#FEFFFF" transform="matrix(1.00, 0.00, -0.00, -1.00, 360.7, 261.0)"> </text><text xml:space="preserve" font-family="AvenirNext-Medium" font-size="31.0" fill="#FEFFFF" transform="matrix(1.00, 0.00, -0.00, -1.00, 368.5, 261.0)">t</text><text xml:space="preserve" font-family="AvenirNext-Medium" font-size="31.0" fill="#FEFFFF" transform="matrix(1.00, 0.00, -0.00, -1.00, 378.7, 261.0)">h</text><text xml:space="preserve" font-family="AvenirNext-Medium" font-size="31.0" fill="#FEFFFF" transform="matrix(1.00, 0.00, -0.00, -1.00, 396.8, 261.0)">e</text><text xml:space="preserve" font-family="AvenirNext-Medium" font-size="31.0" fill="#FEFFFF" transform="matrix(1.00, 0.00, -0.00, -1.00, 414.5, 261.0)"> </text><text xml:space="preserve" font-family="AvenirNext-Medium" font-size="31.0" fill="#FEFFFF" transform="matrix(1.00, 0.00, -0.00, -1.00, 422.3, 261.0)">s</text><text xml:space="preserve" font-family="AvenirNext-Medium" font-size="31.0" fill="#FEFFFF" transform="matrix(1.00, 0.00, -0.00, -1.00, 436.0, 261.0)">t</text><text xml:space="preserve" font-family="AvenirNext-Medium" font-size="31.0" fill="#FEFFFF" transform="matrix(1.00, 0.00, -0.00, -1.00, 446.2, 261.0)">a</text><text xml:space="preserve" font-family="AvenirNext-Medium" font-size="31.0" fill="#FEFFFF" transform="matrix(1.00, 0.00, -0.00, -1.00, 463.0, 261.0)">i</text><text xml:space="preserve" font-family="AvenirNext-Medium" font-size="31.0" fill="#FEFFFF" transform="matrix(1.00, 0.00, -0.00, -1.00, 471.1, 261.0)">r</text><text xml:space="preserve" font-family="AvenirNext-Medium" font-size="31.0" fill="#FEFFFF" transform="matrix(1.00, 0.00, -0.00, -1.00, 481.7, 261.0)">c</text><text xml:space="preserve" font-family="AvenirNext-Medium" font-size="31.0" fill="#FEFFFF" transform="matrix(1.00, 0.00, -0.00, -1.00, 497.0, 261.0)">a</text><text xml:space="preserve" font-family="AvenirNext-Medium" font-size="31.0" fill="#FEFFFF" transform="matrix(1.00, 0.00, -0.00, -1.00, 513.8, 261.0)">s</text><text xml:space="preserve" font-family="AvenirNext-Medium" font-size="31.0" fill="#FEFFFF" transform="matrix(1.00, 0.00, -0.00, -1.00, 527.6, 261.0)">e</text><text xml:space="preserve" font-family="AvenirNext-Medium" font-size="31.0" fill="#FEFFFF" transform="matrix(1.00, 0.00, -0.00, -1.00, 545.4, 261.0)"> </text><text xml:space="preserve" font-family="AvenirNext-Medium" font-size="31.0" fill="#FEFFFF" transform="matrix(1.00, 0.00, -0.00, -1.00, 3.0, 219.0)">w</text><text xml:space="preserve" font-family="AvenirNext-Medium" font-size="31.0" fill="#FEFFFF" transform="matrix(1.00, 0.00, -0.00, -1.00, 27.0, 219.0)">i</text><text xml:space="preserve" font-family="AvenirNext-Medium" font-size="31.0" fill="#FEFFFF" transform="matrix(1.00, 0.00, -0.00, -1.00, 35.0, 219.0)">t</text><text xml:space="preserve" font-family="AvenirNext-Medium" font-size="31.0" fill="#FEFFFF" transform="matrix(1.00, 0.00, -0.00, -1.00, 45.2, 219.0)">h</text><text xml:space="preserve" font-family="AvenirNext-Medium" font-size="31.0" fill="#FEFFFF" transform="matrix(1.00, 0.00, -0.00, -1.00, 63.3, 219.0)"> </text><text xml:space="preserve" font-family="AvenirNext-Medium" font-size="31.0" fill="#FEFFFF" transform="matrix(1.00, 0.00, -0.00, -1.00, 71.0, 219.0)">l</text><text xml:space="preserve" font-family="AvenirNext-Medium" font-size="31.0" fill="#FEFFFF" transform="matrix(1.00, 0.00, -0.00, -1.00, 79.1, 219.0)">i</text><text xml:space="preserve" font-family="AvenirNext-Medium" font-size="31.0" fill="#FEFFFF" transform="matrix(1.00, 0.00, -0.00, -1.00, 87.1, 219.0)">g</text><text xml:space="preserve" font-family="AvenirNext-Medium" font-size="31.0" fill="#FEFFFF" transform="matrix(1.00, 0.00, -0.00, -1.00, 106.7, 219.0)">h</text><text xml:space="preserve" font-family="AvenirNext-Medium" font-size="31.0" fill="#FEFFFF" transform="matrix(1.00, 0.00, -0.00, -1.00, 124.8, 219.0)">t</text><text xml:space="preserve" font-family="AvenirNext-Medium" font-size="31.0" fill="#FEFFFF" transform="matrix(1.00, 0.00, -0.00, -1.00, 135.0, 219.0)">.</text><text xml:space="preserve" font-family="AvenirNext-Medium" font-size="31.0" fill="#FEFFFF" transform="matrix(1.00, 0.00, -0.00, -1.00, 142.2, 219.0)"> </text><text xml:space="preserve" font-family="AvenirNext-Medium" font-size="31.0" fill="#FEFFFF" transform="matrix(1.00, 0.00, -0.00, -1.00, 149.9, 219.0)"> </text><text xml:space="preserve" font-family="AvenirNext-Medium" font-size="31.0" fill="#FEFFFF" transform="matrix(1.00, 0.00, -0.00, -1.00, 3.0, 135.0)">“</text><text xml:space="preserve" font-family="AvenirNext-Medium" font-size="31.0" fill="#FEFFFF" transform="matrix(1.00, 0.00, -0.00, -1.00, 16.8, 135.0)">W</text><text xml:space="preserve" font-family="AvenirNext-Medium" font-size="31.0" fill="#FEFFFF" transform="matrix(1.00, 0.00, -0.00, -1.00, 47.4, 135.0)">h</text><text xml:space="preserve" font-family="AvenirNext-Medium" font-size="31.0" fill="#FEFFFF" transform="matrix(1.00, 0.00, -0.00, -1.00, 65.5, 135.0)">o</text><text xml:space="preserve" font-family="AvenirNext-Medium" font-size="31.0" fill="#FEFFFF" transform="matrix(1.00, 0.00, -0.00, -1.00, 84.4, 135.0)">’</text><text xml:space="preserve" font-family="AvenirNext-Medium" font-size="31.0" fill="#FEFFFF" transform="matrix(1.00, 0.00, -0.00, -1.00, 90.5, 135.0)">s</text><text xml:space="preserve" font-family="AvenirNext-Medium" font-size="31.0" fill="#FEFFFF" transform="matrix(1.00, 0.00, -0.00, -1.00, 104.3, 135.0)"> </text><text xml:space="preserve" font-family="AvenirNext-Medium" font-size="31.0" fill="#FEFFFF" transform="matrix(1.00, 0.00, -0.00, -1.00, 112.1, 135.0)">t</text><text xml:space="preserve" font-family="AvenirNext-Medium" font-size="31.0" fill="#FEFFFF" transform="matrix(1.00, 0.00, -0.00, -1.00, 122.3, 135.0)">h</text><text xml:space="preserve" font-family="AvenirNext-Medium" font-size="31.0" fill="#FEFFFF" transform="matrix(1.00, 0.00, -0.00, -1.00, 140.4, 135.0)">e</text><text xml:space="preserve" font-family="AvenirNext-Medium" font-size="31.0" fill="#FEFFFF" transform="matrix(1.00, 0.00, -0.00, -1.00, 158.1, 135.0)">r</text><text xml:space="preserve" font-family="AvenirNext-Medium" font-size="31.0" fill="#FEFFFF" transform="matrix(1.00, 0.00, -0.00, -1.00, 168.8, 135.0)">e</text><text xml:space="preserve" font-family="AvenirNext-Medium" font-size="31.0" fill="#FEFFFF" transform="matrix(1.00, 0.00, -0.00, -1.00, 186.6, 135.0)">?</text><text xml:space="preserve" font-family="AvenirNext-Medium" font-size="31.0" fill="#FEFFFF" transform="matrix(1.00, 0.00, -0.00, -1.00, 202.1, 135.0)">”</text><text xml:space="preserve" font-family="AvenirNext-Medium" font-size="31.0" fill="#FEFFFF" transform="matrix(1.00, 0.00, -0.00, -1.00, 215.3, 135.0)"> </text><text xml:space="preserve" font-family="AvenirNext-Medium" font-size="31.0" fill="#FEFFFF" transform="matrix(1.00, 0.00, -0.00, -1.00, 223.0, 135.0)">I</text><text xml:space="preserve" font-family="AvenirNext-Medium" font-size="31.0" fill="#FEFFFF" transform="matrix(1.00, 0.00, -0.00, -1.00, 231.4, 135.0)"> </text><text xml:space="preserve" font-family="AvenirNext-Medium" font-size="31.0" fill="#FEFFFF" transform="matrix(1.00, 0.00, -0.00, -1.00, 239.2, 135.0)">v</text><text xml:space="preserve" font-family="AvenirNext-Medium" font-size="31.0" fill="#FEFFFF" transform="matrix(1.00, 0.00, -0.00, -1.00, 254.8, 135.0)">e</text><text xml:space="preserve" font-family="AvenirNext-Medium" font-size="31.0" fill="#FEFFFF" transform="matrix(1.00, 0.00, -0.00, -1.00, 272.5, 135.0)">n</text><text xml:space="preserve" font-family="AvenirNext-Medium" font-size="31.0" fill="#FEFFFF" transform="matrix(1.00, 0.00, -0.00, -1.00, 290.6, 135.0)">t</text><text xml:space="preserve" font-family="AvenirNext-Medium" font-size="31.0" fill="#FEFFFF" transform="matrix(1.00, 0.00, -0.00, -1.00, 300.8, 135.0)">u</text><text xml:space="preserve" font-family="AvenirNext-Medium" font-size="31.0" fill="#FEFFFF" transform="matrix(1.00, 0.00, -0.00, -1.00, 318.8, 135.0)">r</text><text xml:space="preserve" font-family="AvenirNext-Medium" font-size="31.0" fill="#FEFFFF" transform="matrix(1.00, 0.00, -0.00, -1.00, 329.5, 135.0)">e</text><text xml:space="preserve" font-family="AvenirNext-Medium" font-size="31.0" fill="#FEFFFF" transform="matrix(1.00, 0.00, -0.00, -1.00, 347.3, 135.0)">d</text><text xml:space="preserve" font-family="AvenirNext-Medium" font-size="31.0" fill="#FEFFFF" transform="matrix(1.00, 0.00, -0.00, -1.00, 366.9, 135.0)">,</text><text xml:space="preserve" font-family="AvenirNext-Medium" font-size="31.0" fill="#FEFFFF" transform="matrix(1.00, 0.00, -0.00, -1.00, 374.1, 135.0)"> </text><text xml:space="preserve" font-family="AvenirNext-Medium" font-size="31.0" fill="#FEFFFF" transform="matrix(1.00, 0.00, -0.00, -1.00, 381.8, 135.0)">m</text><text xml:space="preserve" font-family="AvenirNext-Medium" font-size="31.0" fill="#FEFFFF" transform="matrix(1.00, 0.00, -0.00, -1.00, 409.3, 135.0)">y</text><text xml:space="preserve" font-family="AvenirNext-Medium" font-size="31.0" fill="#FEFFFF" transform="matrix(1.00, 0.00, -0.00, -1.00, 424.9, 135.0)"> </text><text xml:space="preserve" font-family="AvenirNext-Medium" font-size="31.0" fill="#FEFFFF" transform="matrix(1.00, 0.00, -0.00, -1.00, 432.7, 135.0)">v</text><text xml:space="preserve" font-family="AvenirNext-Medium" font-size="31.0" fill="#FEFFFF" transform="matrix(1.00, 0.00, -0.00, -1.00, 448.3, 135.0)">o</text><text xml:space="preserve" font-family="AvenirNext-Medium" font-size="31.0" fill="#FEFFFF" transform="matrix(1.00, 0.00, -0.00, -1.00, 467.2, 135.0)">i</text><text xml:space="preserve" font-family="AvenirNext-Medium" font-size="31.0" fill="#FEFFFF" transform="matrix(1.00, 0.00, -0.00, -1.00, 475.3, 135.0)">c</text><text xml:space="preserve" font-family="AvenirNext-Medium" font-size="31.0" fill="#FEFFFF" transform="matrix(1.00, 0.00, -0.00, -1.00, 490.6, 135.0)">e</text><text xml:space="preserve" font-family="AvenirNext-Medium" font-size="31.0" fill="#FEFFFF" transform="matrix(1.00, 0.00, -0.00, -1.00, 508.3, 135.0)"> </text><text xml:space="preserve" font-family="AvenirNext-Medium" font-size="31.0" fill="#FEFFFF" transform="matrix(1.00, 0.00, -0.00, -1.00, 3.0, 93.0)">e</text><text xml:space="preserve" font-family="AvenirNext-Medium" font-size="31.0" fill="#FEFFFF" transform="matrix(1.00, 0.00, -0.00, -1.00, 20.8, 93.0)">c</text><text xml:space="preserve" font-family="AvenirNext-Medium" font-size="31.0" fill="#FEFFFF" transform="matrix(1.00, 0.00, -0.00, -1.00, 36.1, 93.0)">h</text><text xml:space="preserve" font-family="AvenirNext-Medium" font-size="31.0" fill="#FEFFFF" transform="matrix(1.00, 0.00, -0.00, -1.00, 54.2, 93.0)">o</text><text xml:space="preserve" font-family="AvenirNext-Medium" font-size="31.0" fill="#FEFFFF" transform="matrix(1.00, 0.00, -0.00, -1.00, 73.1, 93.0)">i</text><text xml:space="preserve" font-family="AvenirNext-Medium" font-size="31.0" fill="#FEFFFF" transform="matrix(1.00, 0.00, -0.00, -1.00, 81.1, 93.0)">n</text><text xml:space="preserve" font-family="AvenirNext-Medium" font-size="31.0" fill="#FEFFFF" transform="matrix(1.00, 0.00, -0.00, -1.00, 99.2, 93.0)">g</text><text xml:space="preserve" font-family="AvenirNext-Medium" font-size="31.0" fill="#FEFFFF" transform="matrix(1.00, 0.00, -0.00, -1.00, 118.8, 93.0)"> </text><text xml:space="preserve" font-family="AvenirNext-Medium" font-size="31.0" fill="#FEFFFF" transform="matrix(1.00, 0.00, -0.00, -1.00, 126.5, 93.0)">d</text><text xml:space="preserve" font-family="AvenirNext-Medium" font-size="31.0" fill="#FEFFFF" transform="matrix(1.00, 0.00, -0.00, -1.00, 146.2, 93.0)">o</text><text xml:space="preserve" font-family="AvenirNext-Medium" font-size="31.0" fill="#FEFFFF" transform="matrix(1.00, 0.00, -0.00, -1.00, 165.1, 93.0)">w</text><text xml:space="preserve" font-family="AvenirNext-Medium" font-size="31.0" fill="#FEFFFF" transform="matrix(1.00, 0.00, -0.00, -1.00, 189.1, 93.0)">n</text><text xml:space="preserve" font-family="AvenirNext-Medium" font-size="31.0" fill="#FEFFFF" transform="matrix(1.00, 0.00, -0.00, -1.00, 207.1, 93.0)"> </text><text xml:space="preserve" font-family="AvenirNext-Medium" font-size="31.0" fill="#FEFFFF" transform="matrix(1.00, 0.00, -0.00, -1.00, 214.9, 93.0)">t</text><text xml:space="preserve" font-family="AvenirNext-Medium" font-size="31.0" fill="#FEFFFF" transform="matrix(1.00, 0.00, -0.00, -1.00, 225.1, 93.0)">h</text><text xml:space="preserve" font-family="AvenirNext-Medium" font-size="31.0" fill="#FEFFFF" transform="matrix(1.00, 0.00, -0.00, -1.00, 243.2, 93.0)">e</text><text xml:space="preserve" font-family="AvenirNext-Medium" font-size="31.0" fill="#FEFFFF" transform="matrix(1.00, 0.00, -0.00, -1.00, 260.9, 93.0)"> </text><text xml:space="preserve" font-family="AvenirNext-Medium" font-size="31.0" fill="#FEFFFF" transform="matrix(1.00, 0.00, -0.00, -1.00, 268.7, 93.0)">h</text><text xml:space="preserve" font-family="AvenirNext-Medium" font-size="31.0" fill="#FEFFFF" transform="matrix(1.00, 0.00, -0.00, -1.00, 286.8, 93.0)">a</text><text xml:space="preserve" font-family="AvenirNext-Medium" font-size="31.0" fill="#FEFFFF" transform="matrix(1.00, 0.00, -0.00, -1.00, 303.6, 93.0)">l</text><text xml:space="preserve" font-family="AvenirNext-Medium" font-size="31.0" fill="#FEFFFF" transform="matrix(1.00, 0.00, -0.00, -1.00, 311.6, 93.0)">l</text><text xml:space="preserve" font-family="AvenirNext-Medium" font-size="31.0" fill="#FEFFFF" transform="matrix(1.00, 0.00, -0.00, -1.00, 319.7, 93.0)">.</text><text xml:space="preserve" font-family="AvenirNext-Medium" font-size="31.0" fill="#FEFFFF" transform="matrix(1.00, 0.00, -0.00, -1.00, 326.8, 93.0)"> </text><text xml:space="preserve" font-family="AvenirNext-Medium" font-size="31.0" fill="#FEFFFF" transform="matrix(1.00, 0.00, -0.00, -1.00, 334.6, 93.0)"> </text><text xml:space="preserve" font-family="AvenirNext-Medium" font-size="31.0" fill="#FEFFFF" transform="matrix(1.00, 0.00, -0.00, -1.00, 3.0, 9.0)">W</text><text xml:space="preserve" font-family="AvenirNext-Medium" font-size="31.0" fill="#FEFFFF" transform="matrix(1.00, 0.00, -0.00, -1.00, 32.5, 9.0)">a</text><text xml:space="preserve" font-family="AvenirNext-Medium" font-size="31.0" fill="#FEFFFF" transform="matrix(1.00, 0.00, -0.00, -1.00, 49.3, 9.0)">s</text><text xml:space="preserve" font-family="AvenirNext-Medium" font-size="31.0" fill="#FEFFFF" transform="matrix(1.00, 0.00, -0.00, -1.00, 63.1, 9.0)"> </text><text xml:space="preserve" font-family="AvenirNext-Medium" font-size="31.0" fill="#FEFFFF" transform="matrix(1.00, 0.00, -0.00, -1.00, 70.8, 9.0)">s</text><text xml:space="preserve" font-family="AvenirNext-Medium" font-size="31.0" fill="#FEFFFF" transform="matrix(1.00, 0.00, -0.00, -1.00, 84.6, 9.0)">o</text><text xml:space="preserve" font-family="AvenirNext-Medium" font-size="31.0" fill="#FEFFFF" transform="matrix(1.00, 0.00, -0.00, -1.00, 103.5, 9.0)">m</text><text xml:space="preserve" font-family="AvenirNext-Medium" font-size="31.0" fill="#FEFFFF" transform="matrix(1.00, 0.00, -0.00, -1.00, 131.0, 9.0)">e</text><text xml:space="preserve" font-family="AvenirNext-Medium" font-size="31.0" fill="#FEFFFF" transform="matrix(1.00, 0.00, -0.00, -1.00, 148.8, 9.0)">o</text><text xml:space="preserve" font-family="AvenirNext-Medium" font-size="31.0" fill="#FEFFFF" transform="matrix(1.00, 0.00, -0.00, -1.00, 167.7, 9.0)">n</text><text xml:space="preserve" font-family="AvenirNext-Medium" font-size="31.0" fill="#FEFFFF" transform="matrix(1.00, 0.00, -0.00, -1.00, 185.7, 9.0)">e</text><text xml:space="preserve" font-family="AvenirNext-Medium" font-size="31.0" fill="#FEFFFF" transform="matrix(1.00, 0.00, -0.00, -1.00, 203.5, 9.0)"> </text><text xml:space="preserve" font-family="AvenirNext-Medium" font-size="31.0" fill="#FEFFFF" transform="matrix(1.00, 0.00, -0.00, -1.00, 211.2, 9.0)">p</text><text xml:space="preserve" font-family="AvenirNext-Medium" font-size="31.0" fill="#FEFFFF" transform="matrix(1.00, 0.00, -0.00, -1.00, 230.9, 9.0)">l</text><text xml:space="preserve" font-family="AvenirNext-Medium" font-size="31.0" fill="#FEFFFF" transform="matrix(1.00, 0.00, -0.00, -1.00, 238.9, 9.0)">a</text><text xml:space="preserve" font-family="AvenirNext-Medium" font-size="31.0" fill="#FEFFFF" transform="matrix(1.00, 0.00, -0.00, -1.00, 255.7, 9.0)">y</text><text xml:space="preserve" font-family="AvenirNext-Medium" font-size="31.0" fill="#FEFFFF" transform="matrix(1.00, 0.00, -0.00, -1.00, 271.4, 9.0)">i</text><text xml:space="preserve" font-family="AvenirNext-Medium" font-size="31.0" fill="#FEFFFF" transform="matrix(1.00, 0.00, -0.00, -1.00, 279.4, 9.0)">n</text><text xml:space="preserve" font-family="AvenirNext-Medium" font-size="31.0" fill="#FEFFFF" transform="matrix(1.00, 0.00, -0.00, -1.00, 297.4, 9.0)">g</text><text xml:space="preserve" font-family="AvenirNext-Medium" font-size="31.0" fill="#FEFFFF" transform="matrix(1.00, 0.00, -0.00, -1.00, 317.0, 9.0)"> </text><text xml:space="preserve" font-family="AvenirNext-Medium" font-size="31.0" fill="#FEFFFF" transform="matrix(1.00, 0.00, -0.00, -1.00, 324.8, 9.0)">g</text><text xml:space="preserve" font-family="AvenirNext-Medium" font-size="31.0" fill="#FEFFFF" transform="matrix(1.00, 0.00, -0.00, -1.00, 344.4, 9.0)">a</text><text xml:space="preserve" font-family="AvenirNext-Medium" font-size="31.0" fill="#FEFFFF" transform="matrix(1.00, 0.00, -0.00, -1.00, 361.2, 9.0)">m</text><text xml:space="preserve" font-family="AvenirNext-Medium" font-size="31.0" fill="#FEFFFF" transform="matrix(1.00, 0.00, -0.00, -1.00, 388.7, 9.0)">e</text><text xml:space="preserve" font-family="AvenirNext-Medium" font-size="31.0" fill="#FEFFFF" transform="matrix(1.00, 0.00, -0.00, -1.00, 406.4, 9.0)">s</text><text xml:space="preserve" font-family="AvenirNext-Medium" font-size="31.0" fill="#FEFFFF" transform="matrix(1.00, 0.00, -0.00, -1.00, 420.2, 9.0)"> </text><text xml:space="preserve" font-family="AvenirNext-Medium" font-size="31.0" fill="#FEFFFF" transform="matrix(1.00, 0.00, -0.00, -1.00, 427.9, 9.0)">w</text><text xml:space="preserve" font-family="AvenirNext-Medium" font-size="31.0" fill="#FEFFFF" transform="matrix(1.00, 0.00, -0.00, -1.00, 451.9, 9.0)">i</text><text xml:space="preserve" font-family="AvenirNext-Medium" font-size="31.0" fill="#FEFFFF" transform="matrix(1.00, 0.00, -0.00, -1.00, 459.9, 9.0)">t</text><text xml:space="preserve" font-family="AvenirNext-Medium" font-size="31.0" fill="#FEFFFF" transform="matrix(1.00, 0.00, -0.00, -1.00, 470.1, 9.0)">h</text><text xml:space="preserve" font-family="AvenirNext-Medium" font-size="31.0" fill="#FEFFFF" transform="matrix(1.00, 0.00, -0.00, -1.00, 488.2, 9.0)"> </text><text xml:space="preserve" font-family="AvenirNext-Medium" font-size="31.0" fill="#FEFFFF" transform="matrix(1.00, 0.00, -0.00, -1.00, 496.0, 9.0)">m</text><text xml:space="preserve" font-family="AvenirNext-Medium" font-size="31.0" fill="#FEFFFF" transform="matrix(1.00, 0.00, -0.00, -1.00, 523.5, 9.0)">e</text><text xml:space="preserve" font-family="AvenirNext-Medium" font-size="31.0" fill="#FEFFFF" transform="matrix(1.00, 0.00, -0.00, -1.00, 541.3, 9.0)">?</text></g></svg>