<?xml version="1.0" encoding="UTF-8"?><svg xmlns="http://www.w3.org/2000/svg" xmlns:xlink="http://www.w3.org/1999/xlink" clip-rule="evenodd" stroke-miterlimit="4.00" viewBox="0 0 373 21"><desc>SVG generated by Keynote</desc><defs></defs><g transform="matrix(1.00, 0.00, -0.00, -1.00, 0.0, 21.0)"><text xml:space="preserve" font-family="Avenir-Book" font-size="16.0" fill="#FEFFFF" transform="matrix(1.00, 0.00, -0.00, -1.00, 1.0, 6.0)">I</text><text xml:space="preserve" font-family="Avenir-Book" font-size="16.0" fill="#FEFFFF" transform="matrix(1.00, 0.00, -0.00, -1.00, 5.2, 6.0)">t</text><text xml:space="preserve" font-family="Avenir-Book" font-size="16.0" fill="#FEFFFF" transform="matrix(1.00, 0.00, -0.00, -1.00, 10.5, 6.0)"> </text><text xml:space="preserve" font-family="Avenir-Book" font-size="16.0" fill="#FEFFFF" transform="matrix(1.00, 0.00, -0.00, -1.00, 15.0, 6.0)">w</text><text xml:space="preserve" font-family="Avenir-Book" font-size="16.0" fill="#FEFFFF" transform="matrix(1.00, 0.00, -0.00, -1.00, 26.5, 6.0)">a</text><text xml:space="preserve" font-family="Avenir-Book" font-size="16.0" fill="#FEFFFF" transform="matrix(1.00, 0.00, -0.00, -1.00, 34.8, 6.0)">s</text><text xml:space="preserve" font-family="Avenir-Book" font-size="16.0" fill="#FEFFFF" transform="matrix(1.00, 0.00, -0.00, -1.00, 41.7, 6.0)"> </text><text xml:space="preserve" font-family="Avenir-Book" font-size="16.0" fill="#FEFFFF" transform="matrix(1.00, 0.00, -0.00, -1.00, 46.1, 6.0)">t</text><text xml:space="preserve" font-family="Avenir-Book" font-size="16.0" fill="#FEFFFF" transform="matrix(1.00, 0.00, -0.00, -1.00, 51.4, 6.0)">h</text><text xml:space="preserve" font-family="Avenir-Book" font-size="16.0" fill="#FEFFFF" transform="matrix(1.00, 0.00, -0.00, -1.00, 60.3, 6.0)">e</text><text xml:space="preserve" font-family="Avenir-Book" font-size="16.0" fill="#FEFFFF" transform="matrix(1.00, 0.00, -0.00, -1.00, 69.2, 6.0)"> </text><text xml:space="preserve" font-family="Avenir-Book" font-size="16.0" fill="#FEFFFF" transform="matrix(1.00, 0.00, -0.00, -1.00, 73.7, 6.0)">t</text><text xml:space="preserve" font-family="Avenir-Book" font-size="16.0" fill="#FEFFFF" transform="matrix(1.00, 0.00, -0.00, -1.00, 79.0, 6.0)">i</text><text xml:space="preserve" font-family="Avenir-Book" font-size="16.0" fill="#FEFFFF" transform="matrix(1.00, 0.00, -0.00, -1.00, 82.8, 6.0)">m</text><text xml:space="preserve" font-family="Avenir-Book" font-size="16.0" fill="#FEFFFF" transform="matrix(1.00, 0.00, -0.00, -1.00, 96.4, 6.0)">e</text><text xml:space="preserve" font-family="Avenir-Book" font-size="16.0" fill="#FEFFFF" transform="matrix(1.00, 0.00, -0.00, -1.00, 105.3, 6.0)"> </text><text xml:space="preserve" font-family="Avenir-Book" font-size="16.0" fill="#FEFFFF" transform="matrix(1.00, 0.00, -0.00, -1.00, 109.8, 6.0)">f</text><text xml:space="preserve" font-family="Avenir-Book" font-size="16.0" fill="#FEFFFF" transform="matrix(1.00, 0.00, -0.00, -1.00, 114.5, 6.0)">o</text><text xml:space="preserve" font-family="Avenir-Book" font-size="16.0" fill="#FEFFFF" transform="matrix(1.00, 0.00, -0.00, -1.00, 124.0, 6.0)">r</text><text xml:space="preserve" font-family="Avenir-Book" font-size="16.0" fill="#FEFFFF" transform="matrix(1.00, 0.00, -0.00, -1.00, 129.3, 6.0)"> </text><text xml:space="preserve" font-family="Avenir-Book" font-size="16.0" fill="#FEFFFF" transform="matrix(1.00, 0.00, -0.00, -1.00, 133.8, 6.0)">t</text><text xml:space="preserve" font-family="Avenir-Book" font-size="16.0" fill="#FEFFFF" transform="matrix(1.00, 0.00, -0.00, -1.00, 139.1, 6.0)">h</text><text xml:space="preserve" font-family="Avenir-Book" font-size="16.0" fill="#FEFFFF" transform="matrix(1.00, 0.00, -0.00, -1.00, 148.0, 6.0)">e</text><text xml:space="preserve" font-family="Avenir-Book" font-size="16.0" fill="#FEFFFF" transform="matrix(1.00, 0.00, -0.00, -1.00, 156.9, 6.0)"> </text><text xml:space="preserve" font-family="Avenir-Book" font-size="16.0" fill="#FEFFFF" transform="matrix(1.00, 0.00, -0.00, -1.00, 161.3, 6.0)">f</text><text xml:space="preserve" font-family="Avenir-Book" font-size="16.0" fill="#FEFFFF" transform="matrix(1.00, 0.00, -0.00, -1.00, 166.1, 6.0)">i</text><text xml:space="preserve" font-family="Avenir-Book" font-size="16.0" fill="#FEFFFF" transform="matrix(1.00, 0.00, -0.00, -1.00, 169.9, 6.0)">n</text><text xml:space="preserve" font-family="Avenir-Book" font-size="16.0" fill="#FEFFFF" transform="matrix(1.00, 0.00, -0.00, -1.00, 178.8, 6.0)">a</text><text xml:space="preserve" font-family="Avenir-Book" font-size="16.0" fill="#FEFFFF" transform="matrix(1.00, 0.00, -0.00, -1.00, 187.1, 6.0)">l</text><text xml:space="preserve" font-family="Avenir-Book" font-size="16.0" fill="#FEFFFF" transform="matrix(1.00, 0.00, -0.00, -1.00, 190.9, 6.0)"> </text><text xml:space="preserve" font-family="Avenir-Book" font-size="16.0" fill="#FEFFFF" transform="matrix(1.00, 0.00, -0.00, -1.00, 195.4, 6.0)">s</text><text xml:space="preserve" font-family="Avenir-Book" font-size="16.0" fill="#FEFFFF" transform="matrix(1.00, 0.00, -0.00, -1.00, 202.2, 6.0)">p</text><text xml:space="preserve" font-family="Avenir-Book" font-size="16.0" fill="#FEFFFF" transform="matrix(1.00, 0.00, -0.00, -1.00, 212.0, 6.0)">o</text><text xml:space="preserve" font-family="Avenir-Book" font-size="16.0" fill="#FEFFFF" transform="matrix(1.00, 0.00, -0.00, -1.00, 221.5, 6.0)">r</text><text xml:space="preserve" font-family="Avenir-Book" font-size="16.0" fill="#FEFFFF" transform="matrix(1.00, 0.00, -0.00, -1.00, 226.8, 6.0)">t</text><text xml:space="preserve" font-family="Avenir-Book" font-size="16.0" fill="#FEFFFF" transform="matrix(1.00, 0.00, -0.00, -1.00, 232.1, 6.0)"> </text><text xml:space="preserve" font-family="Avenir-Book" font-size="16.0" fill="#FEFFFF" transform="matrix(1.00, 0.00, -0.00, -1.00, 236.5, 6.0)">o</text><text xml:space="preserve" font-family="Avenir-Book" font-size="16.0" fill="#FEFFFF" transform="matrix(1.00, 0.00, -0.00, -1.00, 246.0, 6.0)">r</text><text xml:space="preserve" font-family="Avenir-Book" font-size="16.0" fill="#FEFFFF" transform="matrix(1.00, 0.00, -0.00, -1.00, 251.0, 6.0)">g</text><text xml:space="preserve" font-family="Avenir-Book" font-size="16.0" fill="#FEFFFF" transform="matrix(1.00, 0.00, -0.00, -1.00, 260.8, 6.0)">a</text><text xml:space="preserve" font-family="Avenir-Book" font-size="16.0" fill="#FEFFFF" transform="matrix(1.00, 0.00, -0.00, -1.00, 269.1, 6.0)">n</text><text xml:space="preserve" font-family="Avenir-Book" font-size="16.0" fill="#FEFFFF" transform="matrix(1.00, 0.00, -0.00, -1.00, 278.0, 6.0)">i</text><text xml:space="preserve" font-family="Avenir-Book" font-size="16.0" fill="#FEFFFF" transform="matrix(1.00, 0.00, -0.00, -1.00, 281.9, 6.0)">z</text><text xml:space="preserve" font-family="Avenir-Book" font-size="16.0" fill="#FEFFFF" transform="matrix(1.00, 0.00, -0.00, -1.00, 288.7, 6.0)">e</text><text xml:space="preserve" font-family="Avenir-Book" font-size="16.0" fill="#FEFFFF" transform="matrix(1.00, 0.00, -0.00, -1.00, 297.6, 6.0)">d</text><text xml:space="preserve" font-family="Avenir-Book" font-size="16.0" fill="#FEFFFF" transform="matrix(1.00, 0.00, -0.00, -1.00, 307.4, 6.0)"> </text><text xml:space="preserve" font-family="Avenir-Book" font-size="16.0" fill="#FEFFFF" transform="matrix(1.00, 0.00, -0.00, -1.00, 311.8, 6.0)">b</text><text xml:space="preserve" font-family="Avenir-Book" font-size="16.0" fill="#FEFFFF" transform="matrix(1.00, 0.00, -0.00, -1.00, 321.6, 6.0)">y</text><text xml:space="preserve" font-family="Avenir-Book" font-size="16.0" fill="#FEFFFF" transform="matrix(1.00, 0.00, -0.00, -1.00, 329.3, 6.0)"> </text><text xml:space="preserve" font-family="Avenir-Book" font-size="16.0" fill="#FEFFFF" transform="matrix(1.00, 0.00, -0.00, -1.00, 333.7, 6.0)">J</text><text xml:space="preserve" font-family="Avenir-Book" font-size="16.0" fill="#FEFFFF" transform="matrix(1.00, 0.00, -0.00, -1.00, 341.4, 6.0)">o</text><text xml:space="preserve" font-family="Avenir-Book" font-size="16.0" fill="#FEFFFF" transform="matrix(1.00, 0.00, -0.00, -1.00, 350.9, 6.0)">h</text><text xml:space="preserve" font-family="Avenir-Book" font-size="16.0" fill="#FEFFFF" transform="matrix(1.00, 0.00, -0.00, -1.00, 359.8, 6.0)">n</text><text xml:space="preserve" font-family="Avenir-Book" font-size="16.0" fill="#FEFFFF" transform="matrix(1.00, 0.00, -0.00, -1.00, 368.7, 6.0)">.</text></g></svg>