<?xml version="1.0" encoding="UTF-8"?><svg xmlns="http://www.w3.org/2000/svg" xmlns:xlink="http://www.w3.org/1999/xlink" clip-rule="evenodd" stroke-miterlimit="4.00" viewBox="0 0 446 867"><desc>SVG generated by Keynote</desc><defs></defs><g transform="matrix(1.00, 0.00, -0.00, -1.00, 0.0, 867.0)"><g><clipPath id="clip-110"><path d="M 2.0 3.0 L 443.0 3.0 L 443.0 865.0 L 2.0 865.0 Z M 2.0 3.0 "></path></clipPath><g clip-path="url(#clip-110)"><path d="M 216.5 723.3 C 211.0 723.4 204.6 723.1 199.7 720.1 C 198.4 719.3 197.2 718.3 196.1 717.1 C 196.0 717.0 195.9 717.2 195.9 717.3 C 196.4 718.2 196.9 719.1 197.5 720.0 C 200.8 725.4 204.7 729.3 211.9 730.4 C 217.8 731.4 228.6 732.9 233.2 728.0 C 233.9 727.2 234.1 725.8 233.2 725.1 C 232.7 724.8 232.2 724.4 231.7 724.1 C 229.5 723.0 226.8 722.8 224.1 722.8 C 221.5 722.9 218.8 723.3 216.5 723.3 " fill="#F8A877"></path><path d="M 317.4 661.7 C 324.9 664.7 337.5 668.8 330.4 678.8 C 328.4 681.3 324.1 682.2 321.3 682.5 C 322.5 689.1 324.3 695.5 326.0 701.9 C 335.3 699.5 337.3 678.3 335.8 670.2 C 333.5 656.3 324.9 649.2 314.1 642.2 L 313.9 642.2 C 315.4 648.5 316.6 655.1 317.4 661.7 " fill="#F8A877"></path><path d="M 326.4 775.4 C 328.9 768.7 330.3 761.2 331.2 754.1 C 331.8 749.7 330.9 745.5 328.0 742.1 C 327.2 741.2 325.6 742.0 325.6 743.1 C 325.5 748.8 327.7 754.2 327.3 759.9 C 327.0 765.1 325.6 770.1 325.6 775.3 C 325.6 775.7 326.2 775.8 326.4 775.4 " fill="#562916"></path><path d="M 319.4 778.7 C 323.0 782.0 325.8 785.9 327.4 790.2 C 336.7 773.4 332.6 746.6 331.2 728.6 C 330.5 719.4 328.3 710.6 326.0 701.9 C 324.3 695.5 322.5 689.1 321.3 682.5 C 320.8 682.5 320.3 682.6 319.9 682.6 C 322.2 707.5 322.1 733.1 320.8 757.9 C 320.5 764.8 320.1 771.7 319.5 778.5 Z M 325.6 743.1 C 325.6 742.0 327.2 741.2 328.0 742.1 C 330.9 745.5 331.8 749.7 331.2 754.1 C 330.3 761.2 328.9 768.7 326.4 775.4 C 326.2 775.8 325.6 775.7 325.6 775.3 C 325.6 770.1 327.0 765.1 327.3 759.9 C 327.7 754.2 325.4 748.8 325.6 743.1 " fill="#2E0A00"></path><path d="M 317.4 661.7 C 318.5 668.5 319.4 675.6 319.9 682.6 C 320.3 682.6 320.8 682.5 321.3 682.5 C 324.1 682.2 328.4 681.3 330.4 678.8 C 337.5 668.8 324.9 664.7 317.4 661.7 " fill="#BB7950"></path><path d="M 313.9 671.2 C 316.8 666.3 315.4 658.8 310.0 656.1 C 305.2 653.8 298.7 650.4 293.2 652.7 C 287.4 655.2 285.4 660.2 287.8 666.1 C 289.8 670.7 295.0 672.7 298.9 675.1 C 304.1 678.1 311.0 676.3 313.9 671.2 " fill="#FDAA8B"></path><path d="M 303.6 736.4 C 309.2 734.3 317.2 727.2 318.1 721.1 L 318.1 721.1 C 315.1 723.8 312.6 727.4 308.5 728.3 C 305.7 729.0 302.7 728.9 299.9 729.3 C 294.6 730.0 288.4 730.0 283.1 729.6 C 282.5 729.6 282.1 730.3 282.4 730.8 C 287.1 738.1 295.8 739.3 303.6 736.4 " fill="#FFC99F"></path><path d="M 281.0 650.2 C 282.1 656.0 275.3 658.5 272.7 662.8 C 266.3 673.0 263.4 684.2 264.7 696.2 C 264.8 696.8 265.7 696.9 265.7 696.2 C 266.7 681.2 271.2 664.8 286.2 658.3 C 287.1 657.9 287.7 656.7 287.7 655.7 C 287.1 641.5 274.0 631.1 260.7 628.6 C 260.0 628.5 259.7 629.4 260.2 629.8 C 267.6 634.9 279.1 640.4 281.0 650.2 " fill="#CF8557"></path><path d="M 224.3 749.6 C 225.5 750.4 226.8 751.3 228.0 752.0 C 238.9 758.9 250.6 763.8 261.7 770.4 C 274.6 778.0 281.3 788.3 291.5 798.3 C 292.2 798.9 293.0 799.2 293.7 799.2 C 295.8 799.2 297.8 797.4 297.0 795.1 C 292.4 782.6 278.0 775.5 267.0 769.2 C 253.4 761.3 239.2 754.9 224.5 749.1 C 224.3 749.0 224.1 749.2 224.1 749.3 C 224.1 749.5 224.2 749.5 224.3 749.6 " fill="#704737"></path><path d="M 327.4 790.2 C 325.8 785.9 323.0 782.0 319.4 778.6 L 319.3 778.8 C 315.6 776.0 311.5 773.2 307.2 770.4 C 276.8 751.2 232.2 733.9 202.2 736.1 C 207.5 741.0 212.5 746.2 217.7 751.3 C 219.9 753.5 222.1 755.6 224.4 757.6 L 228.0 752.0 C 226.8 751.3 225.5 750.4 224.3 749.6 C 224.2 749.5 224.1 749.5 224.1 749.3 C 224.1 749.2 224.3 749.0 224.5 749.1 C 239.2 754.9 253.4 761.4 267.0 769.2 C 278.0 775.5 292.4 782.6 297.0 795.1 C 297.8 797.4 295.8 799.2 293.7 799.2 C 293.0 799.2 292.2 798.9 291.5 798.3 L 289.5 803.3 C 290.2 803.6 291.0 803.9 291.7 804.2 C 302.5 808.7 313.6 812.5 323.0 818.5 C 329.5 807.8 330.4 798.3 327.4 790.2 " fill="#5C2E1C"></path><path d="M 199.7 720.1 C 204.5 723.1 211.0 723.4 216.5 723.3 C 218.8 723.3 221.5 722.9 224.1 722.8 C 216.1 721.6 207.8 720.7 199.7 720.1 " fill="#F8A877"></path><path d="M 220.9 645.5 C 216.2 646.2 211.4 646.1 206.9 647.0 C 198.4 648.6 198.0 663.2 206.9 664.5 C 212.7 665.3 218.3 664.1 224.0 662.8 C 228.7 661.7 233.7 660.1 236.3 655.7 C 237.6 653.4 237.3 650.1 235.3 648.3 C 231.2 644.5 226.1 644.7 220.9 645.5 " fill="#FDAA8B"></path><path d="M 260.3 732.3 C 278.7 739.4 302.9 746.2 320.8 757.9 C 322.1 733.1 322.2 707.5 319.9 682.6 C 319.4 675.6 318.5 668.5 317.4 661.7 C 316.6 655.1 315.4 648.6 313.9 642.2 C 313.4 639.6 312.8 637.0 312.2 634.4 C 312.2 634.3 312.2 634.2 312.2 634.2 C 306.4 610.8 297.6 589.2 284.7 571.4 C 277.4 562.0 270.0 555.0 262.7 550.1 C 251.9 545.4 239.6 549.0 227.6 553.8 C 221.4 556.3 216.2 559.2 211.7 562.6 L 211.7 562.7 C 203.3 572.6 196.5 587.7 193.6 596.7 C 188.9 612.5 185.8 628.9 183.9 645.2 C 183.1 652.3 182.4 659.3 181.9 666.4 C 181.0 682.4 180.4 702.3 184.2 719.4 C 188.5 719.5 192.9 719.6 197.5 719.9 C 197.0 719.1 196.4 718.2 195.9 717.3 C 195.9 717.1 196.0 717.0 196.1 717.1 C 197.2 718.3 198.4 719.3 199.7 720.1 C 207.7 720.7 216.1 721.6 224.1 722.8 C 226.8 722.7 229.5 723.0 231.7 724.1 C 242.1 726.1 251.9 728.8 260.3 732.3 M 318.1 721.1 C 317.2 727.2 309.2 734.3 303.6 736.4 C 295.8 739.3 287.2 738.1 282.4 730.8 C 282.1 730.3 282.5 729.7 283.1 729.7 C 288.4 730.0 294.6 730.0 299.9 729.3 C 302.7 728.9 305.7 729.0 308.5 728.4 C 312.6 727.4 315.1 723.8 318.1 721.1 Z M 313.9 671.2 C 311.0 676.3 304.1 678.1 299.0 675.0 C 295.0 672.7 289.8 670.7 287.8 666.1 C 285.4 660.2 287.4 655.2 293.2 652.7 C 298.7 650.4 305.2 653.8 310.0 656.1 C 315.4 658.8 316.8 666.3 313.9 671.2 M 206.9 664.5 C 198.0 663.2 198.4 648.6 206.9 647.0 C 211.4 646.1 216.2 646.2 220.9 645.5 C 226.1 644.7 231.2 644.5 235.3 648.3 C 237.3 650.1 237.6 653.4 236.3 655.7 C 233.7 660.1 228.7 661.7 224.0 662.8 C 218.3 664.1 212.7 665.3 206.9 664.5 M 286.2 658.3 C 271.2 664.8 266.7 681.2 265.7 696.2 C 265.7 696.9 264.8 696.8 264.7 696.2 C 263.4 684.2 266.3 672.9 272.7 662.8 C 275.3 658.5 282.1 655.9 281.0 650.2 C 279.1 640.4 267.6 634.9 260.2 629.8 C 259.7 629.4 260.0 628.5 260.7 628.6 C 274.0 631.1 287.2 641.5 287.6 655.7 C 287.7 656.6 287.1 657.9 286.2 658.3 " fill="#FFC99F"></path><path d="M 307.2 770.4 C 311.5 773.2 315.6 776.0 319.3 778.8 L 319.4 778.6 L 319.5 778.5 C 320.1 771.7 320.5 764.8 320.8 757.9 C 302.9 746.2 278.7 739.4 260.3 732.3 C 251.9 728.8 242.1 726.1 231.7 724.1 C 232.2 724.4 232.7 724.7 233.2 725.1 C 234.1 725.8 233.9 727.2 233.2 728.0 C 228.6 732.9 217.8 731.4 211.8 730.4 C 204.7 729.3 200.8 725.4 197.5 720.0 C 192.9 719.6 188.5 719.5 184.2 719.4 C 180.4 702.3 181.0 682.4 181.9 666.3 C 182.4 659.3 183.1 652.3 183.9 645.2 L 178.1 644.6 C 169.6 669.4 169.8 695.7 170.7 722.0 C 171.0 728.4 171.3 734.8 171.5 741.2 C 171.7 747.1 171.9 753.1 171.9 759.0 L 171.8 759.9 C 198.1 761.6 224.8 763.4 247.3 773.4 C 238.6 769.3 231.2 763.8 224.4 757.6 C 222.1 755.6 219.9 753.4 217.7 751.3 C 212.5 746.2 207.5 741.0 202.3 736.1 C 232.2 733.9 276.8 751.2 307.2 770.4 " fill="#F8A877"></path><path d="M 206.3 780.2 C 193.8 775.8 182.9 771.8 169.5 773.1 C 169.3 773.1 169.3 773.4 169.5 773.4 C 186.5 773.9 201.3 780.8 215.8 788.9 C 223.0 792.9 233.1 796.2 240.8 792.4 C 242.1 791.8 242.1 789.8 240.8 789.3 C 230.6 784.1 217.4 783.9 206.3 780.2 " fill="#704737"></path><path d="M 195.1 849.1 C 205.8 852.1 218.0 856.5 229.2 853.3 C 231.6 852.6 231.4 849.5 229.2 848.7 C 216.2 844.1 201.4 843.2 187.9 839.7 C 179.1 837.4 170.1 834.2 161.0 836.0 C 160.6 836.0 160.6 836.7 160.9 837.0 C 170.9 842.9 183.8 845.9 195.1 849.1 " fill="#5C2F1D"></path><path d="M 247.4 773.4 C 224.8 763.4 198.1 761.6 171.8 759.9 C 157.3 759.0 142.9 758.1 129.4 755.9 C 126.9 755.7 124.4 755.6 121.9 755.5 C 141.4 763.2 160.7 779.2 179.6 787.0 C 191.9 792.4 204.9 797.6 218.2 801.8 L 218.4 801.8 C 242.0 805.5 266.3 810.3 286.2 821.0 C 281.0 813.7 274.8 804.4 272.7 795.0 C 277.9 798.3 283.7 800.9 289.5 803.3 L 291.6 798.3 C 281.3 788.3 274.6 778.0 261.7 770.4 C 250.6 763.8 238.9 758.9 228.0 752.0 L 224.4 757.6 C 231.2 763.8 238.6 769.3 247.4 773.4 M 206.3 780.1 C 217.4 783.9 230.6 784.1 240.9 789.3 C 242.0 789.9 242.0 791.8 240.9 792.4 C 233.1 796.2 223.0 792.9 215.8 788.9 C 201.3 780.8 186.5 773.9 169.5 773.4 C 169.3 773.4 169.3 773.1 169.5 773.1 C 182.9 771.7 193.8 775.8 206.3 780.1 " fill="#5C2E1C"></path><path d="M 151.7 740.0 C 151.8 731.7 152.4 723.3 154.1 715.2 C 154.1 714.7 154.2 714.2 154.3 713.7 C 155.7 707.6 158.3 701.6 158.5 695.4 C 158.5 694.2 156.9 693.4 156.1 694.4 C 151.8 699.6 150.0 706.4 149.5 713.5 C 148.7 722.6 149.9 732.2 149.9 740.0 C 150.0 741.1 151.7 741.1 151.7 740.0 " fill="#562916"></path><path d="M 141.8 653.6 C 143.7 660.4 148.6 665.9 155.5 663.3 C 157.0 656.6 159.9 649.9 162.5 643.1 C 155.8 637.1 150.8 635.2 147.4 635.9 C 142.4 636.6 140.5 642.4 140.9 648.5 L 140.9 648.7 C 141.0 649.4 141.0 650.2 141.2 650.9 C 141.3 651.9 141.5 652.8 141.8 653.6 " fill="#BB7950"></path><path d="M 139.4 799.2 C 157.7 816.7 183.3 825.8 207.5 831.7 C 224.4 835.9 257.8 845.5 272.7 831.9 C 274.3 830.4 272.9 828.2 271.0 828.0 C 261.9 826.9 252.4 830.0 243.1 829.8 C 230.2 829.5 217.3 828.8 204.7 826.1 C 182.5 821.4 156.6 815.0 139.5 799.1 C 139.4 799.1 139.3 799.1 139.4 799.2 " fill="#5C2F1D"></path><path d="M 134.5 681.2 C 136.2 683.2 138.3 684.5 141.0 684.5 C 144.7 684.5 151.0 679.6 154.3 675.5 C 154.5 675.1 154.7 674.8 155.0 674.4 C 155.7 670.3 156.6 666.3 157.6 662.3 C 158.6 657.7 159.9 653.1 161.3 648.6 C 166.6 645.9 171.9 642.2 177.8 641.6 L 178.1 644.6 L 183.9 645.2 C 185.8 628.9 188.9 612.5 193.6 596.7 C 196.5 587.7 203.3 572.5 211.7 562.7 L 211.7 562.6 C 216.2 559.2 221.4 556.3 227.6 553.8 C 239.6 549.0 251.9 545.4 262.7 550.1 C 259.9 548.2 257.3 546.6 254.5 545.3 C 251.2 543.7 247.8 542.5 244.4 541.8 C 241.0 540.9 237.6 540.5 234.2 540.5 C 225.9 540.5 217.9 542.9 210.1 547.2 C 206.0 549.4 202.0 552.2 198.1 555.5 C 187.4 564.5 177.5 576.9 168.6 591.7 C 167.8 593.0 167.0 594.4 166.2 595.8 C 164.0 604.5 164.5 614.3 164.5 623.0 C 161.1 619.7 158.3 618.1 155.2 617.9 C 152.1 617.6 148.7 618.9 144.1 621.7 C 132.2 628.5 128.0 641.5 127.5 655.0 C 127.5 658.4 128.1 664.5 129.5 670.3 C 129.6 670.4 129.6 670.5 129.6 670.6 C 130.7 674.7 132.2 678.6 134.5 681.2 M 140.9 648.5 C 140.5 642.4 142.4 636.7 147.4 635.9 C 150.8 635.2 155.8 637.1 162.5 643.1 C 159.8 649.9 157.0 656.6 155.4 663.3 C 148.6 665.9 143.7 660.4 141.8 653.7 C 141.5 652.8 141.3 651.8 141.2 650.9 C 141.0 650.2 141.0 649.4 140.9 648.7 Z M 140.9 648.5 " fill="#F8A877"></path><path d="M 137.0 739.4 C 137.3 741.0 139.7 740.5 139.8 739.0 C 140.3 731.7 140.7 724.4 142.4 717.3 C 142.9 715.5 143.4 713.7 144.0 711.9 C 145.1 708.1 146.2 704.3 145.8 700.6 C 145.7 699.6 144.6 698.9 143.7 699.7 C 141.2 702.7 139.7 706.6 138.8 710.6 C 138.1 713.4 137.7 716.2 137.3 718.8 C 136.2 725.7 135.8 732.4 137.0 739.4 " fill="#562916"></path><path d="M 115.7 717.3 C 115.2 722.4 115.4 727.6 118.0 732.2 C 118.3 733.0 119.6 732.6 119.6 731.7 C 119.9 724.8 120.5 718.1 121.8 711.3 C 122.0 710.0 122.3 708.6 122.6 707.3 C 123.7 702.7 126.4 697.1 124.0 692.7 C 123.5 691.9 122.5 691.9 121.9 692.4 C 117.2 696.4 117.1 707.2 116.1 713.0 C 116.0 714.4 115.8 715.8 115.7 717.3 " fill="#562916"></path><path d="M 138.8 710.5 C 139.7 706.6 141.2 702.6 143.7 699.7 C 144.6 698.9 145.7 699.6 145.8 700.6 C 146.2 704.3 145.1 708.1 144.0 711.8 C 145.8 712.4 147.6 712.9 149.5 713.5 C 150.0 706.4 151.8 699.6 156.1 694.4 C 156.9 693.4 158.5 694.2 158.5 695.4 C 158.3 701.6 155.7 707.6 154.4 713.7 C 154.2 714.2 154.1 714.7 154.1 715.2 C 160.5 717.5 166.6 720.1 170.7 722.0 C 169.8 695.7 169.6 669.4 178.1 644.6 L 177.8 641.6 C 171.9 642.2 166.6 645.9 161.3 648.6 C 159.9 653.1 158.6 657.7 157.6 662.3 C 156.6 666.3 155.7 670.3 155.0 674.5 C 154.8 674.7 154.5 675.1 154.2 675.5 C 151.0 679.6 144.7 684.5 141.0 684.5 C 138.3 684.5 136.2 683.2 134.5 681.2 C 132.2 678.6 130.7 674.7 129.6 670.6 C 129.6 670.5 129.6 670.4 129.5 670.3 C 128.1 664.5 127.5 658.4 127.5 655.0 C 128.0 641.5 132.2 628.5 144.1 621.7 C 148.7 618.9 152.1 617.6 155.2 617.9 C 158.3 618.1 161.1 619.7 164.5 623.0 C 164.5 614.3 164.0 604.5 166.2 595.8 C 167.0 594.4 167.8 593.0 168.6 591.7 C 168.3 591.6 168.0 591.6 167.6 591.5 C 160.7 590.7 153.2 594.7 148.5 598.6 C 125.9 620.4 115.0 659.4 106.6 688.2 C 104.7 694.4 102.8 701.8 101.2 709.9 C 104.7 712.1 108.2 714.3 112.0 715.9 C 113.2 716.5 114.4 716.9 115.7 717.3 C 115.7 715.8 115.9 714.4 116.1 713.0 C 117.1 707.2 117.2 696.4 121.9 692.4 C 122.5 691.9 123.5 691.9 124.0 692.7 C 126.4 697.1 123.7 702.7 122.6 707.3 C 122.3 708.6 122.0 710.0 121.8 711.3 C 122.6 710.4 123.9 709.9 125.3 709.5 C 126.5 709.3 127.9 709.2 129.5 709.2 C 132.2 709.3 135.4 709.7 138.8 710.5 " fill="#2E0A00"></path><path d="M 139.8 739.0 C 139.7 740.5 137.3 741.0 137.0 739.4 C 135.8 732.4 136.2 725.7 137.3 718.8 C 137.7 716.1 138.1 713.3 138.8 710.5 C 135.4 709.7 132.2 709.3 129.5 709.2 C 127.9 709.2 126.5 709.3 125.3 709.5 C 123.9 709.9 122.6 710.4 121.8 711.3 C 120.5 718.1 119.9 724.8 119.6 731.7 C 119.6 732.6 118.3 733.0 118.0 732.2 C 115.4 727.6 115.2 722.4 115.7 717.3 C 114.4 716.9 113.2 716.5 112.0 715.9 C 108.2 714.3 104.7 712.1 101.2 709.9 C 94.9 739.9 91.6 779.7 102.9 804.4 C 108.4 822.8 120.3 838.7 141.6 849.3 C 185.3 871.7 241.1 867.9 289.4 852.2 C 289.8 852.2 290.1 852.2 290.5 852.3 C 300.2 844.3 311.0 835.0 318.4 825.1 C 320.2 822.8 321.7 820.6 323.0 818.5 C 313.6 812.5 302.5 808.7 291.7 804.2 C 291.0 803.9 290.2 803.6 289.5 803.3 C 283.7 800.9 277.9 798.3 272.7 795.0 C 274.8 804.4 281.0 813.7 286.2 821.0 C 266.3 810.3 242.0 805.5 218.4 801.8 L 218.2 801.8 C 204.9 797.6 191.9 792.4 179.6 787.0 C 160.7 779.2 141.4 763.2 121.9 755.5 C 124.4 755.6 126.9 755.7 129.4 755.9 C 142.9 758.1 157.3 759.0 171.8 759.9 L 171.9 759.0 C 171.9 753.1 171.7 747.2 171.5 741.2 C 171.3 734.8 171.0 728.4 170.7 722.0 C 166.6 720.1 160.6 717.5 154.1 715.2 C 152.3 723.3 151.8 731.7 151.7 740.0 C 151.7 741.1 150.0 741.1 150.0 740.0 C 149.9 732.2 148.7 722.6 149.5 713.5 C 147.6 712.9 145.8 712.4 144.0 711.8 C 143.4 713.7 142.9 715.5 142.4 717.3 C 140.7 724.4 140.3 731.7 139.8 739.0 M 139.5 799.1 C 156.6 815.0 182.5 821.4 204.8 826.1 C 217.3 828.8 230.2 829.5 243.1 829.8 C 252.4 829.9 261.9 826.9 271.0 827.9 C 272.9 828.2 274.3 830.4 272.7 831.9 C 257.8 845.4 224.4 835.9 207.5 831.7 C 183.3 825.8 157.7 816.7 139.4 799.2 C 139.3 799.1 139.4 799.1 139.5 799.1 M 229.2 853.3 C 218.0 856.5 205.8 852.1 195.1 849.1 C 183.8 845.9 170.9 842.9 160.9 837.0 C 160.6 836.7 160.6 836.1 161.0 836.0 C 170.1 834.2 179.1 837.4 187.9 839.7 C 201.4 843.2 216.2 844.1 229.2 848.7 C 231.4 849.5 231.6 852.6 229.2 853.3 " fill="#4E220B"></path><path d="M 320.6 705.8 C 315.6 715.2 313.1 724.6 305.8 732.8 C 301.7 737.5 292.3 744.3 286.4 739.1 C 285.6 738.4 285.6 737.0 286.4 736.2 C 288.3 734.4 290.5 734.0 292.9 732.9 C 296.4 731.2 299.2 728.4 302.0 725.7 C 308.2 719.6 315.3 712.7 320.4 705.7 C 320.4 705.6 320.6 705.7 320.6 705.8 " fill="#2E0A00"></path><path d="M 201.6 702.6 C 206.6 708.3 210.2 714.1 216.2 719.0 C 221.2 723.1 229.7 734.2 237.1 733.1 C 237.8 732.9 238.4 733.7 237.8 734.3 C 231.9 740.7 223.6 736.4 218.1 731.6 C 213.4 727.5 211.1 722.8 208.4 717.3 C 206.0 712.4 202.5 708.1 201.5 702.7 C 201.5 702.6 201.6 702.6 201.6 702.6 " fill="#2E0A00"></path><path d="M 244.3 687.2 C 244.3 679.2 239.1 672.8 232.8 672.8 C 226.4 672.8 221.2 679.2 221.2 687.2 C 221.2 695.1 226.4 701.6 232.8 701.6 C 239.1 701.6 244.3 695.1 244.3 687.2 " fill="#314751"></path><path d="M 304.9 697.0 C 304.9 689.1 299.8 682.6 293.4 682.6 C 287.0 682.6 281.9 689.1 281.9 697.0 C 281.9 705.0 287.0 711.5 293.4 711.5 C 299.8 711.5 304.9 705.0 304.9 697.0 " fill="#314751"></path><path d="M 245.6 599.2 C 250.9 606.1 256.5 611.5 265.7 611.8 C 273.8 612.0 281.6 604.5 285.8 598.4 C 285.8 598.3 286.0 598.4 285.9 598.5 C 281.4 607.6 276.7 616.5 265.7 617.5 C 255.6 618.3 248.7 607.2 245.3 599.4 C 245.2 599.1 245.5 598.9 245.6 599.2 " fill="#CF8557"></path><path d="M 282.1 336.8 C 282.6 324.5 284.4 311.9 284.4 300.7 C 284.4 271.6 286.5 242.6 287.5 214.5 C 289.5 169.1 301.3 121.8 294.5 76.1 L 294.8 76.0 C 293.8 61.1 290.3 48.9 284.4 39.2 C 272.5 19.2 250.8 9.2 220.2 5.0 C 192.2 0.8 164.2 3.9 136.2 7.1 C 112.4 10.2 96.8 6.0 95.8 33.0 C 93.7 85.9 92.7 138.9 96.8 191.8 C 100.3 233.5 100.9 291.2 115.6 335.1 C 122.5 350.6 131.0 365.4 138.3 380.6 C 154.9 411.7 174.5 435.5 178.7 470.8 L 186.2 482.2 C 202.5 470.5 216.7 471.5 214.0 444.9 C 209.6 399.9 255.8 377.3 281.9 344.5 C 281.9 342.0 282.0 339.4 282.1 336.8 M 109.3 135.7 C 109.2 120.8 109.3 110.8 124.8 109.8 C 140.3 108.7 167.4 118.1 182.9 123.3 C 180.8 131.6 179.8 140.9 179.8 149.2 L 178.7 149.2 C 163.2 139.9 129.0 135.7 109.3 135.7 " fill="#403D58"></path><path d="M 286.6 338.4 C 287.6 341.8 288.6 345.3 289.3 348.9 C 294.9 357.4 301.3 365.4 307.3 374.3 C 312.4 381.6 318.6 388.8 318.6 398.2 C 319.7 410.6 310.4 415.8 309.3 426.2 C 309.3 437.6 318.6 442.8 319.7 452.1 C 320.7 459.4 316.6 469.8 314.5 477.1 C 311.0 485.9 301.3 500.1 300.6 511.2 C 315.9 488.9 329.1 464.0 336.2 438.6 C 341.5 419.0 344.5 398.9 346.3 378.5 C 343.4 369.0 345.5 355.2 348.5 341.7 C 348.5 341.7 348.5 341.6 348.5 341.5 C 349.7 310.4 349.8 279.1 352.8 248.8 C 356.0 215.0 356.7 181.8 358.3 148.3 C 350.5 148.3 343.4 148.6 336.2 151.3 C 334.2 144.0 334.2 134.7 333.1 127.4 C 341.0 124.5 350.7 125.2 359.5 125.3 C 359.7 122.2 359.9 119.1 360.1 116.0 C 360.5 112.1 360.9 107.2 361.4 101.8 C 364.0 74.5 369.2 32.5 379.4 19.9 C 362.8 12.0 330.4 15.7 313.5 19.5 C 297.9 23.2 289.2 28.5 284.4 39.2 C 290.3 48.9 293.8 61.1 294.8 76.0 L 294.5 76.1 C 301.3 121.8 289.5 169.1 287.5 214.5 C 286.5 242.6 284.4 271.6 284.4 300.7 C 284.4 311.9 282.6 324.5 282.1 336.8 C 282.4 337.5 282.7 338.0 283.1 338.7 C 283.5 336.2 283.9 333.6 284.2 331.1 C 285.1 333.5 285.9 335.9 286.6 338.4 " fill="#464460"></path><path d="M 289.0 500.6 C 293.4 486.6 296.3 472.1 295.8 457.3 C 295.7 451.7 295.6 445.7 295.6 439.6 C 289.6 450.1 280.2 461.1 280.2 468.0 L 280.1 469.8 L 280.2 469.8 C 282.5 479.6 283.7 494.2 283.0 506.7 C 285.3 504.9 287.4 503.0 289.0 500.6 " fill="#F7A9AC"></path><path d="M 289.3 348.9 C 287.6 346.4 288.5 339.3 287.0 336.7 C 287.1 325.7 283.6 331.4 282.7 332.4 C 282.7 332.6 280.9 343.8 280.9 344.2 C 276.6 368.9 271.2 393.7 261.4 417.1 C 260.9 433.2 260.1 457.0 267.8 465.6 L 267.6 466.1 C 271.2 468.1 275.6 469.7 280.1 469.8 L 280.2 468.0 C 280.2 461.1 289.6 450.1 295.6 439.6 C 295.4 410.9 295.6 377.4 289.3 348.9 " fill="#D24761"></path><path d="M 272.0 547.6 C 281.7 536.8 291.5 524.5 300.6 511.2 C 301.3 500.1 311.0 485.9 314.5 477.1 C 316.6 469.8 320.7 459.4 319.7 452.1 C 318.6 442.8 309.3 437.6 309.3 426.2 C 310.4 415.8 319.7 410.6 318.6 398.2 C 318.6 388.8 312.4 381.6 307.3 374.4 C 301.3 365.4 294.9 357.4 289.4 348.9 C 295.6 377.4 295.4 410.9 295.6 439.6 C 295.6 445.7 295.7 451.7 295.8 457.3 C 296.3 472.1 293.4 486.6 289.0 500.6 C 285.4 512.3 280.8 523.7 276.0 534.9 C 274.3 539.0 272.5 543.0 270.8 547.1 Z M 272.0 547.6 " fill="#6C677E"></path><path d="M 359.5 125.3 C 359.1 133.0 358.6 140.6 358.3 148.3 C 356.7 181.8 356.0 215.0 352.8 248.8 C 349.8 279.1 349.7 310.4 348.5 341.5 C 351.2 329.9 354.6 318.5 355.9 310.0 C 361.1 281.0 367.3 252.9 377.7 226.0 C 394.3 179.3 417.1 141.9 443.0 100.4 C 421.2 90.1 400.5 78.6 379.8 67.3 C 372.5 78.1 368.4 90.6 361.4 101.8 C 360.8 107.2 360.5 112.1 360.1 116.0 C 359.9 119.1 359.7 122.2 359.5 125.3 " fill="#3A3952"></path><path d="M 358.3 148.3 C 358.6 140.6 359.0 133.0 359.6 125.3 C 350.6 125.2 341.0 124.5 333.1 127.4 C 334.2 134.7 334.2 144.0 336.2 151.3 C 343.4 148.6 350.5 148.3 358.3 148.3 " fill="#6C677E"></path><path d="M 283.0 506.7 C 276.7 511.4 268.9 514.7 263.7 520.6 C 257.5 527.9 253.3 538.3 247.1 546.6 L 246.1 546.6 C 246.2 534.3 246.8 522.7 242.9 510.2 C 242.3 508.2 240.4 504.6 238.3 500.6 C 234.0 492.9 228.3 484.3 227.5 485.8 L 226.6 485.4 C 222.4 493.0 217.9 500.6 212.9 508.2 C 204.2 520.4 189.4 534.3 180.8 545.7 C 183.4 547.5 186.4 549.0 189.1 549.7 C 196.1 545.4 202.2 544.0 207.9 544.0 C 219.1 544.0 228.9 549.7 241.9 551.8 C 260.4 554.7 265.2 543.9 276.0 534.9 C 280.8 523.7 285.4 512.3 289.0 500.6 C 287.4 503.0 285.3 504.9 283.0 506.7 " fill="#FAD2D0"></path><path d="M 283.0 506.7 C 283.7 494.2 282.5 479.6 280.2 469.8 L 280.1 469.8 C 275.7 469.7 271.2 468.1 267.6 466.1 C 266.1 465.3 264.8 464.4 263.7 463.5 C 255.0 473.2 242.6 487.2 238.3 500.6 C 240.4 504.6 242.3 508.2 242.9 510.2 C 246.8 522.7 246.2 534.3 246.1 546.6 L 247.1 546.6 C 253.3 538.3 257.5 527.9 263.7 520.6 C 268.9 514.7 276.7 511.4 283.0 506.7 " fill="#B13B52"></path><path d="M 180.8 545.7 C 189.4 534.3 204.2 520.4 212.9 508.2 C 217.9 500.6 222.4 493.0 226.7 485.4 C 235.8 469.1 243.8 452.8 252.3 436.6 C 255.6 430.1 258.6 423.7 261.4 417.1 C 271.2 393.8 277.7 369.9 282.0 345.2 C 281.9 345.0 281.9 344.8 281.9 344.5 C 255.8 377.3 209.6 399.9 214.0 444.9 C 216.7 471.5 202.5 470.5 186.2 482.1 C 184.1 483.6 181.9 485.4 179.8 487.5 C 169.9 494.9 157.5 507.4 149.6 519.6 C 159.3 529.3 170.6 537.3 180.3 546.2 C 180.4 546.1 180.6 545.9 180.8 545.7 " fill="#6C677E"></path><path d="M 267.6 466.1 L 267.8 465.7 C 260.1 457.0 260.9 433.1 261.4 417.1 C 258.6 423.7 255.6 430.1 252.3 436.6 C 243.8 452.8 235.8 469.1 226.7 485.4 L 227.5 485.8 C 228.3 484.3 234.0 492.9 238.3 500.6 C 242.6 487.2 255.0 473.2 263.7 463.5 C 264.8 464.4 266.1 465.3 267.6 466.1 " fill="#F7A9AC"></path><path d="M 115.6 335.1 C 111.7 326.4 108.4 317.3 106.1 307.9 C 101.0 285.1 97.9 259.2 93.7 234.3 C 84.4 179.3 80.3 126.4 80.3 70.4 C 62.6 69.3 41.9 70.4 24.3 72.4 C 19.4 73.3 10.0 74.7 5.2 74.8 C -7.2 83.0 20.2 224.1 24.3 243.6 C 36.7 312.1 54.3 375.4 90.6 436.6 C 107.2 464.6 124.8 493.7 146.6 516.5 C 147.6 517.5 148.5 518.6 149.6 519.6 C 157.5 507.4 169.9 494.9 179.8 487.5 C 181.9 485.4 184.1 483.6 186.2 482.1 L 178.7 470.8 C 174.5 435.5 154.9 411.7 138.3 380.6 C 131.0 365.4 122.5 350.5 115.6 335.1 " fill="#403D58"></path><path d="M 179.8 149.2 C 179.8 140.9 180.8 131.6 182.9 123.3 C 167.3 118.1 140.3 108.7 124.8 109.8 C 109.3 110.8 109.2 120.8 109.3 135.7 C 129.0 135.7 163.2 139.9 178.7 149.2 Z M 179.8 149.2 " fill="#6C677E"></path><path d="M 319.1 222.7 C 319.1 215.8 313.5 210.2 306.7 210.2 C 299.8 210.2 294.3 215.8 294.3 222.7 C 294.3 229.5 299.8 235.1 306.7 235.1 C 313.5 235.1 319.1 229.5 319.1 222.7 " fill="#6C677E"></path><path d="M 325.5 124.5 C 325.5 117.7 319.9 112.1 313.1 112.1 C 306.2 112.1 300.6 117.7 300.6 124.5 C 300.6 131.4 306.2 137.0 313.1 137.0 C 319.9 137.0 325.5 131.4 325.5 124.5 " fill="#6C677E"></path></g></g></g></svg>