<?xml version="1.0" encoding="UTF-8"?><svg xmlns="http://www.w3.org/2000/svg" xmlns:xlink="http://www.w3.org/1999/xlink" clip-rule="evenodd" stroke-miterlimit="4.00" viewBox="0 0 437 204"><desc>SVG generated by Keynote</desc><defs></defs><g transform="matrix(1.00, 0.00, -0.00, -1.00, 0.0, 204.0)"><image xlink:href="22833EE6A8856B9058B5A795B793DBF8.png" width="434.00" height="197.00" transform="matrix(1.00, 0.00, -0.00, -1.00, 1.4, 198.6)" opacity="0.50"></image><path d="M 79.4 197.6 L 357.3 197.6 C 378.8 197.6 389.7 197.6 401.3 193.9 C 414.0 189.3 424.0 179.3 428.7 166.6 C 432.3 155.0 432.3 144.1 432.3 122.2 L 432.3 81.5 C 432.3 60.0 432.3 49.1 428.7 37.5 C 424.0 24.8 414.0 14.8 401.3 10.2 C 389.7 6.5 378.8 6.5 356.9 6.5 L 79.4 6.5 C 57.9 6.5 47.0 6.5 35.4 10.2 C 22.7 14.8 12.7 24.8 8.0 37.5 C 4.4 49.1 4.4 60.0 4.4 81.9 L 4.4 122.6 C 4.4 144.1 4.4 155.0 8.0 166.6 C 12.7 179.3 22.7 189.3 35.4 193.9 C 47.0 197.6 57.9 197.6 79.8 197.6 Z M 79.4 197.6 " fill="#000000"></path></g></svg>