<?xml version="1.0" encoding="UTF-8"?><svg xmlns="http://www.w3.org/2000/svg" xmlns:xlink="http://www.w3.org/1999/xlink" clip-rule="evenodd" stroke-miterlimit="4.00" viewBox="0 0 438 205"><desc>SVG generated by Keynote</desc><defs></defs><g transform="matrix(1.00, 0.00, -0.00, -1.00, 0.0, 205.0)"><image xlink:href="22833EE6A8856B9058B5A795B793DBF8.png" width="434.00" height="197.00" transform="matrix(1.00, 0.00, -0.00, -1.00, 1.4, 199.6)" opacity="0.50"></image><path d="M 79.4 198.6 L 357.3 198.6 C 378.8 198.6 389.7 198.6 401.3 194.9 C 414.0 190.3 424.0 180.3 428.7 167.6 C 432.3 156.0 432.3 145.1 432.3 123.2 L 432.3 82.5 C 432.3 61.0 432.3 50.1 428.7 38.5 C 424.0 25.8 414.0 15.8 401.3 11.2 C 389.7 7.5 378.8 7.5 356.9 7.5 L 79.4 7.5 C 57.9 7.5 47.0 7.5 35.4 11.2 C 22.7 15.8 12.7 25.8 8.0 38.5 C 4.4 50.1 4.4 61.0 4.4 82.9 L 4.4 123.6 C 4.4 145.1 4.4 156.0 8.0 167.6 C 12.7 180.3 22.7 190.3 35.4 194.9 C 47.0 198.6 57.9 198.6 79.8 198.6 Z M 79.4 198.6 " fill="#000000"></path></g></svg>