<?xml version="1.0" encoding="UTF-8"?><svg xmlns="http://www.w3.org/2000/svg" xmlns:xlink="http://www.w3.org/1999/xlink" clip-rule="evenodd" stroke-miterlimit="4.00" viewBox="0 0 134 66"><desc>SVG generated by Keynote</desc><defs></defs><g transform="matrix(1.00, 0.00, -0.00, -1.00, 0.0, 66.0)"><path d="M 22.9 0.0 L 102.5 0.0 C 109.1 0.0 112.4 0.0 116.0 1.1 C 119.8 2.5 122.9 5.6 124.3 9.5 C 125.4 13.0 125.4 16.4 125.4 23.0 L 125.4 35.0 C 125.4 41.6 125.4 44.9 124.3 48.5 C 122.9 52.4 119.8 55.4 116.0 56.8 C 112.4 58.0 109.1 58.0 102.4 58.0 L 22.9 58.0 C 16.4 58.0 13.0 58.0 9.5 56.8 C 5.6 55.4 2.5 52.4 1.1 48.5 C 0.0 44.9 0.0 41.6 0.0 34.9 L 0.0 22.9 C 0.0 16.4 0.0 13.0 1.1 9.5 C 2.5 5.6 5.6 2.5 9.5 1.1 C 13.0 0.0 16.4 0.0 23.0 0.0 Z M 22.9 0.0 " fill="none" stroke="#FEFFFF" stroke-width="5.00" transform="matrix(1.00, 0.00, 0.00, -1.00, 4.2, 62.3)"></path></g></svg>