<?xml version="1.0" encoding="UTF-8"?><svg xmlns="http://www.w3.org/2000/svg" xmlns:xlink="http://www.w3.org/1999/xlink" clip-rule="evenodd" stroke-miterlimit="4.00" viewBox="0 0 437 269"><desc>SVG generated by Keynote</desc><defs></defs><g transform="matrix(1.00, 0.00, -0.00, -1.00, 0.0, 269.0)"><image xlink:href="2082D407AF15204F6CC01B87F4104CB5.png" width="434.00" height="262.00" transform="matrix(1.00, 0.00, -0.00, -1.00, 1.3, 263.0)" opacity="0.50"></image><path d="M 79.3 262.0 L 357.2 262.0 C 378.7 262.0 389.6 262.0 401.2 258.4 C 413.9 253.7 423.9 243.7 428.6 231.0 C 432.2 219.4 432.2 208.5 432.2 186.6 L 432.2 81.2 C 432.2 59.7 432.2 48.7 428.6 37.1 C 423.9 24.4 413.9 14.4 401.2 9.8 C 389.6 6.1 378.7 6.1 356.8 6.1 L 79.3 6.1 C 57.8 6.1 46.9 6.1 35.3 9.8 C 22.6 14.4 12.6 24.4 8.0 37.1 C 4.3 48.7 4.3 59.7 4.3 81.5 L 4.3 187.0 C 4.3 208.5 4.3 219.4 8.0 231.0 C 12.6 243.7 22.6 253.7 35.3 258.4 C 46.9 262.0 57.8 262.0 79.7 262.0 Z M 79.3 262.0 " fill="#000000"></path></g></svg>