<?xml version="1.0" encoding="UTF-8"?><svg xmlns="http://www.w3.org/2000/svg" xmlns:xlink="http://www.w3.org/1999/xlink" clip-rule="evenodd" stroke-miterlimit="4.00" viewBox="0 0 405 290"><desc>SVG generated by Keynote</desc><defs></defs><g transform="matrix(1.00, 0.00, -0.00, -1.00, 0.0, 290.0)"><image xlink:href="../../EAE0C371-AE6E-44AE-A8A6-EF6DAB399E07/assets/F43B88FD2CDF27280A64D2C4C591BE4E.png" width="402.00" height="283.00" transform="matrix(1.00, 0.00, -0.00, -1.00, 1.3, 284.5)" opacity="0.50"></image><path d="M 79.3 283.5 L 325.0 283.5 C 346.5 283.5 357.5 283.5 369.1 279.8 C 381.8 275.2 391.8 265.2 396.4 252.5 C 400.1 240.9 400.1 230.0 400.1 208.1 L 400.1 82.0 C 400.1 60.5 400.1 49.6 396.4 38.0 C 391.8 25.2 381.8 15.2 369.1 10.6 C 357.5 6.9 346.5 6.9 324.7 6.9 L 79.3 6.9 C 57.8 6.9 46.9 6.9 35.3 10.6 C 22.6 15.2 12.6 25.2 8.0 38.0 C 4.3 49.6 4.3 60.5 4.3 82.3 L 4.3 208.4 C 4.3 230.0 4.3 240.9 8.0 252.5 C 12.6 265.2 22.6 275.2 35.3 279.8 C 46.9 283.5 57.8 283.5 79.7 283.5 Z M 79.3 283.5 " fill="#000000"></path></g></svg>