<?xml version="1.0" encoding="UTF-8"?><svg xmlns="http://www.w3.org/2000/svg" xmlns:xlink="http://www.w3.org/1999/xlink" clip-rule="evenodd" stroke-miterlimit="4.00" viewBox="0 0 405 246"><desc>SVG generated by Keynote</desc><defs></defs><g transform="matrix(1.00, 0.00, -0.00, -1.00, 0.0, 246.0)"><image xlink:href="2071E82B52DE3F62107E09611A2C8A46.png" width="402.00" height="240.00" transform="matrix(1.00, 0.00, -0.00, -1.00, 1.3, 240.7)" opacity="0.50"></image><path d="M 79.3 239.7 L 325.0 239.7 C 346.5 239.7 357.5 239.7 369.1 236.0 C 381.8 231.4 391.8 221.4 396.4 208.7 C 400.1 197.1 400.1 186.1 400.1 164.3 L 400.1 81.2 C 400.1 59.7 400.1 48.7 396.4 37.1 C 391.8 24.4 381.8 14.4 369.1 9.8 C 357.5 6.1 346.5 6.1 324.7 6.1 L 79.3 6.1 C 57.8 6.1 46.9 6.1 35.3 9.8 C 22.6 14.4 12.6 24.4 8.0 37.1 C 4.3 48.7 4.3 59.7 4.3 81.5 L 4.3 164.6 C 4.3 186.1 4.3 197.1 8.0 208.7 C 12.6 221.4 22.6 231.4 35.3 236.0 C 46.9 239.7 57.8 239.7 79.7 239.7 Z M 79.3 239.7 " fill="#000000"></path></g></svg>