<?xml version="1.0" encoding="UTF-8"?><svg xmlns="http://www.w3.org/2000/svg" xmlns:xlink="http://www.w3.org/1999/xlink" clip-rule="evenodd" stroke-miterlimit="4.00" viewBox="0 0 303 21"><desc>SVG generated by Keynote</desc><defs></defs><g transform="matrix(1.00, 0.00, -0.00, -1.00, 0.0, 21.0)"><text xml:space="preserve" font-family="Avenir-Book" font-size="16.0" fill="#FEFFFF" transform="matrix(1.00, 0.00, -0.00, -1.00, 1.0, 6.0)">H</text><text xml:space="preserve" font-family="Avenir-Book" font-size="16.0" fill="#FEFFFF" transform="matrix(1.00, 0.00, -0.00, -1.00, 12.6, 6.0)">e</text><text xml:space="preserve" font-family="Avenir-Book" font-size="16.0" fill="#FEFFFF" transform="matrix(1.00, 0.00, -0.00, -1.00, 21.4, 6.0)"> </text><text xml:space="preserve" font-family="Avenir-Book" font-size="16.0" fill="#FEFFFF" transform="matrix(1.00, 0.00, -0.00, -1.00, 25.9, 6.0)">i</text><text xml:space="preserve" font-family="Avenir-Book" font-size="16.0" fill="#FEFFFF" transform="matrix(1.00, 0.00, -0.00, -1.00, 29.7, 6.0)">s</text><text xml:space="preserve" font-family="Avenir-Book" font-size="16.0" fill="#FEFFFF" transform="matrix(1.00, 0.00, -0.00, -1.00, 36.6, 6.0)"> </text><text xml:space="preserve" font-family="Avenir-Book" font-size="16.0" fill="#FEFFFF" transform="matrix(1.00, 0.00, -0.00, -1.00, 41.0, 6.0)">h</text><text xml:space="preserve" font-family="Avenir-Book" font-size="16.0" fill="#FEFFFF" transform="matrix(1.00, 0.00, -0.00, -1.00, 49.9, 6.0)">a</text><text xml:space="preserve" font-family="Avenir-Book" font-size="16.0" fill="#FEFFFF" transform="matrix(1.00, 0.00, -0.00, -1.00, 58.2, 6.0)">p</text><text xml:space="preserve" font-family="Avenir-Book" font-size="16.0" fill="#FEFFFF" transform="matrix(1.00, 0.00, -0.00, -1.00, 68.0, 6.0)">p</text><text xml:space="preserve" font-family="Avenir-Book" font-size="16.0" fill="#FEFFFF" transform="matrix(1.00, 0.00, -0.00, -1.00, 77.8, 6.0)">y</text><text xml:space="preserve" font-family="Avenir-Book" font-size="16.0" fill="#FEFFFF" transform="matrix(1.00, 0.00, -0.00, -1.00, 84.0, 6.0)">,</text><text xml:space="preserve" font-family="Avenir-Book" font-size="16.0" fill="#FEFFFF" transform="matrix(1.00, 0.00, -0.00, -1.00, 88.4, 6.0)"> </text><text xml:space="preserve" font-family="Avenir-Book" font-size="16.0" fill="#FEFFFF" transform="matrix(1.00, 0.00, -0.00, -1.00, 92.9, 6.0)">s</text><text xml:space="preserve" font-family="Avenir-Book" font-size="16.0" fill="#FEFFFF" transform="matrix(1.00, 0.00, -0.00, -1.00, 99.7, 6.0)">a</text><text xml:space="preserve" font-family="Avenir-Book" font-size="16.0" fill="#FEFFFF" transform="matrix(1.00, 0.00, -0.00, -1.00, 108.0, 6.0)">t</text><text xml:space="preserve" font-family="Avenir-Book" font-size="16.0" fill="#FEFFFF" transform="matrix(1.00, 0.00, -0.00, -1.00, 113.3, 6.0)">i</text><text xml:space="preserve" font-family="Avenir-Book" font-size="16.0" fill="#FEFFFF" transform="matrix(1.00, 0.00, -0.00, -1.00, 117.2, 6.0)">s</text><text xml:space="preserve" font-family="Avenir-Book" font-size="16.0" fill="#FEFFFF" transform="matrix(1.00, 0.00, -0.00, -1.00, 124.0, 6.0)">f</text><text xml:space="preserve" font-family="Avenir-Book" font-size="16.0" fill="#FEFFFF" transform="matrix(1.00, 0.00, -0.00, -1.00, 128.7, 6.0)">i</text><text xml:space="preserve" font-family="Avenir-Book" font-size="16.0" fill="#FEFFFF" transform="matrix(1.00, 0.00, -0.00, -1.00, 132.6, 6.0)">e</text><text xml:space="preserve" font-family="Avenir-Book" font-size="16.0" fill="#FEFFFF" transform="matrix(1.00, 0.00, -0.00, -1.00, 141.4, 6.0)">d</text><text xml:space="preserve" font-family="Avenir-Book" font-size="16.0" fill="#FEFFFF" transform="matrix(1.00, 0.00, -0.00, -1.00, 151.2, 6.0)"> </text><text xml:space="preserve" font-family="Avenir-Book" font-size="16.0" fill="#FEFFFF" transform="matrix(1.00, 0.00, -0.00, -1.00, 155.7, 6.0)">a</text><text xml:space="preserve" font-family="Avenir-Book" font-size="16.0" fill="#FEFFFF" transform="matrix(1.00, 0.00, -0.00, -1.00, 164.0, 6.0)">n</text><text xml:space="preserve" font-family="Avenir-Book" font-size="16.0" fill="#FEFFFF" transform="matrix(1.00, 0.00, -0.00, -1.00, 172.9, 6.0)">d</text><text xml:space="preserve" font-family="Avenir-Book" font-size="16.0" fill="#FEFFFF" transform="matrix(1.00, 0.00, -0.00, -1.00, 182.6, 6.0)"> </text><text xml:space="preserve" font-family="Avenir-Book" font-size="16.0" fill="#FEFFFF" transform="matrix(1.00, 0.00, -0.00, -1.00, 187.1, 6.0)">e</text><text xml:space="preserve" font-family="Avenir-Book" font-size="16.0" fill="#FEFFFF" transform="matrix(1.00, 0.00, -0.00, -1.00, 196.0, 6.0)">n</text><text xml:space="preserve" font-family="Avenir-Book" font-size="16.0" fill="#FEFFFF" transform="matrix(1.00, 0.00, -0.00, -1.00, 204.9, 6.0)">j</text><text xml:space="preserve" font-family="Avenir-Book" font-size="16.0" fill="#FEFFFF" transform="matrix(1.00, 0.00, -0.00, -1.00, 208.7, 6.0)">o</text><text xml:space="preserve" font-family="Avenir-Book" font-size="16.0" fill="#FEFFFF" transform="matrix(1.00, 0.00, -0.00, -1.00, 218.2, 6.0)">y</text><text xml:space="preserve" font-family="Avenir-Book" font-size="16.0" fill="#FEFFFF" transform="matrix(1.00, 0.00, -0.00, -1.00, 225.9, 6.0)">i</text><text xml:space="preserve" font-family="Avenir-Book" font-size="16.0" fill="#FEFFFF" transform="matrix(1.00, 0.00, -0.00, -1.00, 229.8, 6.0)">n</text><text xml:space="preserve" font-family="Avenir-Book" font-size="16.0" fill="#FEFFFF" transform="matrix(1.00, 0.00, -0.00, -1.00, 238.7, 6.0)">g</text><text xml:space="preserve" font-family="Avenir-Book" font-size="16.0" fill="#FEFFFF" transform="matrix(1.00, 0.00, -0.00, -1.00, 248.4, 6.0)"> </text><text xml:space="preserve" font-family="Avenir-Book" font-size="16.0" fill="#FEFFFF" transform="matrix(1.00, 0.00, -0.00, -1.00, 252.9, 6.0)">h</text><text xml:space="preserve" font-family="Avenir-Book" font-size="16.0" fill="#FEFFFF" transform="matrix(1.00, 0.00, -0.00, -1.00, 261.8, 6.0)">i</text><text xml:space="preserve" font-family="Avenir-Book" font-size="16.0" fill="#FEFFFF" transform="matrix(1.00, 0.00, -0.00, -1.00, 265.6, 6.0)">s</text><text xml:space="preserve" font-family="Avenir-Book" font-size="16.0" fill="#FEFFFF" transform="matrix(1.00, 0.00, -0.00, -1.00, 272.4, 6.0)"> </text><text xml:space="preserve" font-family="Avenir-Book" font-size="16.0" fill="#FEFFFF" transform="matrix(1.00, 0.00, -0.00, -1.00, 276.9, 6.0)">l</text><text xml:space="preserve" font-family="Avenir-Book" font-size="16.0" fill="#FEFFFF" transform="matrix(1.00, 0.00, -0.00, -1.00, 280.7, 6.0)">i</text><text xml:space="preserve" font-family="Avenir-Book" font-size="16.0" fill="#FEFFFF" transform="matrix(1.00, 0.00, -0.00, -1.00, 284.6, 6.0)">f</text><text xml:space="preserve" font-family="Avenir-Book" font-size="16.0" fill="#FEFFFF" transform="matrix(1.00, 0.00, -0.00, -1.00, 289.3, 6.0)">e</text><text xml:space="preserve" font-family="Avenir-Book" font-size="16.0" fill="#FEFFFF" transform="matrix(1.00, 0.00, -0.00, -1.00, 298.2, 6.0)">.</text></g></svg>