<?xml version="1.0" encoding="UTF-8"?><svg xmlns="http://www.w3.org/2000/svg" xmlns:xlink="http://www.w3.org/1999/xlink" clip-rule="evenodd" stroke-miterlimit="4.00" viewBox="0 0 431 179"><desc>SVG generated by Keynote</desc><defs></defs><g transform="matrix(1.00, 0.00, -0.00, -1.00, 0.0, 179.0)"><g><clipPath id="clip-91"><path d="M 0.7 0.1 L 430.1 0.1 L 430.1 178.1 L 0.7 178.1 Z M 0.7 0.1 "></path></clipPath><g clip-path="url(#clip-91)"><image xlink:href="636CCCAF9247065969F92C2221F8C882.png" width="427.00" height="176.00" transform="matrix(1.00, 0.00, -0.00, -1.00, 1.7, 177.1)" opacity="0.25"></image><path d="M 79.8 176.1 L 351.0 176.1 C 372.5 176.1 383.5 176.1 395.1 172.4 C 407.8 167.8 417.8 157.8 422.4 145.1 C 426.1 133.5 426.1 122.5 426.1 100.7 L 426.1 81.1 C 426.1 59.6 426.1 48.7 422.4 37.1 C 417.8 24.4 407.8 14.4 395.1 9.7 C 383.5 6.1 372.5 6.1 350.7 6.1 L 79.8 6.1 C 58.3 6.1 47.3 6.1 35.7 9.7 C 23.0 14.4 13.0 24.4 8.4 37.1 C 4.7 48.7 4.7 59.6 4.7 81.5 L 4.7 101.0 C 4.7 122.5 4.7 133.5 8.4 145.1 C 13.0 157.8 23.0 167.8 35.7 172.4 C 47.3 176.1 58.3 176.1 80.1 176.1 Z M 79.8 176.1 " fill="#000000" fill-opacity="0.50"></path></g></g><g><clipPath id="clip-92"><path d="M 15.3 22.2 L 431.1 22.2 L 431.1 162.2 L 15.3 162.2 Z M 15.3 22.2 "></path></clipPath><g clip-path="url(#clip-92)"><text xml:space="preserve" font-family="Avenir-Black" font-weight="bold" font-size="41.0" fill="#FEFFFF" transform="matrix(1.00, 0.00, -0.00, -1.00, 29.0, 107.0)">B</text><text xml:space="preserve" font-family="Avenir-Black" font-weight="bold" font-size="41.0" fill="#FEFFFF" transform="matrix(1.00, 0.00, -0.00, -1.00, 55.6, 107.0)">E</text><text xml:space="preserve" font-family="Avenir-Black" font-weight="bold" font-size="41.0" fill="#FEFFFF" transform="matrix(1.00, 0.00, -0.00, -1.00, 81.4, 107.0)">I</text><text xml:space="preserve" font-family="Avenir-Black" font-weight="bold" font-size="41.0" fill="#FEFFFF" transform="matrix(1.00, 0.00, -0.00, -1.00, 93.5, 107.0)">N</text><text xml:space="preserve" font-family="Avenir-Black" font-weight="bold" font-size="41.0" fill="#FEFFFF" transform="matrix(1.00, 0.00, -0.00, -1.00, 126.9, 107.0)">G</text><text xml:space="preserve" font-family="Avenir-Black" font-weight="bold" font-size="41.0" fill="#FEFFFF" transform="matrix(1.00, 0.00, -0.00, -1.00, 158.8, 107.0)"> </text><text xml:space="preserve" font-family="Avenir-Black" font-weight="bold" font-size="41.0" fill="#FEFFFF" transform="matrix(1.00, 0.00, -0.00, -1.00, 171.0, 107.0)">I</text><text xml:space="preserve" font-family="Avenir-Black" font-weight="bold" font-size="41.0" fill="#FEFFFF" transform="matrix(1.00, 0.00, -0.00, -1.00, 183.1, 107.0)">N</text><text xml:space="preserve" font-family="Avenir-Black" font-weight="bold" font-size="41.0" fill="#FEFFFF" transform="matrix(1.00, 0.00, -0.00, -1.00, 216.5, 107.0)"> </text><text xml:space="preserve" font-family="Avenir-Black" font-weight="bold" font-size="41.0" fill="#FEFFFF" transform="matrix(1.00, 0.00, -0.00, -1.00, 228.7, 107.0)">P</text><text xml:space="preserve" font-family="Avenir-Black" font-weight="bold" font-size="41.0" fill="#FEFFFF" transform="matrix(1.00, 0.00, -0.00, -1.00, 254.5, 107.0)">R</text><text xml:space="preserve" font-family="Avenir-Black" font-weight="bold" font-size="41.0" fill="#FEFFFF" transform="matrix(1.00, 0.00, -0.00, -1.00, 281.1, 107.0)">E</text><text xml:space="preserve" font-family="Avenir-Black" font-weight="bold" font-size="41.0" fill="#FEFFFF" transform="matrix(1.00, 0.00, -0.00, -1.00, 306.9, 107.0)">S</text><text xml:space="preserve" font-family="Avenir-Black" font-weight="bold" font-size="41.0" fill="#FEFFFF" transform="matrix(1.00, 0.00, -0.00, -1.00, 330.4, 107.0)">E</text><text xml:space="preserve" font-family="Avenir-Black" font-weight="bold" font-size="41.0" fill="#FEFFFF" transform="matrix(1.00, 0.00, -0.00, -1.00, 356.3, 107.0)">N</text><text xml:space="preserve" font-family="Avenir-Black" font-weight="bold" font-size="41.0" fill="#FEFFFF" transform="matrix(1.00, 0.00, -0.00, -1.00, 389.7, 107.0)">T</text><text xml:space="preserve" font-family="Avenir-Black" font-weight="bold" font-size="41.0" fill="#FEFFFF" transform="matrix(1.00, 0.00, -0.00, -1.00, 413.2, 107.0)"> </text><text xml:space="preserve" font-family="Avenir-Black" font-weight="bold" font-size="41.0" fill="#FEFFFF" transform="matrix(1.00, 0.00, -0.00, -1.00, 29.0, 51.0)">&amp;</text><text xml:space="preserve" font-family="Avenir-Black" font-weight="bold" font-size="41.0" fill="#FEFFFF" transform="matrix(1.00, 0.00, -0.00, -1.00, 60.1, 51.0)"> </text><text xml:space="preserve" font-family="Avenir-Black" font-weight="bold" font-size="41.0" fill="#FEFFFF" transform="matrix(1.00, 0.00, -0.00, -1.00, 72.3, 51.0)">S</text><text xml:space="preserve" font-family="Avenir-Black" font-weight="bold" font-size="41.0" fill="#FEFFFF" transform="matrix(1.00, 0.00, -0.00, -1.00, 95.8, 51.0)">A</text><text xml:space="preserve" font-family="Avenir-Black" font-weight="bold" font-size="41.0" fill="#FEFFFF" transform="matrix(1.00, 0.00, -0.00, -1.00, 122.4, 51.0)">T</text><text xml:space="preserve" font-family="Avenir-Black" font-weight="bold" font-size="41.0" fill="#FEFFFF" transform="matrix(1.00, 0.00, -0.00, -1.00, 145.9, 51.0)">I</text><text xml:space="preserve" font-family="Avenir-Black" font-weight="bold" font-size="41.0" fill="#FEFFFF" transform="matrix(1.00, 0.00, -0.00, -1.00, 158.1, 51.0)">S</text><text xml:space="preserve" font-family="Avenir-Black" font-weight="bold" font-size="41.0" fill="#FEFFFF" transform="matrix(1.00, 0.00, -0.00, -1.00, 181.6, 51.0)">F</text><text xml:space="preserve" font-family="Avenir-Black" font-weight="bold" font-size="41.0" fill="#FEFFFF" transform="matrix(1.00, 0.00, -0.00, -1.00, 205.9, 51.0)">I</text><text xml:space="preserve" font-family="Avenir-Black" font-weight="bold" font-size="41.0" fill="#FEFFFF" transform="matrix(1.00, 0.00, -0.00, -1.00, 218.1, 51.0)">E</text><text xml:space="preserve" font-family="Avenir-Black" font-weight="bold" font-size="41.0" fill="#FEFFFF" transform="matrix(1.00, 0.00, -0.00, -1.00, 243.9, 51.0)">D</text></g></g></g></svg>