<?xml version="1.0" encoding="UTF-8"?><svg xmlns="http://www.w3.org/2000/svg" xmlns:xlink="http://www.w3.org/1999/xlink" clip-rule="evenodd" stroke-miterlimit="4.00" viewBox="0 0 350 20"><desc>SVG generated by Keynote</desc><defs></defs><g transform="matrix(1.00, 0.00, -0.00, -1.00, 0.0, 20.0)"><text xml:space="preserve" font-family="Avenir-Book" font-size="16.0" fill="#FEFFFF" transform="matrix(1.00, 0.00, -0.00, -1.00, 2.0, 5.0)">A</text><text xml:space="preserve" font-family="Avenir-Book" font-size="16.0" fill="#FEFFFF" transform="matrix(1.00, 0.00, -0.00, -1.00, 13.0, 5.0)">f</text><text xml:space="preserve" font-family="Avenir-Book" font-size="16.0" fill="#FEFFFF" transform="matrix(1.00, 0.00, -0.00, -1.00, 17.7, 5.0)">t</text><text xml:space="preserve" font-family="Avenir-Book" font-size="16.0" fill="#FEFFFF" transform="matrix(1.00, 0.00, -0.00, -1.00, 23.0, 5.0)">e</text><text xml:space="preserve" font-family="Avenir-Book" font-size="16.0" fill="#FEFFFF" transform="matrix(1.00, 0.00, -0.00, -1.00, 31.9, 5.0)">r</text><text xml:space="preserve" font-family="Avenir-Book" font-size="16.0" fill="#FEFFFF" transform="matrix(1.00, 0.00, -0.00, -1.00, 37.2, 5.0)"> </text><text xml:space="preserve" font-family="Avenir-Book" font-size="16.0" fill="#FEFFFF" transform="matrix(1.00, 0.00, -0.00, -1.00, 41.7, 5.0)">f</text><text xml:space="preserve" font-family="Avenir-Book" font-size="16.0" fill="#FEFFFF" transform="matrix(1.00, 0.00, -0.00, -1.00, 46.4, 5.0)">e</text><text xml:space="preserve" font-family="Avenir-Book" font-size="16.0" fill="#FEFFFF" transform="matrix(1.00, 0.00, -0.00, -1.00, 55.3, 5.0)">w</text><text xml:space="preserve" font-family="Avenir-Book" font-size="16.0" fill="#FEFFFF" transform="matrix(1.00, 0.00, -0.00, -1.00, 66.9, 5.0)"> </text><text xml:space="preserve" font-family="Avenir-Book" font-size="16.0" fill="#FEFFFF" transform="matrix(1.00, 0.00, -0.00, -1.00, 71.3, 5.0)">m</text><text xml:space="preserve" font-family="Avenir-Book" font-size="16.0" fill="#FEFFFF" transform="matrix(1.00, 0.00, -0.00, -1.00, 84.9, 5.0)">i</text><text xml:space="preserve" font-family="Avenir-Book" font-size="16.0" fill="#FEFFFF" transform="matrix(1.00, 0.00, -0.00, -1.00, 88.8, 5.0)">n</text><text xml:space="preserve" font-family="Avenir-Book" font-size="16.0" fill="#FEFFFF" transform="matrix(1.00, 0.00, -0.00, -1.00, 97.7, 5.0)">u</text><text xml:space="preserve" font-family="Avenir-Book" font-size="16.0" fill="#FEFFFF" transform="matrix(1.00, 0.00, -0.00, -1.00, 106.6, 5.0)">t</text><text xml:space="preserve" font-family="Avenir-Book" font-size="16.0" fill="#FEFFFF" transform="matrix(1.00, 0.00, -0.00, -1.00, 111.9, 5.0)">e</text><text xml:space="preserve" font-family="Avenir-Book" font-size="16.0" fill="#FEFFFF" transform="matrix(1.00, 0.00, -0.00, -1.00, 120.8, 5.0)">s</text><text xml:space="preserve" font-family="Avenir-Book" font-size="16.0" fill="#FEFFFF" transform="matrix(1.00, 0.00, -0.00, -1.00, 127.6, 5.0)"> </text><text xml:space="preserve" font-family="Avenir-Book" font-size="16.0" fill="#FEFFFF" transform="matrix(1.00, 0.00, -0.00, -1.00, 132.0, 5.0)">h</text><text xml:space="preserve" font-family="Avenir-Book" font-size="16.0" fill="#FEFFFF" transform="matrix(1.00, 0.00, -0.00, -1.00, 140.9, 5.0)">e</text><text xml:space="preserve" font-family="Avenir-Book" font-size="16.0" fill="#FEFFFF" transform="matrix(1.00, 0.00, -0.00, -1.00, 149.8, 5.0)"> </text><text xml:space="preserve" font-family="Avenir-Book" font-size="16.0" fill="#FEFFFF" transform="matrix(1.00, 0.00, -0.00, -1.00, 154.3, 5.0)">f</text><text xml:space="preserve" font-family="Avenir-Book" font-size="16.0" fill="#FEFFFF" transform="matrix(1.00, 0.00, -0.00, -1.00, 159.0, 5.0)">e</text><text xml:space="preserve" font-family="Avenir-Book" font-size="16.0" fill="#FEFFFF" transform="matrix(1.00, 0.00, -0.00, -1.00, 167.9, 5.0)">l</text><text xml:space="preserve" font-family="Avenir-Book" font-size="16.0" fill="#FEFFFF" transform="matrix(1.00, 0.00, -0.00, -1.00, 171.8, 5.0)">t</text><text xml:space="preserve" font-family="Avenir-Book" font-size="16.0" fill="#FEFFFF" transform="matrix(1.00, 0.00, -0.00, -1.00, 177.1, 5.0)"> </text><text xml:space="preserve" font-family="Avenir-Book" font-size="16.0" fill="#FEFFFF" transform="matrix(1.00, 0.00, -0.00, -1.00, 181.5, 5.0)">l</text><text xml:space="preserve" font-family="Avenir-Book" font-size="16.0" fill="#FEFFFF" transform="matrix(1.00, 0.00, -0.00, -1.00, 185.4, 5.0)">e</text><text xml:space="preserve" font-family="Avenir-Book" font-size="16.0" fill="#FEFFFF" transform="matrix(1.00, 0.00, -0.00, -1.00, 194.3, 5.0)">f</text><text xml:space="preserve" font-family="Avenir-Book" font-size="16.0" fill="#FEFFFF" transform="matrix(1.00, 0.00, -0.00, -1.00, 199.0, 5.0)">t</text><text xml:space="preserve" font-family="Avenir-Book" font-size="16.0" fill="#FEFFFF" transform="matrix(1.00, 0.00, -0.00, -1.00, 204.3, 5.0)"> </text><text xml:space="preserve" font-family="Avenir-Book" font-size="16.0" fill="#FEFFFF" transform="matrix(1.00, 0.00, -0.00, -1.00, 208.8, 5.0)">o</text><text xml:space="preserve" font-family="Avenir-Book" font-size="16.0" fill="#FEFFFF" transform="matrix(1.00, 0.00, -0.00, -1.00, 218.2, 5.0)">u</text><text xml:space="preserve" font-family="Avenir-Book" font-size="16.0" fill="#FEFFFF" transform="matrix(1.00, 0.00, -0.00, -1.00, 227.1, 5.0)">t</text><text xml:space="preserve" font-family="Avenir-Book" font-size="16.0" fill="#FEFFFF" transform="matrix(1.00, 0.00, -0.00, -1.00, 232.4, 5.0)"> </text><text xml:space="preserve" font-family="Avenir-Book" font-size="16.0" fill="#FEFFFF" transform="matrix(1.00, 0.00, -0.00, -1.00, 236.9, 5.0)">w</text><text xml:space="preserve" font-family="Avenir-Book" font-size="16.0" fill="#FEFFFF" transform="matrix(1.00, 0.00, -0.00, -1.00, 248.4, 5.0)">h</text><text xml:space="preserve" font-family="Avenir-Book" font-size="16.0" fill="#FEFFFF" transform="matrix(1.00, 0.00, -0.00, -1.00, 257.3, 5.0)">e</text><text xml:space="preserve" font-family="Avenir-Book" font-size="16.0" fill="#FEFFFF" transform="matrix(1.00, 0.00, -0.00, -1.00, 266.2, 5.0)">n</text><text xml:space="preserve" font-family="Avenir-Book" font-size="16.0" fill="#FEFFFF" transform="matrix(1.00, 0.00, -0.00, -1.00, 275.1, 5.0)"> </text><text xml:space="preserve" font-family="Avenir-Book" font-size="16.0" fill="#FEFFFF" transform="matrix(1.00, 0.00, -0.00, -1.00, 279.6, 5.0)">t</text><text xml:space="preserve" font-family="Avenir-Book" font-size="16.0" fill="#FEFFFF" transform="matrix(1.00, 0.00, -0.00, -1.00, 284.9, 5.0)">h</text><text xml:space="preserve" font-family="Avenir-Book" font-size="16.0" fill="#FEFFFF" transform="matrix(1.00, 0.00, -0.00, -1.00, 293.8, 5.0)">e</text><text xml:space="preserve" font-family="Avenir-Book" font-size="16.0" fill="#FEFFFF" transform="matrix(1.00, 0.00, -0.00, -1.00, 302.7, 5.0)">y</text><text xml:space="preserve" font-family="Avenir-Book" font-size="16.0" fill="#FEFFFF" transform="matrix(1.00, 0.00, -0.00, -1.00, 310.4, 5.0)"> </text><text xml:space="preserve" font-family="Avenir-Book" font-size="16.0" fill="#FEFFFF" transform="matrix(1.00, 0.00, -0.00, -1.00, 314.8, 5.0)">w</text><text xml:space="preserve" font-family="Avenir-Book" font-size="16.0" fill="#FEFFFF" transform="matrix(1.00, 0.00, -0.00, -1.00, 326.4, 5.0)">e</text><text xml:space="preserve" font-family="Avenir-Book" font-size="16.0" fill="#FEFFFF" transform="matrix(1.00, 0.00, -0.00, -1.00, 335.3, 5.0)">r</text><text xml:space="preserve" font-family="Avenir-Book" font-size="16.0" fill="#FEFFFF" transform="matrix(1.00, 0.00, -0.00, -1.00, 340.3, 5.0)">e</text></g></svg>