<?xml version="1.0" encoding="UTF-8"?><svg xmlns="http://www.w3.org/2000/svg" xmlns:xlink="http://www.w3.org/1999/xlink" clip-rule="evenodd" stroke-miterlimit="4.00" viewBox="0 0 2800 1059"><desc>SVG generated by Keynote</desc><defs></defs><g transform="matrix(1.00, 0.00, -0.00, -1.00, 0.0, 1059.0)"><path d="M 0.0 0.0 L 2800.0 0.0 L 2800.0 1059.0 L 0.0 1059.0 Z M 0.0 0.0 " fill="#000000"></path><g><clipPath id="clip-85"><path d="M 1998.1 1059.0 L 2802.3 1059.0 L 2802.3 0.0 L 1998.1 0.0 Z M 1998.1 1059.0 "></path></clipPath><g clip-path="url(#clip-85)"><image xlink:href="../../9408A9C4-D635-4DCF-AA84-A4CF6D5A0E75/assets/8669AAA156F33E0A19E91B6E3C9197C3.jpeg" width="1152.00" height="768.00" transform="matrix(2.67, 0.00, -0.00, -2.67, 1998.1, 1059.0)"></image></g></g><image xlink:href="../../B4563787-ED84-46F9-B770-A399F844E641/assets/FE884253654E438F52C466CD948F34E3.jpeg" width="1366.00" height="723.00" transform="matrix(1.46, 0.00, -0.00, -1.46, -1.0, 1059.0)"></image><text xml:space="preserve" font-family="AvenirNext-DemiBold" font-weight="bold" font-size="47.0" fill="#FEFFFF" transform="matrix(1.00, 0.00, -0.00, -1.00, 2099.0, 804.0)">T</text><text xml:space="preserve" font-family="AvenirNext-DemiBold" font-weight="bold" font-size="47.0" fill="#FEFFFF" transform="matrix(1.00, 0.00, -0.00, -1.00, 2124.8, 804.0)">h</text><text xml:space="preserve" font-family="AvenirNext-DemiBold" font-weight="bold" font-size="47.0" fill="#FEFFFF" transform="matrix(1.00, 0.00, -0.00, -1.00, 2152.3, 804.0)">e</text><text xml:space="preserve" font-family="AvenirNext-DemiBold" font-weight="bold" font-size="47.0" fill="#FEFFFF" transform="matrix(1.00, 0.00, -0.00, -1.00, 2179.3, 804.0)"> </text><text xml:space="preserve" font-family="AvenirNext-DemiBold" font-weight="bold" font-size="47.0" fill="#FEFFFF" transform="matrix(1.00, 0.00, -0.00, -1.00, 2190.5, 804.0)">W</text><text xml:space="preserve" font-family="AvenirNext-DemiBold" font-weight="bold" font-size="47.0" fill="#FEFFFF" transform="matrix(1.00, 0.00, -0.00, -1.00, 2236.0, 804.0)">e</text><text xml:space="preserve" font-family="AvenirNext-DemiBold" font-weight="bold" font-size="47.0" fill="#FEFFFF" transform="matrix(1.00, 0.00, -0.00, -1.00, 2262.9, 804.0)">l</text><text xml:space="preserve" font-family="AvenirNext-DemiBold" font-weight="bold" font-size="47.0" fill="#FEFFFF" transform="matrix(1.00, 0.00, -0.00, -1.00, 2275.5, 804.0)">c</text><text xml:space="preserve" font-family="AvenirNext-DemiBold" font-weight="bold" font-size="47.0" fill="#FEFFFF" transform="matrix(1.00, 0.00, -0.00, -1.00, 2298.5, 804.0)">o</text><text xml:space="preserve" font-family="AvenirNext-DemiBold" font-weight="bold" font-size="47.0" fill="#FEFFFF" transform="matrix(1.00, 0.00, -0.00, -1.00, 2327.1, 804.0)">m</text><text xml:space="preserve" font-family="AvenirNext-DemiBold" font-weight="bold" font-size="47.0" fill="#FEFFFF" transform="matrix(1.00, 0.00, -0.00, -1.00, 2369.0, 804.0)">i</text><text xml:space="preserve" font-family="AvenirNext-DemiBold" font-weight="bold" font-size="47.0" fill="#FEFFFF" transform="matrix(1.00, 0.00, -0.00, -1.00, 2381.6, 804.0)">n</text><text xml:space="preserve" font-family="AvenirNext-DemiBold" font-weight="bold" font-size="47.0" fill="#FEFFFF" transform="matrix(1.00, 0.00, -0.00, -1.00, 2408.9, 804.0)">g</text><text xml:space="preserve" font-family="AvenirNext-Medium" font-size="31.0" fill="#FEFFFF" transform="matrix(1.00, 0.00, -0.00, -1.00, 2096.0, 709.0)">Y</text><text xml:space="preserve" font-family="AvenirNext-Medium" font-size="31.0" fill="#FEFFFF" transform="matrix(1.00, 0.00, -0.00, -1.00, 2112.5, 709.0)">o</text><text xml:space="preserve" font-family="AvenirNext-Medium" font-size="31.0" fill="#FEFFFF" transform="matrix(1.00, 0.00, -0.00, -1.00, 2131.4, 709.0)">u</text><text xml:space="preserve" font-family="AvenirNext-Medium" font-size="31.0" fill="#FEFFFF" transform="matrix(1.00, 0.00, -0.00, -1.00, 2149.4, 709.0)"> </text><text xml:space="preserve" font-family="AvenirNext-Medium" font-size="31.0" fill="#FEFFFF" transform="matrix(1.00, 0.00, -0.00, -1.00, 2157.2, 709.0)">p</text><text xml:space="preserve" font-family="AvenirNext-Medium" font-size="31.0" fill="#FEFFFF" transform="matrix(1.00, 0.00, -0.00, -1.00, 2176.8, 709.0)">u</text><text xml:space="preserve" font-family="AvenirNext-Medium" font-size="31.0" fill="#FEFFFF" transform="matrix(1.00, 0.00, -0.00, -1.00, 2194.9, 709.0)">l</text><text xml:space="preserve" font-family="AvenirNext-Medium" font-size="31.0" fill="#FEFFFF" transform="matrix(1.00, 0.00, -0.00, -1.00, 2202.9, 709.0)">l</text><text xml:space="preserve" font-family="AvenirNext-Medium" font-size="31.0" fill="#FEFFFF" transform="matrix(1.00, 0.00, -0.00, -1.00, 2211.0, 709.0)"> </text><text xml:space="preserve" font-family="AvenirNext-Medium" font-size="31.0" fill="#FEFFFF" transform="matrix(1.00, 0.00, -0.00, -1.00, 2218.7, 709.0)">y</text><text xml:space="preserve" font-family="AvenirNext-Medium" font-size="31.0" fill="#FEFFFF" transform="matrix(1.00, 0.00, -0.00, -1.00, 2234.4, 709.0)">o</text><text xml:space="preserve" font-family="AvenirNext-Medium" font-size="31.0" fill="#FEFFFF" transform="matrix(1.00, 0.00, -0.00, -1.00, 2253.3, 709.0)">u</text><text xml:space="preserve" font-family="AvenirNext-Medium" font-size="31.0" fill="#FEFFFF" transform="matrix(1.00, 0.00, -0.00, -1.00, 2271.3, 709.0)">r</text><text xml:space="preserve" font-family="AvenirNext-Medium" font-size="31.0" fill="#FEFFFF" transform="matrix(1.00, 0.00, -0.00, -1.00, 2282.5, 709.0)"> </text><text xml:space="preserve" font-family="AvenirNext-Medium" font-size="31.0" fill="#FEFFFF" transform="matrix(1.00, 0.00, -0.00, -1.00, 2290.3, 709.0)">g</text><text xml:space="preserve" font-family="AvenirNext-Medium" font-size="31.0" fill="#FEFFFF" transform="matrix(1.00, 0.00, -0.00, -1.00, 2309.9, 709.0)">u</text><text xml:space="preserve" font-family="AvenirNext-Medium" font-size="31.0" fill="#FEFFFF" transform="matrix(1.00, 0.00, -0.00, -1.00, 2327.9, 709.0)">n</text><text xml:space="preserve" font-family="AvenirNext-Medium" font-size="31.0" fill="#FEFFFF" transform="matrix(1.00, 0.00, -0.00, -1.00, 2346.0, 709.0)"> </text><text xml:space="preserve" font-family="AvenirNext-Medium" font-size="31.0" fill="#FEFFFF" transform="matrix(1.00, 0.00, -0.00, -1.00, 2353.7, 709.0)">f</text><text xml:space="preserve" font-family="AvenirNext-Medium" font-size="31.0" fill="#FEFFFF" transform="matrix(1.00, 0.00, -0.00, -1.00, 2363.3, 709.0)">r</text><text xml:space="preserve" font-family="AvenirNext-Medium" font-size="31.0" fill="#FEFFFF" transform="matrix(1.00, 0.00, -0.00, -1.00, 2374.0, 709.0)">o</text><text xml:space="preserve" font-family="AvenirNext-Medium" font-size="31.0" fill="#FEFFFF" transform="matrix(1.00, 0.00, -0.00, -1.00, 2392.9, 709.0)">m</text><text xml:space="preserve" font-family="AvenirNext-Medium" font-size="31.0" fill="#FEFFFF" transform="matrix(1.00, 0.00, -0.00, -1.00, 2420.4, 709.0)"> </text><text xml:space="preserve" font-family="AvenirNext-Medium" font-size="31.0" fill="#FEFFFF" transform="matrix(1.00, 0.00, -0.00, -1.00, 2428.1, 709.0)">i</text><text xml:space="preserve" font-family="AvenirNext-Medium" font-size="31.0" fill="#FEFFFF" transform="matrix(1.00, 0.00, -0.00, -1.00, 2436.2, 709.0)">t</text><text xml:space="preserve" font-family="AvenirNext-Medium" font-size="31.0" fill="#FEFFFF" transform="matrix(1.00, 0.00, -0.00, -1.00, 2447.1, 709.0)">’</text><text xml:space="preserve" font-family="AvenirNext-Medium" font-size="31.0" fill="#FEFFFF" transform="matrix(1.00, 0.00, -0.00, -1.00, 2453.2, 709.0)">s</text><text xml:space="preserve" font-family="AvenirNext-Medium" font-size="31.0" fill="#FEFFFF" transform="matrix(1.00, 0.00, -0.00, -1.00, 2467.0, 709.0)"> </text><text xml:space="preserve" font-family="AvenirNext-Medium" font-size="31.0" fill="#FEFFFF" transform="matrix(1.00, 0.00, -0.00, -1.00, 2474.8, 709.0)">H</text><text xml:space="preserve" font-family="AvenirNext-Medium" font-size="31.0" fill="#FEFFFF" transform="matrix(1.00, 0.00, -0.00, -1.00, 2497.4, 709.0)">o</text><text xml:space="preserve" font-family="AvenirNext-Medium" font-size="31.0" fill="#FEFFFF" transform="matrix(1.00, 0.00, -0.00, -1.00, 2516.3, 709.0)">l</text><text xml:space="preserve" font-family="AvenirNext-Medium" font-size="31.0" fill="#FEFFFF" transform="matrix(1.00, 0.00, -0.00, -1.00, 2524.3, 709.0)">s</text><text xml:space="preserve" font-family="AvenirNext-Medium" font-size="31.0" fill="#FEFFFF" transform="matrix(1.00, 0.00, -0.00, -1.00, 2538.1, 709.0)">t</text><text xml:space="preserve" font-family="AvenirNext-Medium" font-size="31.0" fill="#FEFFFF" transform="matrix(1.00, 0.00, -0.00, -1.00, 2548.3, 709.0)">e</text><text xml:space="preserve" font-family="AvenirNext-Medium" font-size="31.0" fill="#FEFFFF" transform="matrix(1.00, 0.00, -0.00, -1.00, 2566.1, 709.0)">r</text><text xml:space="preserve" font-family="AvenirNext-Medium" font-size="31.0" fill="#FEFFFF" transform="matrix(1.00, 0.00, -0.00, -1.00, 2577.3, 709.0)"> </text><text xml:space="preserve" font-family="AvenirNext-Medium" font-size="31.0" fill="#FEFFFF" transform="matrix(1.00, 0.00, -0.00, -1.00, 2585.0, 709.0)">a</text><text xml:space="preserve" font-family="AvenirNext-Medium" font-size="31.0" fill="#FEFFFF" transform="matrix(1.00, 0.00, -0.00, -1.00, 2601.8, 709.0)">n</text><text xml:space="preserve" font-family="AvenirNext-Medium" font-size="31.0" fill="#FEFFFF" transform="matrix(1.00, 0.00, -0.00, -1.00, 2619.9, 709.0)">d</text><text xml:space="preserve" font-family="AvenirNext-Medium" font-size="31.0" fill="#FEFFFF" transform="matrix(1.00, 0.00, -0.00, -1.00, 2639.6, 709.0)"> </text><text xml:space="preserve" font-family="AvenirNext-Medium" font-size="31.0" fill="#FEFFFF" transform="matrix(1.00, 0.00, -0.00, -1.00, 2096.0, 667.0)">t</text><text xml:space="preserve" font-family="AvenirNext-Medium" font-size="31.0" fill="#FEFFFF" transform="matrix(1.00, 0.00, -0.00, -1.00, 2106.2, 667.0)">a</text><text xml:space="preserve" font-family="AvenirNext-Medium" font-size="31.0" fill="#FEFFFF" transform="matrix(1.00, 0.00, -0.00, -1.00, 2123.0, 667.0)">k</text><text xml:space="preserve" font-family="AvenirNext-Medium" font-size="31.0" fill="#FEFFFF" transform="matrix(1.00, 0.00, -0.00, -1.00, 2138.8, 667.0)">e</text><text xml:space="preserve" font-family="AvenirNext-Medium" font-size="31.0" fill="#FEFFFF" transform="matrix(1.00, 0.00, -0.00, -1.00, 2156.5, 667.0)"> </text><text xml:space="preserve" font-family="AvenirNext-Medium" font-size="31.0" fill="#FEFFFF" transform="matrix(1.00, 0.00, -0.00, -1.00, 2164.3, 667.0)">a</text><text xml:space="preserve" font-family="AvenirNext-Medium" font-size="31.0" fill="#FEFFFF" transform="matrix(1.00, 0.00, -0.00, -1.00, 2181.1, 667.0)">i</text><text xml:space="preserve" font-family="AvenirNext-Medium" font-size="31.0" fill="#FEFFFF" transform="matrix(1.00, 0.00, -0.00, -1.00, 2189.1, 667.0)">m</text><text xml:space="preserve" font-family="AvenirNext-Medium" font-size="31.0" fill="#FEFFFF" transform="matrix(1.00, 0.00, -0.00, -1.00, 2216.6, 667.0)">.</text><text xml:space="preserve" font-family="AvenirNext-Medium" font-size="31.0" fill="#FEFFFF" transform="matrix(1.00, 0.00, -0.00, -1.00, 2223.8, 667.0)"> </text><text xml:space="preserve" font-family="AvenirNext-Medium" font-size="31.0" fill="#FEFFFF" transform="matrix(1.00, 0.00, -0.00, -1.00, 2230.8, 667.0)">Y</text><text xml:space="preserve" font-family="AvenirNext-Medium" font-size="31.0" fill="#FEFFFF" transform="matrix(1.00, 0.00, -0.00, -1.00, 2247.2, 667.0)">o</text><text xml:space="preserve" font-family="AvenirNext-Medium" font-size="31.0" fill="#FEFFFF" transform="matrix(1.00, 0.00, -0.00, -1.00, 2266.1, 667.0)">u</text><text xml:space="preserve" font-family="AvenirNext-Medium" font-size="31.0" fill="#FEFFFF" transform="matrix(1.00, 0.00, -0.00, -1.00, 2284.2, 667.0)">r</text><text xml:space="preserve" font-family="AvenirNext-Medium" font-size="31.0" fill="#FEFFFF" transform="matrix(1.00, 0.00, -0.00, -1.00, 2295.4, 667.0)"> </text><text xml:space="preserve" font-family="AvenirNext-Medium" font-size="31.0" fill="#FEFFFF" transform="matrix(1.00, 0.00, -0.00, -1.00, 2303.1, 667.0)">b</text><text xml:space="preserve" font-family="AvenirNext-Medium" font-size="31.0" fill="#FEFFFF" transform="matrix(1.00, 0.00, -0.00, -1.00, 2322.9, 667.0)">r</text><text xml:space="preserve" font-family="AvenirNext-Medium" font-size="31.0" fill="#FEFFFF" transform="matrix(1.00, 0.00, -0.00, -1.00, 2333.5, 667.0)">o</text><text xml:space="preserve" font-family="AvenirNext-Medium" font-size="31.0" fill="#FEFFFF" transform="matrix(1.00, 0.00, -0.00, -1.00, 2352.4, 667.0)">t</text><text xml:space="preserve" font-family="AvenirNext-Medium" font-size="31.0" fill="#FEFFFF" transform="matrix(1.00, 0.00, -0.00, -1.00, 2362.6, 667.0)">h</text><text xml:space="preserve" font-family="AvenirNext-Medium" font-size="31.0" fill="#FEFFFF" transform="matrix(1.00, 0.00, -0.00, -1.00, 2380.7, 667.0)">e</text><text xml:space="preserve" font-family="AvenirNext-Medium" font-size="31.0" fill="#FEFFFF" transform="matrix(1.00, 0.00, -0.00, -1.00, 2398.5, 667.0)">r</text><text xml:space="preserve" font-family="AvenirNext-Medium" font-size="31.0" fill="#FEFFFF" transform="matrix(1.00, 0.00, -0.00, -1.00, 2409.7, 667.0)"> </text><text xml:space="preserve" font-family="AvenirNext-Medium" font-size="31.0" fill="#FEFFFF" transform="matrix(1.00, 0.00, -0.00, -1.00, 2417.5, 667.0)">r</text><text xml:space="preserve" font-family="AvenirNext-Medium" font-size="31.0" fill="#FEFFFF" transform="matrix(1.00, 0.00, -0.00, -1.00, 2428.3, 667.0)">a</text><text xml:space="preserve" font-family="AvenirNext-Medium" font-size="31.0" fill="#FEFFFF" transform="matrix(1.00, 0.00, -0.00, -1.00, 2445.1, 667.0)">i</text><text xml:space="preserve" font-family="AvenirNext-Medium" font-size="31.0" fill="#FEFFFF" transform="matrix(1.00, 0.00, -0.00, -1.00, 2453.1, 667.0)">s</text><text xml:space="preserve" font-family="AvenirNext-Medium" font-size="31.0" fill="#FEFFFF" transform="matrix(1.00, 0.00, -0.00, -1.00, 2466.9, 667.0)">e</text><text xml:space="preserve" font-family="AvenirNext-Medium" font-size="31.0" fill="#FEFFFF" transform="matrix(1.00, 0.00, -0.00, -1.00, 2484.6, 667.0)">s</text><text xml:space="preserve" font-family="AvenirNext-Medium" font-size="31.0" fill="#FEFFFF" transform="matrix(1.00, 0.00, -0.00, -1.00, 2498.4, 667.0)"> </text><text xml:space="preserve" font-family="AvenirNext-Medium" font-size="31.0" fill="#FEFFFF" transform="matrix(1.00, 0.00, -0.00, -1.00, 2506.2, 667.0)">h</text><text xml:space="preserve" font-family="AvenirNext-Medium" font-size="31.0" fill="#FEFFFF" transform="matrix(1.00, 0.00, -0.00, -1.00, 2524.3, 667.0)">i</text><text xml:space="preserve" font-family="AvenirNext-Medium" font-size="31.0" fill="#FEFFFF" transform="matrix(1.00, 0.00, -0.00, -1.00, 2532.3, 667.0)">s</text><text xml:space="preserve" font-family="AvenirNext-Medium" font-size="31.0" fill="#FEFFFF" transform="matrix(1.00, 0.00, -0.00, -1.00, 2546.1, 667.0)"> </text><text xml:space="preserve" font-family="AvenirNext-Medium" font-size="31.0" fill="#FEFFFF" transform="matrix(1.00, 0.00, -0.00, -1.00, 2553.8, 667.0)">a</text><text xml:space="preserve" font-family="AvenirNext-Medium" font-size="31.0" fill="#FEFFFF" transform="matrix(1.00, 0.00, -0.00, -1.00, 2570.6, 667.0)">r</text><text xml:space="preserve" font-family="AvenirNext-Medium" font-size="31.0" fill="#FEFFFF" transform="matrix(1.00, 0.00, -0.00, -1.00, 2581.8, 667.0)">m</text><text xml:space="preserve" font-family="AvenirNext-Medium" font-size="31.0" fill="#FEFFFF" transform="matrix(1.00, 0.00, -0.00, -1.00, 2609.3, 667.0)">s</text><text xml:space="preserve" font-family="AvenirNext-Medium" font-size="31.0" fill="#FEFFFF" transform="matrix(1.00, 0.00, -0.00, -1.00, 2623.1, 667.0)"> </text><text xml:space="preserve" font-family="AvenirNext-Medium" font-size="31.0" fill="#FEFFFF" transform="matrix(1.00, 0.00, -0.00, -1.00, 2630.8, 667.0)">i</text><text xml:space="preserve" font-family="AvenirNext-Medium" font-size="31.0" fill="#FEFFFF" transform="matrix(1.00, 0.00, -0.00, -1.00, 2638.9, 667.0)">n</text><text xml:space="preserve" font-family="AvenirNext-Medium" font-size="31.0" fill="#FEFFFF" transform="matrix(1.00, 0.00, -0.00, -1.00, 2656.9, 667.0)"> </text><text xml:space="preserve" font-family="AvenirNext-Medium" font-size="31.0" fill="#FEFFFF" transform="matrix(1.00, 0.00, -0.00, -1.00, 2096.0, 625.0)">s</text><text xml:space="preserve" font-family="AvenirNext-Medium" font-size="31.0" fill="#FEFFFF" transform="matrix(1.00, 0.00, -0.00, -1.00, 2109.8, 625.0)">u</text><text xml:space="preserve" font-family="AvenirNext-Medium" font-size="31.0" fill="#FEFFFF" transform="matrix(1.00, 0.00, -0.00, -1.00, 2127.8, 625.0)">r</text><text xml:space="preserve" font-family="AvenirNext-Medium" font-size="31.0" fill="#FEFFFF" transform="matrix(1.00, 0.00, -0.00, -1.00, 2139.0, 625.0)">r</text><text xml:space="preserve" font-family="AvenirNext-Medium" font-size="31.0" fill="#FEFFFF" transform="matrix(1.00, 0.00, -0.00, -1.00, 2149.7, 625.0)">e</text><text xml:space="preserve" font-family="AvenirNext-Medium" font-size="31.0" fill="#FEFFFF" transform="matrix(1.00, 0.00, -0.00, -1.00, 2167.5, 625.0)">n</text><text xml:space="preserve" font-family="AvenirNext-Medium" font-size="31.0" fill="#FEFFFF" transform="matrix(1.00, 0.00, -0.00, -1.00, 2185.5, 625.0)">d</text><text xml:space="preserve" font-family="AvenirNext-Medium" font-size="31.0" fill="#FEFFFF" transform="matrix(1.00, 0.00, -0.00, -1.00, 2205.2, 625.0)">e</text><text xml:space="preserve" font-family="AvenirNext-Medium" font-size="31.0" fill="#FEFFFF" transform="matrix(1.00, 0.00, -0.00, -1.00, 2222.9, 625.0)">r</text><text xml:space="preserve" font-family="AvenirNext-Medium" font-size="31.0" fill="#FEFFFF" transform="matrix(1.00, 0.00, -0.00, -1.00, 2232.7, 625.0)">.</text><text xml:space="preserve" font-family="AvenirNext-Medium" font-size="31.0" fill="#FEFFFF" transform="matrix(1.00, 0.00, -0.00, -1.00, 2239.8, 625.0)"> </text><text xml:space="preserve" font-family="AvenirNext-Medium" font-size="31.0" fill="#FEFFFF" transform="matrix(1.00, 0.00, -0.00, -1.00, 2246.8, 625.0)">T</text><text xml:space="preserve" font-family="AvenirNext-Medium" font-size="31.0" fill="#FEFFFF" transform="matrix(1.00, 0.00, -0.00, -1.00, 2263.9, 625.0)">h</text><text xml:space="preserve" font-family="AvenirNext-Medium" font-size="31.0" fill="#FEFFFF" transform="matrix(1.00, 0.00, -0.00, -1.00, 2282.0, 625.0)">i</text><text xml:space="preserve" font-family="AvenirNext-Medium" font-size="31.0" fill="#FEFFFF" transform="matrix(1.00, 0.00, -0.00, -1.00, 2290.0, 625.0)">s</text><text xml:space="preserve" font-family="AvenirNext-Medium" font-size="31.0" fill="#FEFFFF" transform="matrix(1.00, 0.00, -0.00, -1.00, 2303.8, 625.0)"> </text><text xml:space="preserve" font-family="AvenirNext-Medium" font-size="31.0" fill="#FEFFFF" transform="matrix(1.00, 0.00, -0.00, -1.00, 2311.5, 625.0)">i</text><text xml:space="preserve" font-family="AvenirNext-Medium" font-size="31.0" fill="#FEFFFF" transform="matrix(1.00, 0.00, -0.00, -1.00, 2319.6, 625.0)">s</text><text xml:space="preserve" font-family="AvenirNext-Medium" font-size="31.0" fill="#FEFFFF" transform="matrix(1.00, 0.00, -0.00, -1.00, 2333.3, 625.0)"> </text><text xml:space="preserve" font-family="AvenirNext-Medium" font-size="31.0" fill="#FEFFFF" transform="matrix(1.00, 0.00, -0.00, -1.00, 2341.1, 625.0)">w</text><text xml:space="preserve" font-family="AvenirNext-Medium" font-size="31.0" fill="#FEFFFF" transform="matrix(1.00, 0.00, -0.00, -1.00, 2365.0, 625.0)">h</text><text xml:space="preserve" font-family="AvenirNext-Medium" font-size="31.0" fill="#FEFFFF" transform="matrix(1.00, 0.00, -0.00, -1.00, 2383.2, 625.0)">a</text><text xml:space="preserve" font-family="AvenirNext-Medium" font-size="31.0" fill="#FEFFFF" transform="matrix(1.00, 0.00, -0.00, -1.00, 2399.6, 625.0)">t</text><text xml:space="preserve" font-family="AvenirNext-Medium" font-size="31.0" fill="#FEFFFF" transform="matrix(1.00, 0.00, -0.00, -1.00, 2409.8, 625.0)"> </text><text xml:space="preserve" font-family="AvenirNext-Medium" font-size="31.0" fill="#FEFFFF" transform="matrix(1.00, 0.00, -0.00, -1.00, 2417.6, 625.0)">y</text><text xml:space="preserve" font-family="AvenirNext-Medium" font-size="31.0" fill="#FEFFFF" transform="matrix(1.00, 0.00, -0.00, -1.00, 2433.2, 625.0)">o</text><text xml:space="preserve" font-family="AvenirNext-Medium" font-size="31.0" fill="#FEFFFF" transform="matrix(1.00, 0.00, -0.00, -1.00, 2452.1, 625.0)">u</text><text xml:space="preserve" font-family="AvenirNext-Medium" font-size="31.0" fill="#FEFFFF" transform="matrix(1.00, 0.00, -0.00, -1.00, 2470.2, 625.0)"> </text><text xml:space="preserve" font-family="AvenirNext-Medium" font-size="31.0" fill="#FEFFFF" transform="matrix(1.00, 0.00, -0.00, -1.00, 2477.9, 625.0)">h</text><text xml:space="preserve" font-family="AvenirNext-Medium" font-size="31.0" fill="#FEFFFF" transform="matrix(1.00, 0.00, -0.00, -1.00, 2496.0, 625.0)">a</text><text xml:space="preserve" font-family="AvenirNext-Medium" font-size="31.0" fill="#FEFFFF" transform="matrix(1.00, 0.00, -0.00, -1.00, 2512.8, 625.0)">v</text><text xml:space="preserve" font-family="AvenirNext-Medium" font-size="31.0" fill="#FEFFFF" transform="matrix(1.00, 0.00, -0.00, -1.00, 2528.5, 625.0)">e</text><text xml:space="preserve" font-family="AvenirNext-Medium" font-size="31.0" fill="#FEFFFF" transform="matrix(1.00, 0.00, -0.00, -1.00, 2546.2, 625.0)"> </text><text xml:space="preserve" font-family="AvenirNext-Medium" font-size="31.0" fill="#FEFFFF" transform="matrix(1.00, 0.00, -0.00, -1.00, 2554.0, 625.0)">b</text><text xml:space="preserve" font-family="AvenirNext-Medium" font-size="31.0" fill="#FEFFFF" transform="matrix(1.00, 0.00, -0.00, -1.00, 2573.7, 625.0)">e</text><text xml:space="preserve" font-family="AvenirNext-Medium" font-size="31.0" fill="#FEFFFF" transform="matrix(1.00, 0.00, -0.00, -1.00, 2591.4, 625.0)">e</text><text xml:space="preserve" font-family="AvenirNext-Medium" font-size="31.0" fill="#FEFFFF" transform="matrix(1.00, 0.00, -0.00, -1.00, 2609.2, 625.0)">n</text><text xml:space="preserve" font-family="AvenirNext-Medium" font-size="31.0" fill="#FEFFFF" transform="matrix(1.00, 0.00, -0.00, -1.00, 2627.2, 625.0)"> </text><text xml:space="preserve" font-family="AvenirNext-Medium" font-size="31.0" fill="#FEFFFF" transform="matrix(1.00, 0.00, -0.00, -1.00, 2096.0, 583.0)">w</text><text xml:space="preserve" font-family="AvenirNext-Medium" font-size="31.0" fill="#FEFFFF" transform="matrix(1.00, 0.00, -0.00, -1.00, 2120.0, 583.0)">a</text><text xml:space="preserve" font-family="AvenirNext-Medium" font-size="31.0" fill="#FEFFFF" transform="matrix(1.00, 0.00, -0.00, -1.00, 2136.8, 583.0)">i</text><text xml:space="preserve" font-family="AvenirNext-Medium" font-size="31.0" fill="#FEFFFF" transform="matrix(1.00, 0.00, -0.00, -1.00, 2144.8, 583.0)">t</text><text xml:space="preserve" font-family="AvenirNext-Medium" font-size="31.0" fill="#FEFFFF" transform="matrix(1.00, 0.00, -0.00, -1.00, 2155.0, 583.0)">i</text><text xml:space="preserve" font-family="AvenirNext-Medium" font-size="31.0" fill="#FEFFFF" transform="matrix(1.00, 0.00, -0.00, -1.00, 2163.0, 583.0)">n</text><text xml:space="preserve" font-family="AvenirNext-Medium" font-size="31.0" fill="#FEFFFF" transform="matrix(1.00, 0.00, -0.00, -1.00, 2181.1, 583.0)">g</text><text xml:space="preserve" font-family="AvenirNext-Medium" font-size="31.0" fill="#FEFFFF" transform="matrix(1.00, 0.00, -0.00, -1.00, 2200.7, 583.0)"> </text><text xml:space="preserve" font-family="AvenirNext-Medium" font-size="31.0" fill="#FEFFFF" transform="matrix(1.00, 0.00, -0.00, -1.00, 2208.4, 583.0)">f</text><text xml:space="preserve" font-family="AvenirNext-Medium" font-size="31.0" fill="#FEFFFF" transform="matrix(1.00, 0.00, -0.00, -1.00, 2218.0, 583.0)">o</text><text xml:space="preserve" font-family="AvenirNext-Medium" font-size="31.0" fill="#FEFFFF" transform="matrix(1.00, 0.00, -0.00, -1.00, 2236.9, 583.0)">r</text><text xml:space="preserve" font-family="AvenirNext-Medium" font-size="31.0" fill="#FEFFFF" transform="matrix(1.00, 0.00, -0.00, -1.00, 2248.1, 583.0)">!</text><text xml:space="preserve" font-family="AvenirNext-Medium" font-size="31.0" fill="#FEFFFF" transform="matrix(1.00, 0.00, -0.00, -1.00, 2258.5, 583.0)"> </text><g><clipPath id="clip-86"><path d="M -10.0 1059.0 L 1997.0 1059.0 L 1997.0 0.0 L -10.0 0.0 Z M -10.5 1058.8 "></path></clipPath><g clip-path="url(#clip-86)"><image xlink:href="3BD8D63EF67DC72EF6EC4746C33E5EA1.jpeg" width="1365.00" height="767.00" transform="matrix(1.47, 0.00, -0.00, -1.47, -10.0, 1094.0)"></image></g></g></g></svg>