<?xml version="1.0" encoding="UTF-8"?><svg xmlns="http://www.w3.org/2000/svg" xmlns:xlink="http://www.w3.org/1999/xlink" clip-rule="evenodd" stroke-miterlimit="4.00" viewBox="0 0 271 117"><desc>SVG generated by Keynote</desc><defs></defs><g transform="matrix(1.00, 0.00, -0.00, -1.00, 0.0, 117.0)"><g><clipPath id="clip-44"><path d="M 5.0 7.7 L 265.0 7.7 L 265.0 113.2 L 5.0 113.2 Z M 5.0 7.7 "></path></clipPath><g clip-path="url(#clip-44)"><path d="M 6.0 112.2 L 264.0 112.2 L 264.0 8.7 L 6.0 8.7 Z M 6.0 112.2 " fill="#000000"></path></g></g><g><clipPath id="clip-45"><path d="M 32.8 17.6 L 238.1 17.6 L 238.1 99.9 L 32.8 99.9 Z M 32.8 17.6 "></path></clipPath><g clip-path="url(#clip-45)"><text xml:space="preserve" font-family="AvenirNext-Bold" font-weight="bold" font-size="40.0" fill="#FEFFFF" transform="matrix(1.00, 0.00, -0.00, -1.00, 47.0, 46.0)">C</text><text xml:space="preserve" font-family="AvenirNext-Bold" font-weight="bold" font-size="40.0" fill="#FEFFFF" transform="matrix(1.00, 0.00, -0.00, -1.00, 74.4, 46.0)">o</text><text xml:space="preserve" font-family="AvenirNext-Bold" font-weight="bold" font-size="40.0" fill="#FEFFFF" transform="matrix(1.00, 0.00, -0.00, -1.00, 99.6, 46.0)">n</text><text xml:space="preserve" font-family="AvenirNext-Bold" font-weight="bold" font-size="40.0" fill="#FEFFFF" transform="matrix(1.00, 0.00, -0.00, -1.00, 124.3, 46.0)">t</text><text xml:space="preserve" font-family="AvenirNext-Bold" font-weight="bold" font-size="40.0" fill="#FEFFFF" transform="matrix(1.00, 0.00, -0.00, -1.00, 139.2, 46.0)">i</text><text xml:space="preserve" font-family="AvenirNext-Bold" font-weight="bold" font-size="40.0" fill="#FEFFFF" transform="matrix(1.00, 0.00, -0.00, -1.00, 151.0, 46.0)">n</text><text xml:space="preserve" font-family="AvenirNext-Bold" font-weight="bold" font-size="40.0" fill="#FEFFFF" transform="matrix(1.00, 0.00, -0.00, -1.00, 175.6, 46.0)">u</text><text xml:space="preserve" font-family="AvenirNext-Bold" font-weight="bold" font-size="40.0" fill="#FEFFFF" transform="matrix(1.00, 0.00, -0.00, -1.00, 200.2, 46.0)">e</text></g></g><g><clipPath id="clip-46"><path d="M 0.8 0.6 L 270.2 0.6 L 270.2 116.9 L 0.8 116.9 Z M 0.8 0.6 "></path></clipPath><g clip-path="url(#clip-46)"><path d="M 0.0 0.0 L 262.4 0.0 L 262.4 109.3 L 0.0 109.3 Z M 0.0 0.0 " fill="none" stroke="#FEFFFE" stroke-width="5.00" transform="matrix(1.00, 0.00, 0.00, -1.00, 4.3, 113.4)"></path></g></g></g></svg>