<?xml version="1.0" encoding="UTF-8"?><svg xmlns="http://www.w3.org/2000/svg" xmlns:xlink="http://www.w3.org/1999/xlink" clip-rule="evenodd" stroke-miterlimit="4.00" viewBox="0 0 554 203"><desc>SVG generated by Keynote</desc><defs></defs><g transform="matrix(1.00, 0.00, -0.00, -1.00, 0.0, 203.0)"><text xml:space="preserve" font-family="AvenirNext-Medium" font-size="31.0" fill="#FEFFFF" transform="matrix(1.00, 0.00, -0.00, -1.00, 3.0, 177.0)">T</text><text xml:space="preserve" font-family="AvenirNext-Medium" font-size="31.0" fill="#FEFFFF" transform="matrix(1.00, 0.00, -0.00, -1.00, 20.1, 177.0)">h</text><text xml:space="preserve" font-family="AvenirNext-Medium" font-size="31.0" fill="#FEFFFF" transform="matrix(1.00, 0.00, -0.00, -1.00, 38.2, 177.0)">a</text><text xml:space="preserve" font-family="AvenirNext-Medium" font-size="31.0" fill="#FEFFFF" transform="matrix(1.00, 0.00, -0.00, -1.00, 54.7, 177.0)">t</text><text xml:space="preserve" font-family="AvenirNext-Medium" font-size="31.0" fill="#FEFFFF" transform="matrix(1.00, 0.00, -0.00, -1.00, 64.9, 177.0)"> </text><text xml:space="preserve" font-family="AvenirNext-Medium" font-size="31.0" fill="#FEFFFF" transform="matrix(1.00, 0.00, -0.00, -1.00, 72.6, 177.0)">s</text><text xml:space="preserve" font-family="AvenirNext-Medium" font-size="31.0" fill="#FEFFFF" transform="matrix(1.00, 0.00, -0.00, -1.00, 86.4, 177.0)">i</text><text xml:space="preserve" font-family="AvenirNext-Medium" font-size="31.0" fill="#FEFFFF" transform="matrix(1.00, 0.00, -0.00, -1.00, 94.4, 177.0)">l</text><text xml:space="preserve" font-family="AvenirNext-Medium" font-size="31.0" fill="#FEFFFF" transform="matrix(1.00, 0.00, -0.00, -1.00, 102.5, 177.0)">h</text><text xml:space="preserve" font-family="AvenirNext-Medium" font-size="31.0" fill="#FEFFFF" transform="matrix(1.00, 0.00, -0.00, -1.00, 120.6, 177.0)">o</text><text xml:space="preserve" font-family="AvenirNext-Medium" font-size="31.0" fill="#FEFFFF" transform="matrix(1.00, 0.00, -0.00, -1.00, 139.5, 177.0)">u</text><text xml:space="preserve" font-family="AvenirNext-Medium" font-size="31.0" fill="#FEFFFF" transform="matrix(1.00, 0.00, -0.00, -1.00, 157.5, 177.0)">e</text><text xml:space="preserve" font-family="AvenirNext-Medium" font-size="31.0" fill="#FEFFFF" transform="matrix(1.00, 0.00, -0.00, -1.00, 175.3, 177.0)">t</text><text xml:space="preserve" font-family="AvenirNext-Medium" font-size="31.0" fill="#FEFFFF" transform="matrix(1.00, 0.00, -0.00, -1.00, 185.0, 177.0)">t</text><text xml:space="preserve" font-family="AvenirNext-Medium" font-size="31.0" fill="#FEFFFF" transform="matrix(1.00, 0.00, -0.00, -1.00, 195.2, 177.0)">e</text><text xml:space="preserve" font-family="AvenirNext-Medium" font-size="31.0" fill="#FEFFFF" transform="matrix(1.00, 0.00, -0.00, -1.00, 213.0, 177.0)"> </text><text xml:space="preserve" font-family="AvenirNext-Medium" font-size="31.0" fill="#FEFFFF" transform="matrix(1.00, 0.00, -0.00, -1.00, 220.7, 177.0)">l</text><text xml:space="preserve" font-family="AvenirNext-Medium" font-size="31.0" fill="#FEFFFF" transform="matrix(1.00, 0.00, -0.00, -1.00, 228.8, 177.0)">o</text><text xml:space="preserve" font-family="AvenirNext-Medium" font-size="31.0" fill="#FEFFFF" transform="matrix(1.00, 0.00, -0.00, -1.00, 247.7, 177.0)">o</text><text xml:space="preserve" font-family="AvenirNext-Medium" font-size="31.0" fill="#FEFFFF" transform="matrix(1.00, 0.00, -0.00, -1.00, 266.6, 177.0)">k</text><text xml:space="preserve" font-family="AvenirNext-Medium" font-size="31.0" fill="#FEFFFF" transform="matrix(1.00, 0.00, -0.00, -1.00, 282.4, 177.0)">e</text><text xml:space="preserve" font-family="AvenirNext-Medium" font-size="31.0" fill="#FEFFFF" transform="matrix(1.00, 0.00, -0.00, -1.00, 300.2, 177.0)">d</text><text xml:space="preserve" font-family="AvenirNext-Medium" font-size="31.0" fill="#FEFFFF" transform="matrix(1.00, 0.00, -0.00, -1.00, 319.9, 177.0)"> </text><text xml:space="preserve" font-family="AvenirNext-Medium" font-size="31.0" fill="#FEFFFF" transform="matrix(1.00, 0.00, -0.00, -1.00, 327.6, 177.0)">f</text><text xml:space="preserve" font-family="AvenirNext-Medium" font-size="31.0" fill="#FEFFFF" transform="matrix(1.00, 0.00, -0.00, -1.00, 337.2, 177.0)">a</text><text xml:space="preserve" font-family="AvenirNext-Medium" font-size="31.0" fill="#FEFFFF" transform="matrix(1.00, 0.00, -0.00, -1.00, 354.0, 177.0)">m</text><text xml:space="preserve" font-family="AvenirNext-Medium" font-size="31.0" fill="#FEFFFF" transform="matrix(1.00, 0.00, -0.00, -1.00, 381.5, 177.0)">i</text><text xml:space="preserve" font-family="AvenirNext-Medium" font-size="31.0" fill="#FEFFFF" transform="matrix(1.00, 0.00, -0.00, -1.00, 389.5, 177.0)">l</text><text xml:space="preserve" font-family="AvenirNext-Medium" font-size="31.0" fill="#FEFFFF" transform="matrix(1.00, 0.00, -0.00, -1.00, 397.6, 177.0)">i</text><text xml:space="preserve" font-family="AvenirNext-Medium" font-size="31.0" fill="#FEFFFF" transform="matrix(1.00, 0.00, -0.00, -1.00, 405.6, 177.0)">a</text><text xml:space="preserve" font-family="AvenirNext-Medium" font-size="31.0" fill="#FEFFFF" transform="matrix(1.00, 0.00, -0.00, -1.00, 422.4, 177.0)">r</text><text xml:space="preserve" font-family="AvenirNext-Medium" font-size="31.0" fill="#FEFFFF" transform="matrix(1.00, 0.00, -0.00, -1.00, 432.2, 177.0)">,</text><text xml:space="preserve" font-family="AvenirNext-Medium" font-size="31.0" fill="#FEFFFF" transform="matrix(1.00, 0.00, -0.00, -1.00, 439.3, 177.0)"> </text><text xml:space="preserve" font-family="AvenirNext-Medium" font-size="31.0" fill="#FEFFFF" transform="matrix(1.00, 0.00, -0.00, -1.00, 447.0, 177.0)">c</text><text xml:space="preserve" font-family="AvenirNext-Medium" font-size="31.0" fill="#FEFFFF" transform="matrix(1.00, 0.00, -0.00, -1.00, 462.4, 177.0)">o</text><text xml:space="preserve" font-family="AvenirNext-Medium" font-size="31.0" fill="#FEFFFF" transform="matrix(1.00, 0.00, -0.00, -1.00, 481.3, 177.0)">u</text><text xml:space="preserve" font-family="AvenirNext-Medium" font-size="31.0" fill="#FEFFFF" transform="matrix(1.00, 0.00, -0.00, -1.00, 499.3, 177.0)">l</text><text xml:space="preserve" font-family="AvenirNext-Medium" font-size="31.0" fill="#FEFFFF" transform="matrix(1.00, 0.00, -0.00, -1.00, 507.4, 177.0)">d</text><text xml:space="preserve" font-family="AvenirNext-Medium" font-size="31.0" fill="#FEFFFF" transform="matrix(1.00, 0.00, -0.00, -1.00, 527.1, 177.0)"> </text><text xml:space="preserve" font-family="AvenirNext-Medium" font-size="31.0" fill="#FEFFFF" transform="matrix(1.00, 0.00, -0.00, -1.00, 534.8, 177.0)">i</text><text xml:space="preserve" font-family="AvenirNext-Medium" font-size="31.0" fill="#FEFFFF" transform="matrix(1.00, 0.00, -0.00, -1.00, 542.8, 177.0)">t</text><text xml:space="preserve" font-family="AvenirNext-Medium" font-size="31.0" fill="#FEFFFF" transform="matrix(1.00, 0.00, -0.00, -1.00, 553.0, 177.0)"> </text><text xml:space="preserve" font-family="AvenirNext-Medium" font-size="31.0" fill="#FEFFFF" transform="matrix(1.00, 0.00, -0.00, -1.00, 3.0, 135.0)">r</text><text xml:space="preserve" font-family="AvenirNext-Medium" font-size="31.0" fill="#FEFFFF" transform="matrix(1.00, 0.00, -0.00, -1.00, 13.7, 135.0)">e</text><text xml:space="preserve" font-family="AvenirNext-Medium" font-size="31.0" fill="#FEFFFF" transform="matrix(1.00, 0.00, -0.00, -1.00, 31.2, 135.0)">a</text><text xml:space="preserve" font-family="AvenirNext-Medium" font-size="31.0" fill="#FEFFFF" transform="matrix(1.00, 0.00, -0.00, -1.00, 48.0, 135.0)">l</text><text xml:space="preserve" font-family="AvenirNext-Medium" font-size="31.0" fill="#FEFFFF" transform="matrix(1.00, 0.00, -0.00, -1.00, 56.1, 135.0)">l</text><text xml:space="preserve" font-family="AvenirNext-Medium" font-size="31.0" fill="#FEFFFF" transform="matrix(1.00, 0.00, -0.00, -1.00, 64.2, 135.0)">y</text><text xml:space="preserve" font-family="AvenirNext-Medium" font-size="31.0" fill="#FEFFFF" transform="matrix(1.00, 0.00, -0.00, -1.00, 79.8, 135.0)"> </text><text xml:space="preserve" font-family="AvenirNext-Medium" font-size="31.0" fill="#FEFFFF" transform="matrix(1.00, 0.00, -0.00, -1.00, 87.5, 135.0)">b</text><text xml:space="preserve" font-family="AvenirNext-Medium" font-size="31.0" fill="#FEFFFF" transform="matrix(1.00, 0.00, -0.00, -1.00, 107.3, 135.0)">e</text><text xml:space="preserve" font-family="AvenirNext-Medium" font-size="31.0" fill="#FEFFFF" transform="matrix(1.00, 0.00, -0.00, -1.00, 125.0, 135.0)"> </text><text xml:space="preserve" font-family="AvenirNext-Medium" font-size="31.0" fill="#FEFFFF" transform="matrix(1.00, 0.00, -0.00, -1.00, 132.8, 135.0)">h</text><text xml:space="preserve" font-family="AvenirNext-Medium" font-size="31.0" fill="#FEFFFF" transform="matrix(1.00, 0.00, -0.00, -1.00, 150.9, 135.0)">i</text><text xml:space="preserve" font-family="AvenirNext-Medium" font-size="31.0" fill="#FEFFFF" transform="matrix(1.00, 0.00, -0.00, -1.00, 158.9, 135.0)">m</text><text xml:space="preserve" font-family="AvenirNext-Medium" font-size="31.0" fill="#FEFFFF" transform="matrix(1.00, 0.00, -0.00, -1.00, 186.4, 135.0)">,</text><text xml:space="preserve" font-family="AvenirNext-Medium" font-size="31.0" fill="#FEFFFF" transform="matrix(1.00, 0.00, -0.00, -1.00, 193.5, 135.0)"> </text><text xml:space="preserve" font-family="AvenirNext-Medium" font-size="31.0" fill="#FEFFFF" transform="matrix(1.00, 0.00, -0.00, -1.00, 201.3, 135.0)">a</text><text xml:space="preserve" font-family="AvenirNext-Medium" font-size="31.0" fill="#FEFFFF" transform="matrix(1.00, 0.00, -0.00, -1.00, 218.1, 135.0)">f</text><text xml:space="preserve" font-family="AvenirNext-Medium" font-size="31.0" fill="#FEFFFF" transform="matrix(1.00, 0.00, -0.00, -1.00, 227.2, 135.0)">t</text><text xml:space="preserve" font-family="AvenirNext-Medium" font-size="31.0" fill="#FEFFFF" transform="matrix(1.00, 0.00, -0.00, -1.00, 237.4, 135.0)">e</text><text xml:space="preserve" font-family="AvenirNext-Medium" font-size="31.0" fill="#FEFFFF" transform="matrix(1.00, 0.00, -0.00, -1.00, 255.2, 135.0)">r</text><text xml:space="preserve" font-family="AvenirNext-Medium" font-size="31.0" fill="#FEFFFF" transform="matrix(1.00, 0.00, -0.00, -1.00, 266.4, 135.0)"> </text><text xml:space="preserve" font-family="AvenirNext-Medium" font-size="31.0" fill="#FEFFFF" transform="matrix(1.00, 0.00, -0.00, -1.00, 274.2, 135.0)">a</text><text xml:space="preserve" font-family="AvenirNext-Medium" font-size="31.0" fill="#FEFFFF" transform="matrix(1.00, 0.00, -0.00, -1.00, 291.0, 135.0)">l</text><text xml:space="preserve" font-family="AvenirNext-Medium" font-size="31.0" fill="#FEFFFF" transform="matrix(1.00, 0.00, -0.00, -1.00, 299.0, 135.0)">l</text><text xml:space="preserve" font-family="AvenirNext-Medium" font-size="31.0" fill="#FEFFFF" transform="matrix(1.00, 0.00, -0.00, -1.00, 307.1, 135.0)"> </text><text xml:space="preserve" font-family="AvenirNext-Medium" font-size="31.0" fill="#FEFFFF" transform="matrix(1.00, 0.00, -0.00, -1.00, 314.8, 135.0)">t</text><text xml:space="preserve" font-family="AvenirNext-Medium" font-size="31.0" fill="#FEFFFF" transform="matrix(1.00, 0.00, -0.00, -1.00, 325.0, 135.0)">h</text><text xml:space="preserve" font-family="AvenirNext-Medium" font-size="31.0" fill="#FEFFFF" transform="matrix(1.00, 0.00, -0.00, -1.00, 343.1, 135.0)">e</text><text xml:space="preserve" font-family="AvenirNext-Medium" font-size="31.0" fill="#FEFFFF" transform="matrix(1.00, 0.00, -0.00, -1.00, 360.9, 135.0)">s</text><text xml:space="preserve" font-family="AvenirNext-Medium" font-size="31.0" fill="#FEFFFF" transform="matrix(1.00, 0.00, -0.00, -1.00, 374.7, 135.0)">e</text><text xml:space="preserve" font-family="AvenirNext-Medium" font-size="31.0" fill="#FEFFFF" transform="matrix(1.00, 0.00, -0.00, -1.00, 392.4, 135.0)"> </text><text xml:space="preserve" font-family="AvenirNext-Medium" font-size="31.0" fill="#FEFFFF" transform="matrix(1.00, 0.00, -0.00, -1.00, 400.2, 135.0)">y</text><text xml:space="preserve" font-family="AvenirNext-Medium" font-size="31.0" fill="#FEFFFF" transform="matrix(1.00, 0.00, -0.00, -1.00, 415.8, 135.0)">e</text><text xml:space="preserve" font-family="AvenirNext-Medium" font-size="31.0" fill="#FEFFFF" transform="matrix(1.00, 0.00, -0.00, -1.00, 433.4, 135.0)">a</text><text xml:space="preserve" font-family="AvenirNext-Medium" font-size="31.0" fill="#FEFFFF" transform="matrix(1.00, 0.00, -0.00, -1.00, 450.2, 135.0)">r</text><text xml:space="preserve" font-family="AvenirNext-Medium" font-size="31.0" fill="#FEFFFF" transform="matrix(1.00, 0.00, -0.00, -1.00, 461.4, 135.0)">s</text><text xml:space="preserve" font-family="AvenirNext-Medium" font-size="31.0" fill="#FEFFFF" transform="matrix(1.00, 0.00, -0.00, -1.00, 475.2, 135.0)">?</text><text xml:space="preserve" font-family="AvenirNext-Medium" font-size="31.0" fill="#FEFFFF" transform="matrix(1.00, 0.00, -0.00, -1.00, 490.7, 135.0)"> </text><text xml:space="preserve" font-family="AvenirNext-Medium" font-size="31.0" fill="#FEFFFF" transform="matrix(1.00, 0.00, -0.00, -1.00, 498.4, 135.0)"> </text><text xml:space="preserve" font-family="AvenirNext-Medium" font-size="31.0" fill="#FEFFFF" transform="matrix(1.00, 0.00, -0.00, -1.00, 3.0, 51.0)">T</text><text xml:space="preserve" font-family="AvenirNext-Medium" font-size="31.0" fill="#FEFFFF" transform="matrix(1.00, 0.00, -0.00, -1.00, 20.1, 51.0)">h</text><text xml:space="preserve" font-family="AvenirNext-Medium" font-size="31.0" fill="#FEFFFF" transform="matrix(1.00, 0.00, -0.00, -1.00, 38.2, 51.0)">e</text><text xml:space="preserve" font-family="AvenirNext-Medium" font-size="31.0" fill="#FEFFFF" transform="matrix(1.00, 0.00, -0.00, -1.00, 55.9, 51.0)"> </text><text xml:space="preserve" font-family="AvenirNext-Medium" font-size="31.0" fill="#FEFFFF" transform="matrix(1.00, 0.00, -0.00, -1.00, 63.7, 51.0)">ï¬</text><text xml:space="preserve" font-family="AvenirNext-Medium" font-size="31.0" fill="#FEFFFF" transform="matrix(1.00, 0.00, -0.00, -1.00, 81.5, 51.0)">g</text><text xml:space="preserve" font-family="AvenirNext-Medium" font-size="31.0" fill="#FEFFFF" transform="matrix(1.00, 0.00, -0.00, -1.00, 101.1, 51.0)">u</text><text xml:space="preserve" font-family="AvenirNext-Medium" font-size="31.0" fill="#FEFFFF" transform="matrix(1.00, 0.00, -0.00, -1.00, 119.1, 51.0)">r</text><text xml:space="preserve" font-family="AvenirNext-Medium" font-size="31.0" fill="#FEFFFF" transform="matrix(1.00, 0.00, -0.00, -1.00, 129.8, 51.0)">e</text><text xml:space="preserve" font-family="AvenirNext-Medium" font-size="31.0" fill="#FEFFFF" transform="matrix(1.00, 0.00, -0.00, -1.00, 147.6, 51.0)"> </text><text xml:space="preserve" font-family="AvenirNext-Medium" font-size="31.0" fill="#FEFFFF" transform="matrix(1.00, 0.00, -0.00, -1.00, 155.3, 51.0)">a</text><text xml:space="preserve" font-family="AvenirNext-Medium" font-size="31.0" fill="#FEFFFF" transform="matrix(1.00, 0.00, -0.00, -1.00, 172.1, 51.0)">p</text><text xml:space="preserve" font-family="AvenirNext-Medium" font-size="31.0" fill="#FEFFFF" transform="matrix(1.00, 0.00, -0.00, -1.00, 191.8, 51.0)">p</text><text xml:space="preserve" font-family="AvenirNext-Medium" font-size="31.0" fill="#FEFFFF" transform="matrix(1.00, 0.00, -0.00, -1.00, 211.4, 51.0)">r</text><text xml:space="preserve" font-family="AvenirNext-Medium" font-size="31.0" fill="#FEFFFF" transform="matrix(1.00, 0.00, -0.00, -1.00, 222.1, 51.0)">o</text><text xml:space="preserve" font-family="AvenirNext-Medium" font-size="31.0" fill="#FEFFFF" transform="matrix(1.00, 0.00, -0.00, -1.00, 241.0, 51.0)">a</text><text xml:space="preserve" font-family="AvenirNext-Medium" font-size="31.0" fill="#FEFFFF" transform="matrix(1.00, 0.00, -0.00, -1.00, 257.8, 51.0)">c</text><text xml:space="preserve" font-family="AvenirNext-Medium" font-size="31.0" fill="#FEFFFF" transform="matrix(1.00, 0.00, -0.00, -1.00, 273.1, 51.0)">h</text><text xml:space="preserve" font-family="AvenirNext-Medium" font-size="31.0" fill="#FEFFFF" transform="matrix(1.00, 0.00, -0.00, -1.00, 291.2, 51.0)">e</text><text xml:space="preserve" font-family="AvenirNext-Medium" font-size="31.0" fill="#FEFFFF" transform="matrix(1.00, 0.00, -0.00, -1.00, 309.0, 51.0)">d</text><text xml:space="preserve" font-family="AvenirNext-Medium" font-size="31.0" fill="#FEFFFF" transform="matrix(1.00, 0.00, -0.00, -1.00, 328.7, 51.0)"> </text><text xml:space="preserve" font-family="AvenirNext-Medium" font-size="31.0" fill="#FEFFFF" transform="matrix(1.00, 0.00, -0.00, -1.00, 336.4, 51.0)">m</text><text xml:space="preserve" font-family="AvenirNext-Medium" font-size="31.0" fill="#FEFFFF" transform="matrix(1.00, 0.00, -0.00, -1.00, 363.9, 51.0)">e</text><text xml:space="preserve" font-family="AvenirNext-Medium" font-size="31.0" fill="#FEFFFF" transform="matrix(1.00, 0.00, -0.00, -1.00, 381.7, 51.0)"> </text><text xml:space="preserve" font-family="AvenirNext-Medium" font-size="31.0" fill="#FEFFFF" transform="matrix(1.00, 0.00, -0.00, -1.00, 389.4, 51.0)">s</text><text xml:space="preserve" font-family="AvenirNext-Medium" font-size="31.0" fill="#FEFFFF" transform="matrix(1.00, 0.00, -0.00, -1.00, 403.2, 51.0)">i</text><text xml:space="preserve" font-family="AvenirNext-Medium" font-size="31.0" fill="#FEFFFF" transform="matrix(1.00, 0.00, -0.00, -1.00, 411.2, 51.0)">l</text><text xml:space="preserve" font-family="AvenirNext-Medium" font-size="31.0" fill="#FEFFFF" transform="matrix(1.00, 0.00, -0.00, -1.00, 419.3, 51.0)">e</text><text xml:space="preserve" font-family="AvenirNext-Medium" font-size="31.0" fill="#FEFFFF" transform="matrix(1.00, 0.00, -0.00, -1.00, 437.0, 51.0)">n</text><text xml:space="preserve" font-family="AvenirNext-Medium" font-size="31.0" fill="#FEFFFF" transform="matrix(1.00, 0.00, -0.00, -1.00, 455.1, 51.0)">t</text><text xml:space="preserve" font-family="AvenirNext-Medium" font-size="31.0" fill="#FEFFFF" transform="matrix(1.00, 0.00, -0.00, -1.00, 465.3, 51.0)">l</text><text xml:space="preserve" font-family="AvenirNext-Medium" font-size="31.0" fill="#FEFFFF" transform="matrix(1.00, 0.00, -0.00, -1.00, 473.3, 51.0)">y</text><text xml:space="preserve" font-family="AvenirNext-Medium" font-size="31.0" fill="#FEFFFF" transform="matrix(1.00, 0.00, -0.00, -1.00, 487.8, 51.0)">,</text><text xml:space="preserve" font-family="AvenirNext-Medium" font-size="31.0" fill="#FEFFFF" transform="matrix(1.00, 0.00, -0.00, -1.00, 495.0, 51.0)"> </text><text xml:space="preserve" font-family="AvenirNext-Medium" font-size="31.0" fill="#FEFFFF" transform="matrix(1.00, 0.00, -0.00, -1.00, 3.0, 9.0)">m</text><text xml:space="preserve" font-family="AvenirNext-Medium" font-size="31.0" fill="#FEFFFF" transform="matrix(1.00, 0.00, -0.00, -1.00, 30.5, 9.0)">u</text><text xml:space="preserve" font-family="AvenirNext-Medium" font-size="31.0" fill="#FEFFFF" transform="matrix(1.00, 0.00, -0.00, -1.00, 48.5, 9.0)">t</text><text xml:space="preserve" font-family="AvenirNext-Medium" font-size="31.0" fill="#FEFFFF" transform="matrix(1.00, 0.00, -0.00, -1.00, 58.3, 9.0)">t</text><text xml:space="preserve" font-family="AvenirNext-Medium" font-size="31.0" fill="#FEFFFF" transform="matrix(1.00, 0.00, -0.00, -1.00, 68.5, 9.0)">e</text><text xml:space="preserve" font-family="AvenirNext-Medium" font-size="31.0" fill="#FEFFFF" transform="matrix(1.00, 0.00, -0.00, -1.00, 86.2, 9.0)">r</text><text xml:space="preserve" font-family="AvenirNext-Medium" font-size="31.0" fill="#FEFFFF" transform="matrix(1.00, 0.00, -0.00, -1.00, 97.5, 9.0)">i</text><text xml:space="preserve" font-family="AvenirNext-Medium" font-size="31.0" fill="#FEFFFF" transform="matrix(1.00, 0.00, -0.00, -1.00, 105.5, 9.0)">n</text><text xml:space="preserve" font-family="AvenirNext-Medium" font-size="31.0" fill="#FEFFFF" transform="matrix(1.00, 0.00, -0.00, -1.00, 123.5, 9.0)">g</text><text xml:space="preserve" font-family="AvenirNext-Medium" font-size="31.0" fill="#FEFFFF" transform="matrix(1.00, 0.00, -0.00, -1.00, 143.1, 9.0)"> </text><text xml:space="preserve" font-family="AvenirNext-Medium" font-size="31.0" fill="#FEFFFF" transform="matrix(1.00, 0.00, -0.00, -1.00, 150.9, 9.0)">s</text><text xml:space="preserve" font-family="AvenirNext-Medium" font-size="31.0" fill="#FEFFFF" transform="matrix(1.00, 0.00, -0.00, -1.00, 164.6, 9.0)">o</text><text xml:space="preserve" font-family="AvenirNext-Medium" font-size="31.0" fill="#FEFFFF" transform="matrix(1.00, 0.00, -0.00, -1.00, 183.5, 9.0)">m</text><text xml:space="preserve" font-family="AvenirNext-Medium" font-size="31.0" fill="#FEFFFF" transform="matrix(1.00, 0.00, -0.00, -1.00, 211.0, 9.0)">e</text><text xml:space="preserve" font-family="AvenirNext-Medium" font-size="31.0" fill="#FEFFFF" transform="matrix(1.00, 0.00, -0.00, -1.00, 228.8, 9.0)">t</text><text xml:space="preserve" font-family="AvenirNext-Medium" font-size="31.0" fill="#FEFFFF" transform="matrix(1.00, 0.00, -0.00, -1.00, 239.0, 9.0)">h</text><text xml:space="preserve" font-family="AvenirNext-Medium" font-size="31.0" fill="#FEFFFF" transform="matrix(1.00, 0.00, -0.00, -1.00, 257.1, 9.0)">i</text><text xml:space="preserve" font-family="AvenirNext-Medium" font-size="31.0" fill="#FEFFFF" transform="matrix(1.00, 0.00, -0.00, -1.00, 265.1, 9.0)">n</text><text xml:space="preserve" font-family="AvenirNext-Medium" font-size="31.0" fill="#FEFFFF" transform="matrix(1.00, 0.00, -0.00, -1.00, 283.2, 9.0)">g</text><text xml:space="preserve" font-family="AvenirNext-Medium" font-size="31.0" fill="#FEFFFF" transform="matrix(1.00, 0.00, -0.00, -1.00, 302.8, 9.0)"> </text><text xml:space="preserve" font-family="AvenirNext-Medium" font-size="31.0" fill="#FEFFFF" transform="matrix(1.00, 0.00, -0.00, -1.00, 310.5, 9.0)">u</text><text xml:space="preserve" font-family="AvenirNext-Medium" font-size="31.0" fill="#FEFFFF" transform="matrix(1.00, 0.00, -0.00, -1.00, 328.6, 9.0)">n</text><text xml:space="preserve" font-family="AvenirNext-Medium" font-size="31.0" fill="#FEFFFF" transform="matrix(1.00, 0.00, -0.00, -1.00, 346.6, 9.0)">d</text><text xml:space="preserve" font-family="AvenirNext-Medium" font-size="31.0" fill="#FEFFFF" transform="matrix(1.00, 0.00, -0.00, -1.00, 366.3, 9.0)">e</text><text xml:space="preserve" font-family="AvenirNext-Medium" font-size="31.0" fill="#FEFFFF" transform="matrix(1.00, 0.00, -0.00, -1.00, 384.1, 9.0)">r</text><text xml:space="preserve" font-family="AvenirNext-Medium" font-size="31.0" fill="#FEFFFF" transform="matrix(1.00, 0.00, -0.00, -1.00, 395.3, 9.0)"> </text><text xml:space="preserve" font-family="AvenirNext-Medium" font-size="31.0" fill="#FEFFFF" transform="matrix(1.00, 0.00, -0.00, -1.00, 403.0, 9.0)">h</text><text xml:space="preserve" font-family="AvenirNext-Medium" font-size="31.0" fill="#FEFFFF" transform="matrix(1.00, 0.00, -0.00, -1.00, 421.1, 9.0)">i</text><text xml:space="preserve" font-family="AvenirNext-Medium" font-size="31.0" fill="#FEFFFF" transform="matrix(1.00, 0.00, -0.00, -1.00, 429.2, 9.0)">s</text><text xml:space="preserve" font-family="AvenirNext-Medium" font-size="31.0" fill="#FEFFFF" transform="matrix(1.00, 0.00, -0.00, -1.00, 442.9, 9.0)"> </text><text xml:space="preserve" font-family="AvenirNext-Medium" font-size="31.0" fill="#FEFFFF" transform="matrix(1.00, 0.00, -0.00, -1.00, 450.7, 9.0)">b</text><text xml:space="preserve" font-family="AvenirNext-Medium" font-size="31.0" fill="#FEFFFF" transform="matrix(1.00, 0.00, -0.00, -1.00, 470.4, 9.0)">r</text><text xml:space="preserve" font-family="AvenirNext-Medium" font-size="31.0" fill="#FEFFFF" transform="matrix(1.00, 0.00, -0.00, -1.00, 481.1, 9.0)">e</text><text xml:space="preserve" font-family="AvenirNext-Medium" font-size="31.0" fill="#FEFFFF" transform="matrix(1.00, 0.00, -0.00, -1.00, 498.6, 9.0)">a</text><text xml:space="preserve" font-family="AvenirNext-Medium" font-size="31.0" fill="#FEFFFF" transform="matrix(1.00, 0.00, -0.00, -1.00, 515.1, 9.0)">t</text><text xml:space="preserve" font-family="AvenirNext-Medium" font-size="31.0" fill="#FEFFFF" transform="matrix(1.00, 0.00, -0.00, -1.00, 525.3, 9.0)">h</text><text xml:space="preserve" font-family="AvenirNext-Medium" font-size="31.0" fill="#FEFFFF" transform="matrix(1.00, 0.00, -0.00, -1.00, 543.4, 9.0)">.</text><text xml:space="preserve" font-family="AvenirNext-Medium" font-size="31.0" fill="#FEFFFF" transform="matrix(1.00, 0.00, -0.00, -1.00, 550.6, 9.0)"> </text></g></svg>