<?xml version="1.0" encoding="UTF-8"?><svg xmlns="http://www.w3.org/2000/svg" xmlns:xlink="http://www.w3.org/1999/xlink" clip-rule="evenodd" stroke-miterlimit="4.00" viewBox="0 0 340 51"><desc>SVG generated by Keynote</desc><defs></defs><g transform="matrix(1.00, 0.00, -0.00, -1.00, 0.0, 51.0)"><text xml:space="preserve" font-family="AvenirNext-DemiBold" font-weight="bold" font-size="47.0" fill="#FEFFFF" transform="matrix(1.00, 0.00, -0.00, -1.00, 2.0, 13.0)">T</text><text xml:space="preserve" font-family="AvenirNext-DemiBold" font-weight="bold" font-size="47.0" fill="#FEFFFF" transform="matrix(1.00, 0.00, -0.00, -1.00, 27.9, 13.0)">h</text><text xml:space="preserve" font-family="AvenirNext-DemiBold" font-weight="bold" font-size="47.0" fill="#FEFFFF" transform="matrix(1.00, 0.00, -0.00, -1.00, 55.3, 13.0)">e</text><text xml:space="preserve" font-family="AvenirNext-DemiBold" font-weight="bold" font-size="47.0" fill="#FEFFFF" transform="matrix(1.00, 0.00, -0.00, -1.00, 82.3, 13.0)"> </text><text xml:space="preserve" font-family="AvenirNext-DemiBold" font-weight="bold" font-size="47.0" fill="#FEFFFF" transform="matrix(1.00, 0.00, -0.00, -1.00, 93.5, 13.0)">W</text><text xml:space="preserve" font-family="AvenirNext-DemiBold" font-weight="bold" font-size="47.0" fill="#FEFFFF" transform="matrix(1.00, 0.00, -0.00, -1.00, 139.0, 13.0)">e</text><text xml:space="preserve" font-family="AvenirNext-DemiBold" font-weight="bold" font-size="47.0" fill="#FEFFFF" transform="matrix(1.00, 0.00, -0.00, -1.00, 165.9, 13.0)">l</text><text xml:space="preserve" font-family="AvenirNext-DemiBold" font-weight="bold" font-size="47.0" fill="#FEFFFF" transform="matrix(1.00, 0.00, -0.00, -1.00, 178.5, 13.0)">c</text><text xml:space="preserve" font-family="AvenirNext-DemiBold" font-weight="bold" font-size="47.0" fill="#FEFFFF" transform="matrix(1.00, 0.00, -0.00, -1.00, 201.5, 13.0)">o</text><text xml:space="preserve" font-family="AvenirNext-DemiBold" font-weight="bold" font-size="47.0" fill="#FEFFFF" transform="matrix(1.00, 0.00, -0.00, -1.00, 230.1, 13.0)">m</text><text xml:space="preserve" font-family="AvenirNext-DemiBold" font-weight="bold" font-size="47.0" fill="#FEFFFF" transform="matrix(1.00, 0.00, -0.00, -1.00, 272.0, 13.0)">i</text><text xml:space="preserve" font-family="AvenirNext-DemiBold" font-weight="bold" font-size="47.0" fill="#FEFFFF" transform="matrix(1.00, 0.00, -0.00, -1.00, 284.6, 13.0)">n</text><text xml:space="preserve" font-family="AvenirNext-DemiBold" font-weight="bold" font-size="47.0" fill="#FEFFFF" transform="matrix(1.00, 0.00, -0.00, -1.00, 311.9, 13.0)">g</text></g></svg>