<?xml version="1.0" encoding="UTF-8"?><svg xmlns="http://www.w3.org/2000/svg" xmlns:xlink="http://www.w3.org/1999/xlink" clip-rule="evenodd" stroke-miterlimit="4.00" viewBox="0 0 2800 1059"><desc>SVG generated by Keynote</desc><defs></defs><g transform="matrix(1.00, 0.00, -0.00, -1.00, 0.0, 1059.0)"><path d="M 0.0 0.0 L 2800.0 0.0 L 2800.0 1059.0 L 0.0 1059.0 Z M 0.0 0.0 " fill="#000000"></path><image xlink:href="B12E94666709E743C8E97D0D00069887.jpeg" width="1366.00" height="723.00" transform="matrix(1.46, 0.00, -0.00, -1.46, -1.0, 1059.0)"></image><g><clipPath id="clip-7"><path d="M 1998.1 1059.0 L 2802.3 1059.0 L 2802.3 0.0 L 1998.1 0.0 Z M 1998.1 1059.0 "></path></clipPath><g clip-path="url(#clip-7)"><image xlink:href="../../9408A9C4-D635-4DCF-AA84-A4CF6D5A0E75/assets/8669AAA156F33E0A19E91B6E3C9197C3.jpeg" width="1152.00" height="768.00" transform="matrix(2.67, 0.00, -0.00, -2.67, 1998.1, 1059.0)"></image></g></g><g><clipPath id="clip-8"><path d="M -6.4 1059.0 L 1998.1 1059.0 L 1998.1 0.0 L -6.4 0.0 Z M -6.4 1059.0 "></path></clipPath><g clip-path="url(#clip-8)"><image xlink:href="../../9408A9C4-D635-4DCF-AA84-A4CF6D5A0E75/assets/8669AAA156F33E0A19E91B6E3C9197C3.jpeg" width="1152.00" height="768.00" transform="matrix(2.67, 0.00, -0.00, -2.67, -6.4, 1059.0)"></image></g></g><text xml:space="preserve" font-family="AvenirNext-MediumItalic" font-style="italic" font-size="84.0" fill="#FEFFFF" transform="matrix(1.00, 0.00, -0.00, -1.00, 824.0, 292.8)">R</text><text xml:space="preserve" font-family="AvenirNext-MediumItalic" font-style="italic" font-size="84.0" fill="#FEFFFF" transform="matrix(1.00, 0.00, -0.00, -1.00, 874.4, 292.8)">e</text><text xml:space="preserve" font-family="AvenirNext-MediumItalic" font-style="italic" font-size="84.0" fill="#FEFFFF" transform="matrix(1.00, 0.00, -0.00, -1.00, 921.9, 292.8)">c</text><text xml:space="preserve" font-family="AvenirNext-MediumItalic" font-style="italic" font-size="84.0" fill="#FEFFFF" transform="matrix(1.00, 0.00, -0.00, -1.00, 963.5, 292.8)">o</text><text xml:space="preserve" font-family="AvenirNext-MediumItalic" font-style="italic" font-size="84.0" fill="#FEFFFF" transform="matrix(1.00, 0.00, -0.00, -1.00, 1013.9, 292.8)">n</text><text xml:space="preserve" font-family="AvenirNext-MediumItalic" font-style="italic" font-size="84.0" fill="#FEFFFF" transform="matrix(1.00, 0.00, -0.00, -1.00, 1062.7, 292.8)">c</text><text xml:space="preserve" font-family="AvenirNext-MediumItalic" font-style="italic" font-size="84.0" fill="#FEFFFF" transform="matrix(1.00, 0.00, -0.00, -1.00, 1104.4, 292.8)">i</text><text xml:space="preserve" font-family="AvenirNext-MediumItalic" font-style="italic" font-size="84.0" fill="#FEFFFF" transform="matrix(1.00, 0.00, -0.00, -1.00, 1126.2, 292.8)">l</text><text xml:space="preserve" font-family="AvenirNext-MediumItalic" font-style="italic" font-size="84.0" fill="#FEFFFF" transform="matrix(1.00, 0.00, -0.00, -1.00, 1148.0, 292.8)">e</text><text xml:space="preserve" font-family="AvenirNext-MediumItalic" font-style="italic" font-size="84.0" fill="#FEFFFF" transform="matrix(1.00, 0.00, -0.00, -1.00, 1195.5, 292.8)"> </text><text xml:space="preserve" font-family="AvenirNext-MediumItalic" font-style="italic" font-size="84.0" fill="#FEFFFF" transform="matrix(1.00, 0.00, -0.00, -1.00, 1216.5, 292.8)">o</text><text xml:space="preserve" font-family="AvenirNext-MediumItalic" font-style="italic" font-size="84.0" fill="#FEFFFF" transform="matrix(1.00, 0.00, -0.00, -1.00, 1266.9, 292.8)">r</text><text xml:space="preserve" font-family="AvenirNext-MediumItalic" font-style="italic" font-size="84.0" fill="#FEFFFF" transform="matrix(1.00, 0.00, -0.00, -1.00, 1295.7, 292.8)"> </text><text xml:space="preserve" font-family="AvenirNext-MediumItalic" font-style="italic" font-size="84.0" fill="#FEFFFF" transform="matrix(1.00, 0.00, -0.00, -1.00, 1316.7, 292.8)">R</text><text xml:space="preserve" font-family="AvenirNext-MediumItalic" font-style="italic" font-size="84.0" fill="#FEFFFF" transform="matrix(1.00, 0.00, -0.00, -1.00, 1367.1, 292.8)">e</text><text xml:space="preserve" font-family="AvenirNext-MediumItalic" font-style="italic" font-size="84.0" fill="#FEFFFF" transform="matrix(1.00, 0.00, -0.00, -1.00, 1414.5, 292.8)">p</text><text xml:space="preserve" font-family="AvenirNext-MediumItalic" font-style="italic" font-size="84.0" fill="#FEFFFF" transform="matrix(1.00, 0.00, -0.00, -1.00, 1467.6, 292.8)">e</text><text xml:space="preserve" font-family="AvenirNext-MediumItalic" font-style="italic" font-size="84.0" fill="#FEFFFF" transform="matrix(1.00, 0.00, -0.00, -1.00, 1514.6, 292.8)">a</text><text xml:space="preserve" font-family="AvenirNext-MediumItalic" font-style="italic" font-size="84.0" fill="#FEFFFF" transform="matrix(1.00, 0.00, -0.00, -1.00, 1558.8, 292.8)">t</text><text xml:space="preserve" font-family="AvenirNext-DemiBold" font-weight="bold" font-size="40.0" fill="#FEFFFF" transform="matrix(1.00, 0.00, -0.00, -1.00, 1212.4, 205.2)">A</text><text xml:space="preserve" font-family="AvenirNext-DemiBold" font-weight="bold" font-size="40.0" fill="#FEFFFF" transform="matrix(1.00, 0.00, -0.00, -1.00, 1240.6, 205.2)">n</text><text xml:space="preserve" font-family="AvenirNext-DemiBold" font-weight="bold" font-size="40.0" fill="#FEFFFF" transform="matrix(1.00, 0.00, -0.00, -1.00, 1263.9, 205.2)"> </text><text xml:space="preserve" font-family="AvenirNext-DemiBold" font-weight="bold" font-size="40.0" fill="#FEFFFF" transform="matrix(1.00, 0.00, -0.00, -1.00, 1273.9, 205.2)">I</text><text xml:space="preserve" font-family="AvenirNext-DemiBold" font-weight="bold" font-size="40.0" fill="#FEFFFF" transform="matrix(1.00, 0.00, -0.00, -1.00, 1285.2, 205.2)">n</text><text xml:space="preserve" font-family="AvenirNext-DemiBold" font-weight="bold" font-size="40.0" fill="#FEFFFF" transform="matrix(1.00, 0.00, -0.00, -1.00, 1308.4, 205.2)">t</text><text xml:space="preserve" font-family="AvenirNext-DemiBold" font-weight="bold" font-size="40.0" fill="#FEFFFF" transform="matrix(1.00, 0.00, -0.00, -1.00, 1322.0, 205.2)">e</text><text xml:space="preserve" font-family="AvenirNext-DemiBold" font-weight="bold" font-size="40.0" fill="#FEFFFF" transform="matrix(1.00, 0.00, -0.00, -1.00, 1345.0, 205.2)">r</text><text xml:space="preserve" font-family="AvenirNext-DemiBold" font-weight="bold" font-size="40.0" fill="#FEFFFF" transform="matrix(1.00, 0.00, -0.00, -1.00, 1359.0, 205.2)">a</text><text xml:space="preserve" font-family="AvenirNext-DemiBold" font-weight="bold" font-size="40.0" fill="#FEFFFF" transform="matrix(1.00, 0.00, -0.00, -1.00, 1381.0, 205.2)">c</text><text xml:space="preserve" font-family="AvenirNext-DemiBold" font-weight="bold" font-size="40.0" fill="#FEFFFF" transform="matrix(1.00, 0.00, -0.00, -1.00, 1400.6, 205.2)">t</text><text xml:space="preserve" font-family="AvenirNext-DemiBold" font-weight="bold" font-size="40.0" fill="#FEFFFF" transform="matrix(1.00, 0.00, -0.00, -1.00, 1414.2, 205.2)">i</text><text xml:space="preserve" font-family="AvenirNext-DemiBold" font-weight="bold" font-size="40.0" fill="#FEFFFF" transform="matrix(1.00, 0.00, -0.00, -1.00, 1424.9, 205.2)">v</text><text xml:space="preserve" font-family="AvenirNext-DemiBold" font-weight="bold" font-size="40.0" fill="#FEFFFF" transform="matrix(1.00, 0.00, -0.00, -1.00, 1445.4, 205.2)">e</text><text xml:space="preserve" font-family="AvenirNext-DemiBold" font-weight="bold" font-size="40.0" fill="#FEFFFF" transform="matrix(1.00, 0.00, -0.00, -1.00, 1468.4, 205.2)"> </text><text xml:space="preserve" font-family="AvenirNext-DemiBold" font-weight="bold" font-size="40.0" fill="#FEFFFF" transform="matrix(1.00, 0.00, -0.00, -1.00, 1478.4, 205.2)">S</text><text xml:space="preserve" font-family="AvenirNext-DemiBold" font-weight="bold" font-size="40.0" fill="#FEFFFF" transform="matrix(1.00, 0.00, -0.00, -1.00, 1501.1, 205.2)">t</text><text xml:space="preserve" font-family="AvenirNext-DemiBold" font-weight="bold" font-size="40.0" fill="#FEFFFF" transform="matrix(1.00, 0.00, -0.00, -1.00, 1514.7, 205.2)">o</text><text xml:space="preserve" font-family="AvenirNext-DemiBold" font-weight="bold" font-size="40.0" fill="#FEFFFF" transform="matrix(1.00, 0.00, -0.00, -1.00, 1539.1, 205.2)">r</text><text xml:space="preserve" font-family="AvenirNext-DemiBold" font-weight="bold" font-size="40.0" fill="#FEFFFF" transform="matrix(1.00, 0.00, -0.00, -1.00, 1553.6, 205.2)">y</text><g><clipPath id="clip-9"><path d="M 2185.7 215.7 L 2645.8 215.7 L 2645.8 352.0 L 2185.7 352.0 Z M 2185.7 215.7 "></path></clipPath><g clip-path="url(#clip-9)"><path d="M 0.0 0.0 L 453.0 0.0 L 453.0 129.3 L 0.0 129.3 Z M 0.0 0.0 " fill="none" stroke="#FEFFFE" stroke-width="5.00" transform="matrix(1.00, 0.00, 0.00, -1.00, 2189.2, 348.5)"></path></g></g><g><clipPath id="clip-10"><path d="M 2189.2 219.8 L 2642.3 219.8 L 2642.3 347.8 L 2189.2 347.8 Z M 2189.2 219.8 "></path></clipPath><g clip-path="url(#clip-10)"><path d="M 2190.2 346.8 L 2641.3 346.8 L 2641.3 220.8 L 2190.2 220.8 Z M 2190.2 346.8 " fill="#000000"></path></g></g><g><clipPath id="clip-11"><path d="M 2303.0 222.3 L 2528.5 222.3 L 2528.5 345.3 L 2303.0 345.3 Z M 2303.0 222.3 "></path></clipPath><g clip-path="url(#clip-11)"><text xml:space="preserve" font-family="AvenirNext-Bold" font-weight="bold" font-size="60.0" fill="#FEFFFF" transform="matrix(1.00, 0.00, -0.00, -1.00, 2324.0, 265.0)">S</text><text xml:space="preserve" font-family="AvenirNext-Bold" font-weight="bold" font-size="60.0" fill="#FEFFFF" transform="matrix(1.00, 0.00, -0.00, -1.00, 2358.7, 265.0)">T</text><text xml:space="preserve" font-family="AvenirNext-Bold" font-weight="bold" font-size="60.0" fill="#FEFFFF" transform="matrix(1.00, 0.00, -0.00, -1.00, 2389.9, 265.0)">A</text><text xml:space="preserve" font-family="AvenirNext-Bold" font-weight="bold" font-size="60.0" fill="#FEFFFF" transform="matrix(1.00, 0.00, -0.00, -1.00, 2433.7, 265.0)">R</text><text xml:space="preserve" font-family="AvenirNext-Bold" font-weight="bold" font-size="60.0" fill="#FEFFFF" transform="matrix(1.00, 0.00, -0.00, -1.00, 2472.7, 265.0)">T</text></g></g></g></svg>