<?xml version="1.0" encoding="UTF-8"?><svg xmlns="http://www.w3.org/2000/svg" xmlns:xlink="http://www.w3.org/1999/xlink" clip-rule="evenodd" stroke-miterlimit="4.00" viewBox="0 0 311 95"><desc>SVG generated by Keynote</desc><defs></defs><g transform="matrix(1.00, 0.00, -0.00, -1.00, 0.0, 95.0)"><g><clipPath id="clip-2"><path d="M 0.7 0.7 L 310.4 0.7 L 310.4 94.0 L 0.7 94.0 Z M 0.7 0.7 "></path></clipPath><g clip-path="url(#clip-2)"><path d="M 0.0 0.0 L 302.6 0.0 L 302.6 86.4 L 0.0 86.4 Z M 0.0 0.0 " fill="none" stroke="#FEFFFE" stroke-width="5.00" transform="matrix(1.00, 0.00, 0.00, -1.00, 4.2, 90.5)"></path></g></g><g><clipPath id="clip-3"><path d="M 3.9 4.3 L 307.2 4.3 L 307.2 90.5 L 3.9 90.5 Z M 3.9 4.3 "></path></clipPath><g clip-path="url(#clip-3)"><path d="M 4.9 89.5 L 306.2 89.5 L 306.2 5.3 L 4.9 5.3 Z M 4.9 89.5 " fill="#000000"></path></g></g><g><clipPath id="clip-4"><path d="M 82.8 10.2 L 228.3 10.2 L 228.3 83.8 L 82.8 83.8 Z M 82.8 10.2 "></path></clipPath><g clip-path="url(#clip-4)"><text xml:space="preserve" font-family="AvenirNext-Bold" font-weight="bold" font-size="36.0" fill="#FEFFFF" transform="matrix(1.00, 0.00, -0.00, -1.00, 100.0, 36.0)">S</text><text xml:space="preserve" font-family="AvenirNext-Bold" font-weight="bold" font-size="36.0" fill="#FEFFFF" transform="matrix(1.00, 0.00, -0.00, -1.00, 120.8, 36.0)">T</text><text xml:space="preserve" font-family="AvenirNext-Bold" font-weight="bold" font-size="36.0" fill="#FEFFFF" transform="matrix(1.00, 0.00, -0.00, -1.00, 139.6, 36.0)">A</text><text xml:space="preserve" font-family="AvenirNext-Bold" font-weight="bold" font-size="36.0" fill="#FEFFFF" transform="matrix(1.00, 0.00, -0.00, -1.00, 165.8, 36.0)">R</text><text xml:space="preserve" font-family="AvenirNext-Bold" font-weight="bold" font-size="36.0" fill="#FEFFFF" transform="matrix(1.00, 0.00, -0.00, -1.00, 189.2, 36.0)">T</text></g></g></g></svg>