<?xml version="1.0" encoding="UTF-8"?><svg xmlns="http://www.w3.org/2000/svg" xmlns:xlink="http://www.w3.org/1999/xlink" clip-rule="evenodd" stroke-miterlimit="4.00" viewBox="0 0 445 866"><desc>SVG generated by Keynote</desc><defs></defs><g transform="matrix(1.00, 0.00, -0.00, -1.00, 0.0, 866.0)"><g><clipPath id="clip-135"><path d="M 2.0 2.0 L 443.0 2.0 L 443.0 864.0 L 2.0 864.0 Z M 2.0 2.0 "></path></clipPath><g clip-path="url(#clip-135)"><path d="M 216.5 722.3 C 211.0 722.4 204.6 722.1 199.7 719.1 C 198.4 718.3 197.2 717.3 196.1 716.1 C 196.0 716.0 195.9 716.2 195.9 716.3 C 196.4 717.2 196.9 718.1 197.5 719.0 C 200.8 724.4 204.7 728.3 211.9 729.4 C 217.8 730.4 228.6 731.9 233.2 727.0 C 233.9 726.2 234.1 724.8 233.2 724.1 C 232.7 723.8 232.2 723.4 231.7 723.1 C 229.5 722.0 226.8 721.8 224.1 721.8 C 221.5 721.9 218.8 722.3 216.5 722.3 " fill="#F8A877"></path><path d="M 317.4 660.7 C 324.9 663.7 337.5 667.8 330.4 677.8 C 328.4 680.3 324.1 681.2 321.3 681.5 C 322.5 688.1 324.3 694.5 326.0 700.9 C 335.3 698.5 337.3 677.3 335.8 669.2 C 333.5 655.3 324.9 648.2 314.1 641.2 L 313.9 641.2 C 315.4 647.5 316.6 654.1 317.4 660.7 " fill="#F8A877"></path><path d="M 326.4 774.4 C 328.9 767.7 330.3 760.2 331.2 753.1 C 331.8 748.7 330.9 744.5 328.0 741.1 C 327.2 740.2 325.6 741.0 325.6 742.1 C 325.5 747.8 327.7 753.2 327.3 758.9 C 327.0 764.1 325.6 769.1 325.6 774.3 C 325.6 774.7 326.2 774.8 326.4 774.4 " fill="#562916"></path><path d="M 319.4 777.7 C 323.0 781.0 325.8 784.9 327.4 789.2 C 336.7 772.4 332.6 745.6 331.2 727.6 C 330.5 718.4 328.3 709.6 326.0 700.9 C 324.3 694.5 322.5 688.1 321.3 681.5 C 320.8 681.5 320.3 681.6 319.9 681.6 C 322.2 706.5 322.1 732.1 320.8 756.9 C 320.5 763.8 320.1 770.7 319.5 777.5 Z M 325.6 742.1 C 325.6 741.0 327.2 740.2 328.0 741.1 C 330.9 744.5 331.8 748.7 331.2 753.1 C 330.3 760.2 328.9 767.7 326.4 774.4 C 326.2 774.8 325.6 774.7 325.6 774.3 C 325.6 769.1 327.0 764.1 327.3 758.9 C 327.7 753.2 325.4 747.8 325.6 742.1 " fill="#2E0A00"></path><path d="M 317.4 660.7 C 318.5 667.5 319.4 674.6 319.9 681.6 C 320.3 681.6 320.8 681.5 321.3 681.5 C 324.1 681.2 328.4 680.3 330.4 677.8 C 337.5 667.8 324.9 663.7 317.4 660.7 " fill="#BB7950"></path><path d="M 313.9 670.2 C 316.8 665.3 315.4 657.8 310.0 655.1 C 305.2 652.8 298.7 649.4 293.2 651.7 C 287.4 654.2 285.4 659.2 287.8 665.1 C 289.8 669.7 295.0 671.7 298.9 674.1 C 304.1 677.1 311.0 675.3 313.9 670.2 " fill="#FDAA8B"></path><path d="M 303.6 735.4 C 309.2 733.3 317.2 726.2 318.1 720.1 L 318.1 720.1 C 315.1 722.8 312.6 726.4 308.5 727.3 C 305.7 728.0 302.7 727.9 299.9 728.3 C 294.6 729.0 288.4 729.0 283.1 728.6 C 282.5 728.6 282.1 729.3 282.4 729.8 C 287.1 737.1 295.8 738.3 303.6 735.4 " fill="#FFC99F"></path><path d="M 281.0 649.2 C 282.1 655.0 275.3 657.5 272.7 661.8 C 266.3 672.0 263.4 683.2 264.7 695.2 C 264.8 695.8 265.7 695.9 265.7 695.2 C 266.7 680.2 271.2 663.8 286.2 657.3 C 287.1 656.9 287.7 655.7 287.7 654.7 C 287.1 640.5 274.0 630.1 260.7 627.6 C 260.0 627.5 259.7 628.4 260.2 628.8 C 267.6 633.9 279.1 639.4 281.0 649.2 " fill="#CF8557"></path><path d="M 224.3 748.6 C 225.5 749.4 226.8 750.3 228.0 751.0 C 238.9 757.9 250.6 762.8 261.7 769.4 C 274.6 777.0 281.3 787.3 291.5 797.3 C 292.2 797.9 293.0 798.2 293.7 798.2 C 295.8 798.2 297.8 796.4 297.0 794.1 C 292.4 781.6 278.0 774.5 267.0 768.2 C 253.4 760.3 239.2 753.9 224.5 748.1 C 224.3 748.0 224.1 748.2 224.1 748.3 C 224.1 748.5 224.2 748.5 224.3 748.6 " fill="#704737"></path><path d="M 327.4 789.2 C 325.8 784.9 323.0 781.0 319.4 777.6 L 319.3 777.8 C 315.6 775.0 311.5 772.2 307.2 769.4 C 276.8 750.2 232.2 732.9 202.2 735.1 C 207.5 740.0 212.5 745.2 217.7 750.3 C 219.9 752.5 222.1 754.6 224.4 756.6 L 228.0 751.0 C 226.8 750.3 225.5 749.4 224.3 748.6 C 224.2 748.5 224.1 748.5 224.1 748.3 C 224.1 748.2 224.3 748.0 224.5 748.1 C 239.2 753.9 253.4 760.4 267.0 768.2 C 278.0 774.5 292.4 781.6 297.0 794.1 C 297.8 796.4 295.8 798.2 293.7 798.2 C 293.0 798.2 292.2 797.9 291.5 797.3 L 289.5 802.3 C 290.2 802.6 291.0 802.9 291.7 803.2 C 302.5 807.7 313.6 811.5 323.0 817.5 C 329.5 806.8 330.4 797.3 327.4 789.2 " fill="#5C2E1C"></path><path d="M 199.7 719.1 C 204.5 722.1 211.0 722.4 216.5 722.3 C 218.8 722.3 221.5 721.9 224.1 721.8 C 216.1 720.6 207.8 719.7 199.7 719.1 " fill="#F8A877"></path><path d="M 220.9 644.5 C 216.2 645.2 211.4 645.1 206.9 646.0 C 198.4 647.6 198.0 662.2 206.9 663.5 C 212.7 664.3 218.3 663.1 224.0 661.8 C 228.7 660.7 233.7 659.1 236.3 654.7 C 237.6 652.4 237.3 649.1 235.3 647.3 C 231.2 643.5 226.1 643.7 220.9 644.5 " fill="#FDAA8B"></path><path d="M 260.3 731.3 C 278.7 738.4 302.9 745.2 320.8 756.9 C 322.1 732.1 322.2 706.5 319.9 681.6 C 319.4 674.6 318.5 667.5 317.4 660.7 C 316.6 654.1 315.4 647.6 313.9 641.2 C 313.4 638.6 312.8 636.0 312.2 633.4 C 312.2 633.3 312.2 633.2 312.2 633.2 C 306.4 609.8 297.6 588.2 284.7 570.4 C 277.4 561.0 270.0 554.0 262.7 549.1 C 251.9 544.4 239.6 548.0 227.6 552.8 C 221.4 555.3 216.2 558.2 211.7 561.6 L 211.7 561.7 C 203.3 571.6 196.5 586.7 193.6 595.7 C 188.9 611.5 185.8 627.9 183.9 644.2 C 183.1 651.3 182.4 658.3 181.9 665.4 C 181.0 681.4 180.4 701.3 184.2 718.4 C 188.5 718.5 192.9 718.6 197.5 718.9 C 197.0 718.1 196.4 717.2 195.9 716.3 C 195.9 716.1 196.0 716.0 196.1 716.1 C 197.2 717.3 198.4 718.3 199.7 719.1 C 207.7 719.7 216.1 720.6 224.1 721.8 C 226.8 721.7 229.5 722.0 231.7 723.1 C 242.1 725.1 251.9 727.8 260.3 731.3 M 318.1 720.1 C 317.2 726.2 309.2 733.3 303.6 735.4 C 295.8 738.3 287.2 737.1 282.4 729.8 C 282.1 729.3 282.5 728.7 283.1 728.7 C 288.4 729.0 294.6 729.0 299.9 728.3 C 302.7 727.9 305.7 728.0 308.5 727.4 C 312.6 726.4 315.1 722.8 318.1 720.1 Z M 313.9 670.2 C 311.0 675.3 304.1 677.1 299.0 674.0 C 295.0 671.7 289.8 669.7 287.8 665.1 C 285.4 659.2 287.4 654.2 293.2 651.7 C 298.7 649.4 305.2 652.8 310.0 655.1 C 315.4 657.8 316.8 665.3 313.9 670.2 M 206.9 663.5 C 198.0 662.2 198.4 647.6 206.9 646.0 C 211.4 645.1 216.2 645.2 220.9 644.5 C 226.1 643.7 231.2 643.5 235.3 647.3 C 237.3 649.1 237.6 652.4 236.3 654.7 C 233.7 659.1 228.7 660.7 224.0 661.8 C 218.3 663.1 212.7 664.3 206.9 663.5 M 286.2 657.3 C 271.2 663.8 266.7 680.2 265.7 695.2 C 265.7 695.9 264.8 695.8 264.7 695.2 C 263.4 683.2 266.3 671.9 272.7 661.8 C 275.3 657.5 282.1 654.9 281.0 649.2 C 279.1 639.4 267.6 633.9 260.2 628.8 C 259.7 628.4 260.0 627.5 260.7 627.6 C 274.0 630.1 287.2 640.5 287.6 654.7 C 287.7 655.6 287.1 656.9 286.2 657.3 " fill="#FFC99F"></path><path d="M 307.2 769.4 C 311.5 772.2 315.6 775.0 319.3 777.8 L 319.4 777.6 L 319.5 777.5 C 320.1 770.7 320.5 763.8 320.8 756.9 C 302.9 745.2 278.7 738.4 260.3 731.3 C 251.9 727.8 242.1 725.1 231.7 723.1 C 232.2 723.4 232.7 723.7 233.2 724.1 C 234.1 724.8 233.9 726.2 233.2 727.0 C 228.6 731.9 217.8 730.4 211.8 729.4 C 204.7 728.3 200.8 724.4 197.5 719.0 C 192.9 718.6 188.5 718.5 184.2 718.4 C 180.4 701.3 181.0 681.4 181.9 665.3 C 182.4 658.3 183.1 651.3 183.9 644.2 L 178.1 643.6 C 169.6 668.4 169.8 694.7 170.7 721.0 C 171.0 727.4 171.3 733.8 171.5 740.2 C 171.7 746.1 171.9 752.1 171.9 758.0 L 171.8 758.9 C 198.1 760.6 224.8 762.4 247.3 772.4 C 238.6 768.3 231.2 762.8 224.4 756.6 C 222.1 754.6 219.9 752.4 217.7 750.3 C 212.5 745.2 207.5 740.0 202.3 735.1 C 232.2 732.9 276.8 750.2 307.2 769.4 " fill="#F8A877"></path><path d="M 206.3 779.2 C 193.8 774.8 182.9 770.8 169.5 772.1 C 169.3 772.1 169.3 772.4 169.5 772.4 C 186.5 772.9 201.3 779.8 215.8 787.9 C 223.0 791.9 233.1 795.2 240.8 791.4 C 242.1 790.8 242.1 788.8 240.8 788.3 C 230.6 783.1 217.4 782.9 206.3 779.2 " fill="#704737"></path><path d="M 195.1 848.1 C 205.8 851.1 218.0 855.5 229.2 852.3 C 231.6 851.6 231.4 848.5 229.2 847.7 C 216.2 843.1 201.4 842.2 187.9 838.7 C 179.1 836.4 170.1 833.2 161.0 835.0 C 160.6 835.0 160.6 835.7 160.9 836.0 C 170.9 841.9 183.8 844.9 195.1 848.1 " fill="#5C2F1D"></path><path d="M 247.4 772.4 C 224.8 762.4 198.1 760.6 171.8 758.9 C 157.3 758.0 142.9 757.1 129.4 754.9 C 126.9 754.7 124.4 754.6 121.9 754.5 C 141.4 762.2 160.7 778.2 179.6 786.0 C 191.9 791.4 204.9 796.6 218.2 800.8 L 218.4 800.8 C 242.0 804.5 266.3 809.3 286.2 820.0 C 281.0 812.7 274.8 803.4 272.7 794.0 C 277.9 797.3 283.7 799.9 289.5 802.3 L 291.6 797.3 C 281.3 787.3 274.6 777.0 261.7 769.4 C 250.6 762.8 238.9 757.9 228.0 751.0 L 224.4 756.6 C 231.2 762.8 238.6 768.3 247.4 772.4 M 206.3 779.1 C 217.4 782.9 230.6 783.1 240.9 788.3 C 242.0 788.9 242.0 790.8 240.9 791.4 C 233.1 795.2 223.0 791.9 215.8 787.9 C 201.3 779.8 186.5 772.9 169.5 772.4 C 169.3 772.4 169.3 772.1 169.5 772.1 C 182.9 770.7 193.8 774.8 206.3 779.1 " fill="#5C2E1C"></path><path d="M 151.7 739.0 C 151.8 730.7 152.4 722.3 154.1 714.2 C 154.1 713.7 154.2 713.2 154.3 712.7 C 155.7 706.6 158.3 700.6 158.5 694.4 C 158.5 693.2 156.9 692.4 156.1 693.4 C 151.8 698.6 150.0 705.4 149.5 712.5 C 148.7 721.6 149.9 731.2 149.9 739.0 C 150.0 740.1 151.7 740.1 151.7 739.0 " fill="#562916"></path><path d="M 141.8 652.6 C 143.7 659.4 148.6 664.9 155.5 662.3 C 157.0 655.6 159.9 648.9 162.5 642.1 C 155.8 636.1 150.8 634.2 147.4 634.9 C 142.4 635.6 140.5 641.4 140.9 647.5 L 140.9 647.7 C 141.0 648.4 141.0 649.2 141.2 649.9 C 141.3 650.9 141.5 651.8 141.8 652.6 " fill="#BB7950"></path><path d="M 139.4 798.2 C 157.7 815.7 183.3 824.8 207.5 830.7 C 224.4 834.9 257.8 844.5 272.7 830.9 C 274.3 829.4 272.9 827.2 271.0 827.0 C 261.9 825.9 252.4 829.0 243.1 828.8 C 230.2 828.5 217.3 827.8 204.7 825.1 C 182.5 820.4 156.6 814.0 139.5 798.1 C 139.4 798.1 139.3 798.1 139.4 798.2 " fill="#5C2F1D"></path><path d="M 134.5 680.2 C 136.2 682.2 138.3 683.5 141.0 683.5 C 144.7 683.5 151.0 678.6 154.3 674.5 C 154.5 674.1 154.7 673.8 155.0 673.4 C 155.7 669.3 156.6 665.3 157.6 661.3 C 158.6 656.7 159.9 652.1 161.3 647.6 C 166.6 644.9 171.9 641.2 177.8 640.6 L 178.1 643.6 L 183.9 644.2 C 185.8 627.9 188.9 611.5 193.6 595.7 C 196.5 586.7 203.3 571.5 211.7 561.7 L 211.7 561.6 C 216.2 558.2 221.4 555.3 227.6 552.8 C 239.6 548.0 251.9 544.4 262.7 549.1 C 259.9 547.2 257.3 545.6 254.5 544.3 C 251.2 542.7 247.8 541.5 244.4 540.8 C 241.0 539.9 237.6 539.5 234.2 539.5 C 225.9 539.5 217.9 541.9 210.1 546.2 C 206.0 548.4 202.0 551.2 198.1 554.5 C 187.4 563.5 177.5 575.9 168.6 590.7 C 167.8 592.0 167.0 593.4 166.2 594.8 C 164.0 603.5 164.5 613.3 164.5 622.0 C 161.1 618.7 158.3 617.1 155.2 616.9 C 152.1 616.6 148.7 617.9 144.1 620.7 C 132.2 627.5 128.0 640.5 127.5 654.0 C 127.5 657.4 128.1 663.5 129.5 669.3 C 129.6 669.4 129.6 669.5 129.6 669.6 C 130.7 673.7 132.2 677.6 134.5 680.2 M 140.9 647.5 C 140.5 641.4 142.4 635.7 147.4 634.9 C 150.8 634.2 155.8 636.1 162.5 642.1 C 159.8 648.9 157.0 655.6 155.4 662.3 C 148.6 664.9 143.7 659.4 141.8 652.7 C 141.5 651.8 141.3 650.8 141.2 649.9 C 141.0 649.2 141.0 648.4 140.9 647.7 Z M 140.9 647.5 " fill="#F8A877"></path><path d="M 137.0 738.4 C 137.3 740.0 139.7 739.5 139.8 738.0 C 140.3 730.7 140.7 723.4 142.4 716.3 C 142.9 714.5 143.4 712.7 144.0 710.9 C 145.1 707.1 146.2 703.3 145.8 699.6 C 145.7 698.6 144.6 697.9 143.7 698.7 C 141.2 701.7 139.7 705.6 138.8 709.6 C 138.1 712.4 137.7 715.2 137.3 717.8 C 136.2 724.7 135.8 731.4 137.0 738.4 " fill="#562916"></path><path d="M 115.7 716.3 C 115.2 721.4 115.4 726.6 118.0 731.2 C 118.3 732.0 119.6 731.6 119.6 730.7 C 119.9 723.8 120.5 717.1 121.8 710.3 C 122.0 709.0 122.3 707.6 122.6 706.3 C 123.7 701.7 126.4 696.1 124.0 691.7 C 123.5 690.9 122.5 690.9 121.9 691.4 C 117.2 695.4 117.1 706.2 116.1 712.0 C 116.0 713.4 115.8 714.8 115.7 716.3 " fill="#562916"></path><path d="M 138.8 709.5 C 139.7 705.6 141.2 701.6 143.7 698.7 C 144.6 697.9 145.7 698.6 145.8 699.6 C 146.2 703.3 145.1 707.1 144.0 710.8 C 145.8 711.4 147.6 711.9 149.5 712.5 C 150.0 705.4 151.8 698.6 156.1 693.4 C 156.9 692.4 158.5 693.2 158.5 694.4 C 158.3 700.6 155.7 706.6 154.4 712.7 C 154.2 713.2 154.1 713.7 154.1 714.2 C 160.5 716.5 166.6 719.1 170.7 721.0 C 169.8 694.7 169.6 668.4 178.1 643.6 L 177.8 640.6 C 171.9 641.2 166.6 644.9 161.3 647.6 C 159.9 652.1 158.6 656.7 157.6 661.3 C 156.6 665.3 155.7 669.3 155.0 673.5 C 154.8 673.7 154.5 674.1 154.2 674.5 C 151.0 678.6 144.7 683.5 141.0 683.5 C 138.3 683.5 136.2 682.2 134.5 680.2 C 132.2 677.6 130.7 673.7 129.6 669.6 C 129.6 669.5 129.6 669.4 129.5 669.3 C 128.1 663.5 127.5 657.4 127.5 654.0 C 128.0 640.5 132.2 627.5 144.1 620.7 C 148.7 617.9 152.1 616.6 155.2 616.9 C 158.3 617.1 161.1 618.7 164.5 622.0 C 164.5 613.3 164.0 603.5 166.2 594.8 C 167.0 593.4 167.8 592.0 168.6 590.7 C 168.3 590.6 168.0 590.6 167.6 590.5 C 160.7 589.7 153.2 593.7 148.5 597.6 C 125.9 619.4 115.0 658.4 106.6 687.2 C 104.7 693.4 102.8 700.8 101.2 708.9 C 104.7 711.1 108.2 713.3 112.0 714.9 C 113.2 715.5 114.4 715.9 115.7 716.3 C 115.7 714.8 115.9 713.4 116.1 712.0 C 117.1 706.2 117.2 695.4 121.9 691.4 C 122.5 690.9 123.5 690.9 124.0 691.7 C 126.4 696.1 123.7 701.7 122.6 706.3 C 122.3 707.6 122.0 709.0 121.8 710.3 C 122.6 709.4 123.9 708.9 125.3 708.5 C 126.5 708.3 127.9 708.2 129.5 708.2 C 132.2 708.3 135.4 708.7 138.8 709.5 " fill="#2E0A00"></path><path d="M 139.8 738.0 C 139.7 739.5 137.3 740.0 137.0 738.4 C 135.8 731.4 136.2 724.7 137.3 717.8 C 137.7 715.1 138.1 712.3 138.8 709.5 C 135.4 708.7 132.2 708.3 129.5 708.2 C 127.9 708.2 126.5 708.3 125.3 708.5 C 123.9 708.9 122.6 709.4 121.8 710.3 C 120.5 717.1 119.9 723.8 119.6 730.7 C 119.6 731.6 118.3 732.0 118.0 731.2 C 115.4 726.6 115.2 721.4 115.7 716.3 C 114.4 715.9 113.2 715.5 112.0 714.9 C 108.2 713.3 104.7 711.1 101.2 708.9 C 94.9 738.9 91.6 778.7 102.9 803.4 C 108.4 821.8 120.3 837.7 141.6 848.3 C 185.3 870.7 241.1 866.9 289.4 851.2 C 289.8 851.2 290.1 851.2 290.5 851.3 C 300.2 843.3 311.0 834.0 318.4 824.1 C 320.2 821.8 321.7 819.6 323.0 817.5 C 313.6 811.5 302.5 807.7 291.7 803.2 C 291.0 802.9 290.2 802.6 289.5 802.3 C 283.7 799.9 277.9 797.3 272.7 794.0 C 274.8 803.4 281.0 812.7 286.2 820.0 C 266.3 809.3 242.0 804.5 218.4 800.8 L 218.2 800.8 C 204.9 796.6 191.9 791.4 179.6 786.0 C 160.7 778.2 141.4 762.2 121.9 754.5 C 124.4 754.6 126.9 754.7 129.4 754.9 C 142.9 757.1 157.3 758.0 171.8 758.9 L 171.9 758.0 C 171.9 752.1 171.7 746.2 171.5 740.2 C 171.3 733.8 171.0 727.4 170.7 721.0 C 166.6 719.1 160.6 716.5 154.1 714.2 C 152.3 722.3 151.8 730.7 151.7 739.0 C 151.7 740.1 150.0 740.1 150.0 739.0 C 149.9 731.2 148.7 721.6 149.5 712.5 C 147.6 711.9 145.8 711.4 144.0 710.8 C 143.4 712.7 142.9 714.5 142.4 716.3 C 140.7 723.4 140.3 730.7 139.8 738.0 M 139.5 798.1 C 156.6 814.0 182.5 820.4 204.8 825.1 C 217.3 827.8 230.2 828.5 243.1 828.8 C 252.4 828.9 261.9 825.9 271.0 826.9 C 272.9 827.2 274.3 829.4 272.7 830.9 C 257.8 844.4 224.4 834.9 207.5 830.7 C 183.3 824.8 157.7 815.7 139.4 798.2 C 139.3 798.1 139.4 798.1 139.5 798.1 M 229.2 852.3 C 218.0 855.5 205.8 851.1 195.1 848.1 C 183.8 844.9 170.9 841.9 160.9 836.0 C 160.6 835.7 160.6 835.1 161.0 835.0 C 170.1 833.2 179.1 836.4 187.9 838.7 C 201.4 842.2 216.2 843.1 229.2 847.7 C 231.4 848.5 231.6 851.6 229.2 852.3 " fill="#4E220B"></path><path d="M 320.6 704.8 C 315.6 714.2 313.1 723.6 305.8 731.8 C 301.7 736.5 292.3 743.3 286.4 738.1 C 285.6 737.4 285.6 736.0 286.4 735.2 C 288.3 733.4 290.5 733.0 292.9 731.9 C 296.4 730.2 299.2 727.4 302.0 724.7 C 308.2 718.6 315.3 711.7 320.4 704.7 C 320.4 704.6 320.6 704.7 320.6 704.8 " fill="#2E0A00"></path><path d="M 201.6 701.6 C 206.6 707.3 210.2 713.1 216.2 718.0 C 221.2 722.1 229.7 733.2 237.1 732.1 C 237.8 731.9 238.4 732.7 237.8 733.3 C 231.9 739.7 223.6 735.4 218.1 730.6 C 213.4 726.5 211.1 721.8 208.4 716.3 C 206.0 711.4 202.5 707.1 201.5 701.7 C 201.5 701.6 201.6 701.6 201.6 701.6 " fill="#2E0A00"></path><path d="M 244.3 686.2 C 244.3 678.2 239.1 671.8 232.8 671.8 C 226.4 671.8 221.2 678.2 221.2 686.2 C 221.2 694.1 226.4 700.6 232.8 700.6 C 239.1 700.6 244.3 694.1 244.3 686.2 " fill="#314751"></path><path d="M 304.9 696.0 C 304.9 688.1 299.8 681.6 293.4 681.6 C 287.0 681.6 281.9 688.1 281.9 696.0 C 281.9 704.0 287.0 710.5 293.4 710.5 C 299.8 710.5 304.9 704.0 304.9 696.0 " fill="#314751"></path><path d="M 245.6 598.2 C 250.9 605.1 256.5 610.5 265.7 610.8 C 273.8 611.0 281.6 603.5 285.8 597.4 C 285.8 597.3 286.0 597.4 285.9 597.5 C 281.4 606.6 276.7 615.5 265.7 616.5 C 255.6 617.3 248.7 606.2 245.3 598.4 C 245.2 598.1 245.5 597.9 245.6 598.2 " fill="#CF8557"></path><path d="M 282.1 335.8 C 282.6 323.5 284.4 310.9 284.4 299.7 C 284.4 270.6 286.5 241.6 287.5 213.5 C 289.5 168.1 301.3 120.8 294.5 75.1 L 294.8 75.0 C 293.8 60.1 290.3 47.9 284.4 38.2 C 272.5 18.2 250.8 8.2 220.2 4.0 C 192.2 -0.2 164.2 2.9 136.2 6.1 C 112.4 9.2 96.8 5.0 95.8 32.0 C 93.7 84.9 92.7 137.9 96.8 190.8 C 100.3 232.5 100.9 290.2 115.6 334.1 C 122.5 349.6 131.0 364.4 138.3 379.6 C 154.9 410.7 174.5 434.5 178.7 469.8 L 186.2 481.2 C 202.5 469.5 216.7 470.5 214.0 443.9 C 209.6 398.9 255.8 376.3 281.9 343.5 C 281.9 341.0 282.0 338.4 282.1 335.8 M 109.3 134.7 C 109.2 119.8 109.3 109.8 124.8 108.8 C 140.3 107.7 167.4 117.1 182.9 122.3 C 180.8 130.6 179.8 139.9 179.8 148.2 L 178.7 148.2 C 163.2 138.9 129.0 134.7 109.3 134.7 " fill="#403D58"></path><path d="M 286.6 337.4 C 287.6 340.8 288.6 344.3 289.3 347.9 C 294.9 356.4 301.3 364.4 307.3 373.3 C 312.4 380.6 318.6 387.8 318.6 397.2 C 319.7 409.6 310.4 414.8 309.3 425.2 C 309.3 436.6 318.6 441.8 319.7 451.1 C 320.7 458.4 316.6 468.8 314.5 476.1 C 311.0 484.9 301.3 499.1 300.6 510.2 C 315.9 487.9 329.1 463.0 336.2 437.6 C 341.5 418.0 344.5 397.9 346.3 377.5 C 343.4 368.0 345.5 354.2 348.5 340.7 C 348.5 340.7 348.5 340.6 348.5 340.5 C 349.7 309.4 349.8 278.1 352.8 247.8 C 356.0 214.0 356.7 180.8 358.3 147.3 C 350.5 147.3 343.4 147.6 336.2 150.3 C 334.2 143.0 334.2 133.7 333.1 126.4 C 341.0 123.5 350.7 124.2 359.5 124.3 C 359.7 121.2 359.9 118.1 360.1 115.0 C 360.5 111.1 360.9 106.2 361.4 100.8 C 364.0 73.5 369.2 31.5 379.4 18.9 C 362.8 11.0 330.4 14.7 313.5 18.5 C 297.9 22.2 289.2 27.5 284.4 38.2 C 290.3 47.9 293.8 60.1 294.8 75.0 L 294.5 75.1 C 301.3 120.8 289.5 168.1 287.5 213.5 C 286.5 241.6 284.4 270.6 284.4 299.7 C 284.4 310.9 282.6 323.5 282.1 335.8 C 282.4 336.5 282.7 337.0 283.1 337.7 C 283.5 335.2 283.9 332.6 284.2 330.1 C 285.1 332.5 285.9 334.9 286.6 337.4 " fill="#464460"></path><path d="M 289.0 499.6 C 293.4 485.6 296.3 471.1 295.8 456.3 C 295.7 450.7 295.6 444.7 295.6 438.6 C 289.6 449.1 280.2 460.1 280.2 467.0 L 280.1 468.8 L 280.2 468.8 C 282.5 478.6 283.7 493.2 283.0 505.7 C 285.3 503.9 287.4 502.0 289.0 499.6 " fill="#F7A9AC"></path><path d="M 289.3 347.9 C 287.6 345.4 288.5 338.3 287.0 335.7 C 287.1 324.7 283.6 330.4 282.7 331.4 C 282.7 331.6 280.9 342.8 280.9 343.2 C 276.6 367.9 271.2 392.7 261.4 416.1 C 260.9 432.2 260.1 456.0 267.8 464.6 L 267.6 465.1 C 271.2 467.1 275.6 468.7 280.1 468.8 L 280.2 467.0 C 280.2 460.1 289.6 449.1 295.6 438.6 C 295.4 409.9 295.6 376.4 289.3 347.9 " fill="#D24761"></path><path d="M 272.0 546.6 C 281.7 535.8 291.5 523.5 300.6 510.2 C 301.3 499.1 311.0 484.9 314.5 476.1 C 316.6 468.8 320.7 458.4 319.7 451.1 C 318.6 441.8 309.3 436.6 309.3 425.2 C 310.4 414.8 319.7 409.6 318.6 397.2 C 318.6 387.8 312.4 380.6 307.3 373.4 C 301.3 364.4 294.9 356.4 289.4 347.9 C 295.6 376.4 295.4 409.9 295.6 438.6 C 295.6 444.7 295.7 450.7 295.8 456.3 C 296.3 471.1 293.4 485.6 289.0 499.6 C 285.4 511.3 280.8 522.7 276.0 533.9 C 274.3 538.0 272.5 542.0 270.8 546.1 Z M 272.0 546.6 " fill="#6C677E"></path><path d="M 359.5 124.3 C 359.1 132.0 358.6 139.6 358.3 147.3 C 356.7 180.8 356.0 214.0 352.8 247.8 C 349.8 278.1 349.7 309.4 348.5 340.5 C 351.2 328.9 354.6 317.5 355.9 309.0 C 361.1 280.0 367.3 251.9 377.7 225.0 C 394.3 178.3 417.1 140.9 443.0 99.4 C 421.2 89.1 400.5 77.6 379.8 66.3 C 372.5 77.1 368.4 89.6 361.4 100.8 C 360.8 106.2 360.5 111.1 360.1 115.0 C 359.9 118.1 359.7 121.2 359.5 124.3 " fill="#3A3952"></path><path d="M 358.3 147.3 C 358.6 139.6 359.0 132.0 359.6 124.3 C 350.6 124.2 341.0 123.5 333.1 126.4 C 334.2 133.7 334.2 143.0 336.2 150.3 C 343.4 147.6 350.5 147.3 358.3 147.3 " fill="#6C677E"></path><path d="M 283.0 505.7 C 276.7 510.4 268.9 513.7 263.7 519.6 C 257.5 526.9 253.3 537.3 247.1 545.6 L 246.1 545.6 C 246.2 533.3 246.8 521.7 242.9 509.2 C 242.3 507.2 240.4 503.6 238.3 499.6 C 234.0 491.9 228.3 483.3 227.5 484.8 L 226.6 484.4 C 222.4 492.0 217.9 499.6 212.9 507.2 C 204.2 519.4 189.4 533.3 180.8 544.7 C 183.4 546.5 186.4 548.0 189.1 548.7 C 196.1 544.4 202.2 543.0 207.9 543.0 C 219.1 543.0 228.9 548.7 241.9 550.8 C 260.4 553.7 265.2 542.9 276.0 533.9 C 280.8 522.7 285.4 511.3 289.0 499.6 C 287.4 502.0 285.3 503.9 283.0 505.7 " fill="#FAD2D0"></path><path d="M 283.0 505.7 C 283.7 493.2 282.5 478.6 280.2 468.8 L 280.1 468.8 C 275.7 468.7 271.2 467.1 267.6 465.1 C 266.1 464.3 264.8 463.4 263.7 462.5 C 255.0 472.2 242.6 486.2 238.3 499.6 C 240.4 503.6 242.3 507.2 242.9 509.2 C 246.8 521.7 246.2 533.3 246.1 545.6 L 247.1 545.6 C 253.3 537.3 257.5 526.9 263.7 519.6 C 268.9 513.7 276.7 510.4 283.0 505.7 " fill="#B13B52"></path><path d="M 180.8 544.7 C 189.4 533.3 204.2 519.4 212.9 507.2 C 217.9 499.6 222.4 492.0 226.7 484.4 C 235.8 468.1 243.8 451.8 252.3 435.6 C 255.6 429.1 258.6 422.7 261.4 416.1 C 271.2 392.8 277.7 368.9 282.0 344.2 C 281.9 344.0 281.9 343.8 281.9 343.5 C 255.8 376.3 209.6 398.9 214.0 443.9 C 216.7 470.5 202.5 469.5 186.2 481.1 C 184.1 482.6 181.9 484.4 179.8 486.5 C 169.9 493.9 157.5 506.4 149.6 518.6 C 159.3 528.3 170.6 536.3 180.3 545.2 C 180.4 545.1 180.6 544.9 180.8 544.7 " fill="#6C677E"></path><path d="M 267.6 465.1 L 267.8 464.7 C 260.1 456.0 260.9 432.1 261.4 416.1 C 258.6 422.7 255.6 429.1 252.3 435.6 C 243.8 451.8 235.8 468.1 226.7 484.4 L 227.5 484.8 C 228.3 483.3 234.0 491.9 238.3 499.6 C 242.6 486.2 255.0 472.2 263.7 462.5 C 264.8 463.4 266.1 464.3 267.6 465.1 " fill="#F7A9AC"></path><path d="M 115.6 334.1 C 111.7 325.4 108.4 316.3 106.1 306.9 C 101.0 284.1 97.9 258.2 93.7 233.3 C 84.4 178.3 80.3 125.4 80.3 69.4 C 62.6 68.3 41.9 69.4 24.3 71.4 C 19.4 72.3 10.0 73.7 5.2 73.8 C -7.2 82.0 20.2 223.1 24.3 242.6 C 36.7 311.1 54.3 374.4 90.6 435.6 C 107.2 463.6 124.8 492.7 146.6 515.5 C 147.6 516.5 148.5 517.6 149.6 518.6 C 157.5 506.4 169.9 493.9 179.8 486.5 C 181.9 484.4 184.1 482.6 186.2 481.1 L 178.7 469.8 C 174.5 434.5 154.9 410.7 138.3 379.6 C 131.0 364.4 122.5 349.5 115.6 334.1 " fill="#403D58"></path><path d="M 179.8 148.2 C 179.8 139.9 180.8 130.6 182.9 122.3 C 167.3 117.1 140.3 107.7 124.8 108.8 C 109.3 109.8 109.2 119.8 109.3 134.7 C 129.0 134.7 163.2 138.9 178.7 148.2 Z M 179.8 148.2 " fill="#6C677E"></path><path d="M 319.1 221.7 C 319.1 214.8 313.5 209.2 306.7 209.2 C 299.8 209.2 294.3 214.8 294.3 221.7 C 294.3 228.5 299.8 234.1 306.7 234.1 C 313.5 234.1 319.1 228.5 319.1 221.7 " fill="#6C677E"></path><path d="M 325.5 123.5 C 325.5 116.7 319.9 111.1 313.1 111.1 C 306.2 111.1 300.6 116.7 300.6 123.5 C 300.6 130.4 306.2 136.0 313.1 136.0 C 319.9 136.0 325.5 130.4 325.5 123.5 " fill="#6C677E"></path></g></g></g></svg>