<?xml version="1.0" encoding="UTF-8"?><svg xmlns="http://www.w3.org/2000/svg" xmlns:xlink="http://www.w3.org/1999/xlink" clip-rule="evenodd" stroke-miterlimit="4.00" viewBox="0 0 437 259"><desc>SVG generated by Keynote</desc><defs></defs><g transform="matrix(1.00, 0.00, -0.00, -1.00, 0.0, 259.0)"><image xlink:href="4F03466C3F9D5438492CAC995E99082F.png" width="434.00" height="252.00" transform="matrix(1.00, 0.00, -0.00, -1.00, 1.3, 253.5)" opacity="0.50"></image><path d="M 79.4 252.5 L 357.2 252.5 C 378.7 252.5 389.7 252.5 401.3 248.8 C 414.0 244.2 424.0 234.2 428.6 221.5 C 432.3 209.9 432.3 198.9 432.3 177.1 L 432.3 81.2 C 432.3 59.7 432.3 48.7 428.6 37.1 C 424.0 24.4 414.0 14.4 401.3 9.8 C 389.7 6.1 378.7 6.1 356.9 6.1 L 79.4 6.1 C 57.9 6.1 46.9 6.1 35.3 9.8 C 22.6 14.4 12.6 24.4 8.0 37.1 C 4.3 48.7 4.3 59.7 4.3 81.5 L 4.3 177.4 C 4.3 198.9 4.3 209.9 8.0 221.5 C 12.6 234.2 22.6 244.2 35.3 248.8 C 46.9 252.5 57.9 252.5 79.7 252.5 Z M 79.4 252.5 " fill="#52575F"></path></g></svg>