<?xml version="1.0" encoding="UTF-8"?><svg xmlns="http://www.w3.org/2000/svg" xmlns:xlink="http://www.w3.org/1999/xlink" clip-rule="evenodd" stroke-miterlimit="4.00" viewBox="0 0 190 20"><desc>SVG generated by Keynote</desc><defs></defs><g transform="matrix(1.00, 0.00, -0.00, -1.00, 0.0, 20.0)"><text xml:space="preserve" font-family="Avenir-Book" font-size="16.0" fill="#FEFFFF" transform="matrix(1.00, 0.00, -0.00, -1.00, 2.0, 5.0)">t</text><text xml:space="preserve" font-family="Avenir-Book" font-size="16.0" fill="#FEFFFF" transform="matrix(1.00, 0.00, -0.00, -1.00, 7.3, 5.0)">o</text><text xml:space="preserve" font-family="Avenir-Book" font-size="16.0" fill="#FEFFFF" transform="matrix(1.00, 0.00, -0.00, -1.00, 16.8, 5.0)">g</text><text xml:space="preserve" font-family="Avenir-Book" font-size="16.0" fill="#FEFFFF" transform="matrix(1.00, 0.00, -0.00, -1.00, 26.6, 5.0)">e</text><text xml:space="preserve" font-family="Avenir-Book" font-size="16.0" fill="#FEFFFF" transform="matrix(1.00, 0.00, -0.00, -1.00, 35.5, 5.0)">t</text><text xml:space="preserve" font-family="Avenir-Book" font-size="16.0" fill="#FEFFFF" transform="matrix(1.00, 0.00, -0.00, -1.00, 40.8, 5.0)">h</text><text xml:space="preserve" font-family="Avenir-Book" font-size="16.0" fill="#FEFFFF" transform="matrix(1.00, 0.00, -0.00, -1.00, 49.7, 5.0)">e</text><text xml:space="preserve" font-family="Avenir-Book" font-size="16.0" fill="#FEFFFF" transform="matrix(1.00, 0.00, -0.00, -1.00, 58.6, 5.0)">r</text><text xml:space="preserve" font-family="Avenir-Book" font-size="16.0" fill="#FEFFFF" transform="matrix(1.00, 0.00, -0.00, -1.00, 63.9, 5.0)"> </text><text xml:space="preserve" font-family="Avenir-Book" font-size="16.0" fill="#FEFFFF" transform="matrix(1.00, 0.00, -0.00, -1.00, 68.3, 5.0)">a</text><text xml:space="preserve" font-family="Avenir-Book" font-size="16.0" fill="#FEFFFF" transform="matrix(1.00, 0.00, -0.00, -1.00, 76.6, 5.0)">f</text><text xml:space="preserve" font-family="Avenir-Book" font-size="16.0" fill="#FEFFFF" transform="matrix(1.00, 0.00, -0.00, -1.00, 81.4, 5.0)">t</text><text xml:space="preserve" font-family="Avenir-Book" font-size="16.0" fill="#FEFFFF" transform="matrix(1.00, 0.00, -0.00, -1.00, 86.7, 5.0)">e</text><text xml:space="preserve" font-family="Avenir-Book" font-size="16.0" fill="#FEFFFF" transform="matrix(1.00, 0.00, -0.00, -1.00, 95.6, 5.0)">r</text><text xml:space="preserve" font-family="Avenir-Book" font-size="16.0" fill="#FEFFFF" transform="matrix(1.00, 0.00, -0.00, -1.00, 100.9, 5.0)"> </text><text xml:space="preserve" font-family="Avenir-Book" font-size="16.0" fill="#FEFFFF" transform="matrix(1.00, 0.00, -0.00, -1.00, 105.3, 5.0)">m</text><text xml:space="preserve" font-family="Avenir-Book" font-size="16.0" fill="#FEFFFF" transform="matrix(1.00, 0.00, -0.00, -1.00, 119.0, 5.0)">a</text><text xml:space="preserve" font-family="Avenir-Book" font-size="16.0" fill="#FEFFFF" transform="matrix(1.00, 0.00, -0.00, -1.00, 127.3, 5.0)">n</text><text xml:space="preserve" font-family="Avenir-Book" font-size="16.0" fill="#FEFFFF" transform="matrix(1.00, 0.00, -0.00, -1.00, 136.2, 5.0)">y</text><text xml:space="preserve" font-family="Avenir-Book" font-size="16.0" fill="#FEFFFF" transform="matrix(1.00, 0.00, -0.00, -1.00, 143.9, 5.0)"> </text><text xml:space="preserve" font-family="Avenir-Book" font-size="16.0" fill="#FEFFFF" transform="matrix(1.00, 0.00, -0.00, -1.00, 148.3, 5.0)">y</text><text xml:space="preserve" font-family="Avenir-Book" font-size="16.0" fill="#FEFFFF" transform="matrix(1.00, 0.00, -0.00, -1.00, 156.0, 5.0)">e</text><text xml:space="preserve" font-family="Avenir-Book" font-size="16.0" fill="#FEFFFF" transform="matrix(1.00, 0.00, -0.00, -1.00, 164.9, 5.0)">a</text><text xml:space="preserve" font-family="Avenir-Book" font-size="16.0" fill="#FEFFFF" transform="matrix(1.00, 0.00, -0.00, -1.00, 173.2, 5.0)">r</text><text xml:space="preserve" font-family="Avenir-Book" font-size="16.0" fill="#FEFFFF" transform="matrix(1.00, 0.00, -0.00, -1.00, 178.6, 5.0)">s</text><text xml:space="preserve" font-family="Avenir-Book" font-size="16.0" fill="#FEFFFF" transform="matrix(1.00, 0.00, -0.00, -1.00, 185.4, 5.0)">.</text></g></svg>